G04 #@! TF.FileFunction,Copper,L2,Bot,Signal*
%FSLAX46Y46*%
G04 Gerber Fmt 4.6, Leading zero omitted, Abs format (unit mm)*
G04 Created by KiCad (PCBNEW 4.0.7-e2-6376~58~ubuntu16.04.1) date Tue Feb 27 18:52:35 2018*
%MOMM*%
%LPD*%
G01*
G04 APERTURE LIST*
%ADD10C,0.150000*%
%ADD11R,1.727200X1.727200*%
%ADD12O,1.727200X1.727200*%
%ADD13C,5.700000*%
%ADD14R,2.032000X1.727200*%
%ADD15O,2.032000X1.727200*%
%ADD16O,1.998980X1.998980*%
%ADD17R,1.998980X1.998980*%
%ADD18C,0.400000*%
%ADD19R,1.300000X2.300000*%
%ADD20R,0.500000X0.900000*%
%ADD21R,1.750000X1.750000*%
%ADD22C,1.750000*%
%ADD23R,1.300000X1.300000*%
%ADD24C,1.300000*%
%ADD25C,1.998980*%
%ADD26C,0.600000*%
%ADD27C,0.500000*%
%ADD28C,0.250000*%
%ADD29C,1.400000*%
%ADD30C,0.254000*%
G04 APERTURE END LIST*
D10*
D11*
X129008000Y-115405000D03*
D12*
X131548000Y-115405000D03*
X129008000Y-117945000D03*
X131548000Y-117945000D03*
X129008000Y-120485000D03*
X131548000Y-120485000D03*
D13*
X73660000Y-121920000D03*
X78081000Y-56000000D03*
X157480000Y-56000000D03*
D14*
X161036000Y-87376000D03*
D15*
X161036000Y-84836000D03*
X161036000Y-82296000D03*
X161036000Y-79756000D03*
X161036000Y-77216000D03*
X161036000Y-74676000D03*
X161036000Y-72136000D03*
X161036000Y-69596000D03*
D16*
X69191000Y-57747000D03*
D17*
X69191000Y-55207000D03*
D18*
X82780000Y-78980000D03*
X82780000Y-80480000D03*
X84280000Y-78980000D03*
X84280000Y-80480000D03*
X82780000Y-81980000D03*
X84280000Y-81980000D03*
D13*
X157480000Y-121920000D03*
D11*
X83124721Y-63609889D03*
D12*
X83124721Y-61069889D03*
X85664721Y-63609889D03*
X85664721Y-61069889D03*
X88204721Y-63609889D03*
X88204721Y-61069889D03*
X90744721Y-63609889D03*
X90744721Y-61069889D03*
X93284721Y-63609889D03*
X93284721Y-61069889D03*
X95824721Y-63609889D03*
X95824721Y-61069889D03*
X98364721Y-63609889D03*
X98364721Y-61069889D03*
X100904721Y-63609889D03*
X100904721Y-61069889D03*
X103444721Y-63609889D03*
X103444721Y-61069889D03*
X105984721Y-63609889D03*
X105984721Y-61069889D03*
D19*
X69695000Y-111214000D03*
X77595000Y-109214000D03*
X72095000Y-109214000D03*
X81295000Y-111214000D03*
X75795000Y-111214000D03*
D20*
X81649000Y-58890000D03*
X83149000Y-58890000D03*
X84570000Y-58890000D03*
X86070000Y-58890000D03*
D21*
X109363000Y-69685000D03*
D22*
X111863000Y-69685000D03*
X114363000Y-69685000D03*
D21*
X112498000Y-54572000D03*
D22*
X114998000Y-54572000D03*
D21*
X121546750Y-54572000D03*
D22*
X124046750Y-54572000D03*
D21*
X130595500Y-54572000D03*
D22*
X133095500Y-54572000D03*
D21*
X139644250Y-54572000D03*
D22*
X142144250Y-54572000D03*
D21*
X148693000Y-54572000D03*
D22*
X151193000Y-54572000D03*
D23*
X71731000Y-67399000D03*
D24*
X76731000Y-67399000D03*
D25*
X79732000Y-118580000D03*
X77192000Y-118580000D03*
X82272000Y-118580000D03*
X79859000Y-103721000D03*
X82399000Y-103721000D03*
X77319000Y-103721000D03*
D26*
X90527000Y-71844000D03*
X116689000Y-72733000D03*
X101195000Y-71336000D03*
X128754000Y-66129000D03*
X102465000Y-98641000D03*
X94718000Y-97879000D03*
X110466000Y-92164000D03*
X94718000Y-94069000D03*
X122032990Y-94196000D03*
X101576000Y-95720000D03*
X81637000Y-67272000D03*
X106439990Y-102674014D03*
X110837010Y-97117000D03*
X93851338Y-76184338D03*
X140184000Y-92545000D03*
X144756005Y-91274995D03*
X141454000Y-93815000D03*
X146025996Y-85814000D03*
X150725000Y-120358000D03*
X160885000Y-116548000D03*
X101576000Y-88100000D03*
X106402000Y-104102000D03*
X68456940Y-81496000D03*
X68429000Y-86322000D03*
X87606000Y-75527000D03*
X84431000Y-76162000D03*
X112097011Y-108858428D03*
X102084000Y-118072000D03*
X102084000Y-125564996D03*
X111863000Y-110579000D03*
X115927000Y-104483000D03*
X115419000Y-107785000D03*
X142470000Y-84163000D03*
X143740000Y-85433000D03*
X140946000Y-91148000D03*
X146026000Y-97371000D03*
X140692000Y-103086000D03*
X117324000Y-87465000D03*
X125198000Y-95212000D03*
X114911000Y-97117000D03*
X110847000Y-101689000D03*
X107672000Y-112611000D03*
X108561000Y-118199000D03*
X107418000Y-118199000D03*
X117324000Y-114262000D03*
X115673000Y-113881000D03*
X110974000Y-139662000D03*
X109323000Y-143792040D03*
X118721000Y-144361000D03*
X117959000Y-130645000D03*
X108561000Y-119469000D03*
X110847000Y-117183000D03*
X107418000Y-78067000D03*
X111482000Y-80861000D03*
X123801000Y-82512000D03*
X145898968Y-96101000D03*
X146661004Y-96863000D03*
X148185000Y-96863000D03*
X151233000Y-96863014D03*
X149582000Y-96863000D03*
X95861000Y-81115000D03*
X99925000Y-80480000D03*
X94718000Y-78448000D03*
X100179000Y-88608000D03*
X96242000Y-89624000D03*
X94718000Y-90132000D03*
X94718000Y-83655000D03*
X94718000Y-87211000D03*
X79478000Y-79845000D03*
X76049000Y-80226000D03*
X82780000Y-77559000D03*
X83923000Y-83528000D03*
X121007000Y-112991988D03*
X116896362Y-103674362D03*
X152884000Y-93307000D03*
X150344000Y-88862000D03*
X145899000Y-91275000D03*
X149709000Y-88100000D03*
X146026000Y-89370000D03*
X147296000Y-88100000D03*
X153773000Y-91528994D03*
X153773000Y-94323000D03*
X153773000Y-92926000D03*
X152757000Y-89243000D03*
X151741000Y-88227000D03*
X153646000Y-90132000D03*
X153646000Y-95720000D03*
X152503000Y-96863000D03*
X115165000Y-111849000D03*
X115927000Y-112738000D03*
X120118000Y-104483000D03*
X117578000Y-112230000D03*
X119229000Y-113119000D03*
X117451000Y-113119000D03*
X120372000Y-103594000D03*
X115292000Y-108674000D03*
X116181000Y-108674000D03*
X116682303Y-107278157D03*
X116674998Y-105499000D03*
X118594000Y-103594000D03*
X121275002Y-105499000D03*
X121267697Y-107278157D03*
X121261000Y-109055000D03*
X121275002Y-110833000D03*
X123717883Y-113699554D03*
X134088000Y-75273000D03*
X113006000Y-75400000D03*
X132259969Y-78784070D03*
X147804000Y-74130000D03*
X105640004Y-77686000D03*
X121388000Y-94831000D03*
X96115000Y-76289000D03*
X103128759Y-110402977D03*
X101195000Y-111976000D03*
X99798010Y-70447000D03*
X123674000Y-73113996D03*
X130659000Y-110960000D03*
X115800000Y-126708000D03*
X115927000Y-129248000D03*
X115165000Y-138900000D03*
X132564000Y-101816000D03*
X114539990Y-126415202D03*
X114403000Y-129121000D03*
X113895000Y-138900000D03*
X131167000Y-108420000D03*
X112244000Y-126581000D03*
X112625000Y-128867000D03*
X111990000Y-138900000D03*
X129897000Y-94577000D03*
X110593000Y-127216000D03*
X110085000Y-129375000D03*
X110085000Y-138900000D03*
X129271990Y-95199562D03*
X108561000Y-126708000D03*
X108180000Y-128486000D03*
X108815000Y-138900000D03*
X129957948Y-112417950D03*
X117451000Y-126708000D03*
X117705000Y-129248000D03*
X116560154Y-139025154D03*
X129389000Y-103721000D03*
X106910000Y-122517000D03*
X138718224Y-87022998D03*
X154281000Y-88354000D03*
X139674968Y-86841849D03*
X139093711Y-86292159D03*
X143867000Y-81877000D03*
X141835000Y-80607000D03*
X139366011Y-82228344D03*
X140057000Y-76416000D03*
X138152000Y-77686000D03*
X132857986Y-87349873D03*
X133638231Y-87173131D03*
X131675000Y-96990000D03*
X127737999Y-69431000D03*
X134469000Y-87592000D03*
X135466043Y-81734850D03*
X135838583Y-89985011D03*
X136091053Y-78192938D03*
X135602010Y-90749239D03*
X136935644Y-81701457D03*
X136441979Y-89008748D03*
X140809010Y-96487777D03*
X140827584Y-98637810D03*
X138777010Y-79101396D03*
X136928300Y-90241708D03*
X138568765Y-98522031D03*
X137887261Y-93032172D03*
X137517000Y-91148000D03*
X139041000Y-80734000D03*
X117522526Y-96791989D03*
X121272588Y-96614388D03*
X129125010Y-97416010D03*
X111322397Y-104110441D03*
X131929000Y-93053000D03*
X137252221Y-109424352D03*
X132587150Y-94460191D03*
X136526899Y-108072721D03*
X136406949Y-107281753D03*
X132859426Y-95776282D03*
X133204280Y-96581072D03*
X134922881Y-105362010D03*
X124193656Y-96074964D03*
X142851000Y-105372000D03*
X143740000Y-112230000D03*
X140054446Y-89240452D03*
X144883000Y-93942000D03*
X139366011Y-83067082D03*
X144975266Y-95446012D03*
X126851551Y-84795449D03*
X145645000Y-88481000D03*
X142978000Y-101943000D03*
X110593004Y-108547000D03*
X125436999Y-88262990D03*
X120499000Y-100800000D03*
X111881936Y-107158405D03*
X118975052Y-100164998D03*
X124465231Y-89853871D03*
X122032990Y-96863000D03*
X117522528Y-95953752D03*
X129145204Y-98279034D03*
X110974000Y-102958996D03*
X110120009Y-106475021D03*
X114149000Y-102070000D03*
X123038998Y-86830000D03*
X122531008Y-88227000D03*
X114933480Y-102303801D03*
X109689972Y-107173930D03*
X124308996Y-87338000D03*
X118175854Y-100200996D03*
X109196000Y-107911994D03*
X105640000Y-96736000D03*
X107291000Y-82766000D03*
X100687000Y-65494000D03*
X134469000Y-86195000D03*
X108582290Y-108623495D03*
X108434000Y-89243000D03*
X109943782Y-109153058D03*
X106790551Y-100670551D03*
X107300990Y-109576817D03*
X114784000Y-105753000D03*
X110593000Y-116167000D03*
X107548859Y-115275020D03*
X102334841Y-110304423D03*
X101068002Y-107150000D03*
X108239019Y-102576333D03*
X111239103Y-109917189D03*
X107926000Y-106896000D03*
X107926000Y-108166000D03*
X113641000Y-113627000D03*
X109323000Y-111214000D03*
X134088000Y-68542000D03*
X134216032Y-82019808D03*
X120128971Y-77453635D03*
X131040000Y-87592000D03*
X132437000Y-68034000D03*
X131187280Y-80749178D03*
X121007006Y-76924000D03*
X132791794Y-89342856D03*
X133834000Y-67526000D03*
X132561582Y-81625684D03*
X119356000Y-76279010D03*
X132515894Y-88073054D03*
X128652513Y-79793974D03*
X111597092Y-75523422D03*
X128762268Y-92220173D03*
X112334193Y-75834389D03*
X129016975Y-92978555D03*
X110466000Y-112738000D03*
X114911000Y-115405000D03*
X98528000Y-101816000D03*
X97004000Y-101816000D03*
X97766000Y-101816000D03*
X88622000Y-117945000D03*
X95607000Y-104483000D03*
X95607000Y-117818000D03*
X95734000Y-112611000D03*
X94591000Y-110960000D03*
X95734000Y-109690000D03*
X75795000Y-117437000D03*
X75922000Y-104737000D03*
X103989000Y-102070000D03*
X101830000Y-106261000D03*
X103100008Y-112230000D03*
X103235654Y-108554554D03*
X99925000Y-110579000D03*
X97385000Y-112230000D03*
X88495000Y-104229000D03*
X143613000Y-104356000D03*
X143613000Y-100292000D03*
X150852000Y-116548000D03*
X141553466Y-95153565D03*
X139629552Y-93838224D03*
X138914000Y-94196000D03*
X100687000Y-72860000D03*
X121769000Y-74130000D03*
X123166000Y-67147967D03*
X116416724Y-63080011D03*
X133199000Y-74765000D03*
X124690000Y-63462000D03*
X133834000Y-63462000D03*
X142851000Y-63462000D03*
X152249000Y-63589000D03*
D27*
X101494999Y-71635999D02*
X101195000Y-71336000D01*
X101601065Y-71635999D02*
X101494999Y-71635999D01*
X116689000Y-72733000D02*
X102698066Y-72733000D01*
X102698066Y-72733000D02*
X101601065Y-71635999D01*
D28*
X94718000Y-94069000D02*
X94718000Y-97879000D01*
X110466000Y-92164000D02*
X110212000Y-92164000D01*
X124182000Y-94196000D02*
X122457254Y-94196000D01*
X125198000Y-95212000D02*
X124182000Y-94196000D01*
X122457254Y-94196000D02*
X122032990Y-94196000D01*
X101875999Y-96019999D02*
X101576000Y-95720000D01*
X106102001Y-100246001D02*
X101875999Y-96019999D01*
X95988000Y-90132000D02*
X101276001Y-95420001D01*
X94718000Y-90132000D02*
X95988000Y-90132000D01*
X106102001Y-103802001D02*
X106102001Y-100246001D01*
X101276001Y-95420001D02*
X101576000Y-95720000D01*
X106402000Y-104102000D02*
X106102001Y-103802001D01*
X81637000Y-67696264D02*
X81637000Y-67272000D01*
X81637000Y-75060001D02*
X81637000Y-67696264D01*
X83754999Y-77178000D02*
X81637000Y-75060001D01*
X106402000Y-102712004D02*
X106439990Y-102674014D01*
X106402000Y-104102000D02*
X106402000Y-102712004D01*
X110847000Y-97126990D02*
X110837010Y-97117000D01*
X110847000Y-101689000D02*
X110847000Y-97126990D01*
X114911000Y-97117000D02*
X110837010Y-97117000D01*
X94151337Y-76484337D02*
X93851338Y-76184338D01*
X94718000Y-78448000D02*
X94718000Y-77051000D01*
X94718000Y-77051000D02*
X94151337Y-76484337D01*
X141454000Y-93815000D02*
X140184000Y-92545000D01*
X144756000Y-91274990D02*
X144756005Y-91274995D01*
X144756000Y-91148000D02*
X144756000Y-91274990D01*
X140946000Y-91148000D02*
X144756000Y-91148000D01*
X141454000Y-93815000D02*
X141753999Y-94114999D01*
X141753999Y-94114999D02*
X142607576Y-94114999D01*
X142607576Y-94114999D02*
X144563590Y-96071013D01*
X144563590Y-96071013D02*
X144726013Y-96071013D01*
X144726013Y-96071013D02*
X146026000Y-97371000D01*
X143740000Y-85433000D02*
X144121000Y-85814000D01*
X145601732Y-85814000D02*
X146025996Y-85814000D01*
X144121000Y-85814000D02*
X145601732Y-85814000D01*
X140692000Y-103086000D02*
X144121000Y-103086000D01*
X144121000Y-103086000D02*
X146026000Y-101181000D01*
X146026000Y-101181000D02*
X146026000Y-97970998D01*
X146026000Y-97970998D02*
X146325999Y-97670999D01*
X146325999Y-97670999D02*
X146026000Y-97371000D01*
X101151736Y-88100000D02*
X101576000Y-88100000D01*
X100687000Y-88100000D02*
X101151736Y-88100000D01*
X100179000Y-88608000D02*
X100687000Y-88100000D01*
X111863000Y-110579000D02*
X111863000Y-110154736D01*
X111863000Y-110154736D02*
X112097011Y-109920725D01*
X112097011Y-109920725D02*
X112097011Y-108858428D01*
X102084000Y-125564996D02*
X102084000Y-118072000D01*
X115419000Y-107785000D02*
X115927000Y-107277000D01*
X115927000Y-107277000D02*
X115927000Y-104483000D01*
X142470000Y-84163000D02*
X143740000Y-85433000D01*
X117324000Y-87465000D02*
X117324000Y-86703000D01*
X117324000Y-86703000D02*
X111482000Y-80861000D01*
X107672000Y-112611000D02*
X107971999Y-112311001D01*
X107971999Y-112311001D02*
X108388001Y-112311001D01*
X108388001Y-112311001D02*
X108561000Y-112484000D01*
X108561000Y-112484000D02*
X108561000Y-118199000D01*
X108561000Y-118199000D02*
X108561000Y-119469000D01*
X107418000Y-118199000D02*
X107418000Y-118326000D01*
X107418000Y-118326000D02*
X108561000Y-119469000D01*
X115419000Y-116591264D02*
X111438736Y-116591264D01*
X111438736Y-116591264D02*
X110847000Y-117183000D01*
X117324000Y-114262000D02*
X117324000Y-114686264D01*
X117324000Y-114686264D02*
X115419000Y-116591264D01*
X115673000Y-113881000D02*
X116943000Y-113881000D01*
X116943000Y-113881000D02*
X117324000Y-114262000D01*
X110974000Y-139662000D02*
X109323000Y-141313000D01*
X109323000Y-141313000D02*
X109323000Y-143792040D01*
X117959000Y-130645000D02*
X117959000Y-143599000D01*
X117959000Y-143599000D02*
X118721000Y-144361000D01*
X110847000Y-117183000D02*
X108561000Y-119469000D01*
X111482000Y-80861000D02*
X108688000Y-78067000D01*
X108688000Y-78067000D02*
X107418000Y-78067000D01*
X86463000Y-83782000D02*
X86463000Y-83385998D01*
X86463000Y-83385998D02*
X86209000Y-83131998D01*
X85828000Y-80988000D02*
X85828000Y-79251001D01*
X86209000Y-83131998D02*
X86209000Y-81369000D01*
X86209000Y-81369000D02*
X85828000Y-80988000D01*
X85828000Y-79251001D02*
X85805000Y-79228001D01*
X85805000Y-79228001D02*
X85805000Y-78298000D01*
X85805000Y-78298000D02*
X84685000Y-77178000D01*
X84685000Y-77178000D02*
X83754999Y-77178000D01*
X99036000Y-81369000D02*
X95734000Y-81369000D01*
X95734000Y-81369000D02*
X94718000Y-81369000D01*
X95861000Y-81115000D02*
X95861000Y-81242000D01*
X95861000Y-81242000D02*
X95734000Y-81369000D01*
X99925000Y-80480000D02*
X99036000Y-81369000D01*
X94718000Y-81369000D02*
X94718000Y-78448000D01*
X100179000Y-88608000D02*
X97258000Y-88608000D01*
X97258000Y-88608000D02*
X96242000Y-89624000D01*
X96242000Y-89624000D02*
X95226000Y-89624000D01*
X95226000Y-89624000D02*
X94718000Y-90132000D01*
X94718000Y-87211000D02*
X94718000Y-90132000D01*
X94718000Y-87211000D02*
X94718000Y-83655000D01*
X79478000Y-79845000D02*
X81764000Y-77559000D01*
X81764000Y-77559000D02*
X82780000Y-77559000D01*
X76049000Y-80226000D02*
X78716000Y-77559000D01*
X78716000Y-77559000D02*
X82780000Y-77559000D01*
X82780000Y-77559000D02*
X83079999Y-77259001D01*
X83079999Y-77259001D02*
X83673998Y-77259001D01*
X83673998Y-77259001D02*
X83754999Y-77178000D01*
X83923000Y-83528000D02*
X86209000Y-83528000D01*
X86209000Y-83528000D02*
X86463000Y-83782000D01*
X152884000Y-93307000D02*
X153392000Y-93307000D01*
X153392000Y-93307000D02*
X153773000Y-92926000D01*
X150344000Y-88862000D02*
X150344000Y-88735000D01*
X150344000Y-88735000D02*
X149709000Y-88100000D01*
X120118000Y-104483000D02*
X120118000Y-103848000D01*
X120118000Y-103848000D02*
X120372000Y-103594000D01*
X117578000Y-112230000D02*
X117578000Y-112992000D01*
X117578000Y-112992000D02*
X117451000Y-113119000D01*
D27*
X123717883Y-100169685D02*
X123717883Y-113275290D01*
X121388000Y-94831000D02*
X120522587Y-95696413D01*
X123717883Y-113275290D02*
X123717883Y-113699554D01*
X120522587Y-95696413D02*
X120522587Y-96974389D01*
X120522587Y-96974389D02*
X123717883Y-100169685D01*
D28*
X96115000Y-76289000D02*
X85447000Y-65621000D01*
X85447000Y-65621000D02*
X85447000Y-65494000D01*
X85447000Y-65494000D02*
X84431000Y-64478000D01*
X84431000Y-64478000D02*
X84431000Y-62192000D01*
X81703490Y-62258490D02*
X81649000Y-62204000D01*
X81649000Y-62204000D02*
X81649000Y-58890000D01*
X84431000Y-62192000D02*
X84431000Y-59729000D01*
X84431000Y-62192000D02*
X84364510Y-62258490D01*
X84364510Y-62258490D02*
X81703490Y-62258490D01*
X84431000Y-59729000D02*
X84570000Y-59590000D01*
X84570000Y-59590000D02*
X84570000Y-58890000D01*
D27*
X134088000Y-76956039D02*
X132559968Y-78484071D01*
X136914039Y-74130000D02*
X134088000Y-76956039D01*
D28*
X134088000Y-76956039D02*
X134088000Y-75273000D01*
D27*
X112706001Y-75100001D02*
X113006000Y-75400000D01*
X112325001Y-74719001D02*
X112706001Y-75100001D01*
X108607003Y-74719001D02*
X112325001Y-74719001D01*
X105640004Y-77686000D02*
X108607003Y-74719001D01*
X132559968Y-78484071D02*
X132259969Y-78784070D01*
X147804000Y-74130000D02*
X136914039Y-74130000D01*
D28*
X101494999Y-111676001D02*
X101855735Y-111676001D01*
X101195000Y-111976000D02*
X101494999Y-111676001D01*
X101855735Y-111676001D02*
X102828760Y-110702976D01*
X102828760Y-110702976D02*
X103128759Y-110402977D01*
X102674003Y-71889999D02*
X101231004Y-70447000D01*
X101231004Y-70447000D02*
X100222274Y-70447000D01*
X100222274Y-70447000D02*
X99798010Y-70447000D01*
X123674000Y-73113996D02*
X122450003Y-71889999D01*
X122450003Y-71889999D02*
X102674003Y-71889999D01*
D29*
X88138000Y-63543168D02*
X88204721Y-63609889D01*
X85664721Y-63609889D02*
X85664721Y-63625279D01*
X85664721Y-63625279D02*
X85574000Y-63716000D01*
X85574000Y-63716000D02*
X85598000Y-63740000D01*
D28*
X115165000Y-127470000D02*
X126592939Y-116042061D01*
X126592939Y-114899061D02*
X130232001Y-111259999D01*
X130359001Y-111259999D02*
X130659000Y-110960000D01*
X126592939Y-116042061D02*
X126592939Y-114899061D01*
X130232001Y-111259999D02*
X130359001Y-111259999D01*
X115165000Y-127470000D02*
X115165000Y-128740000D01*
X115800000Y-126708000D02*
X115500001Y-127007999D01*
X115500001Y-127007999D02*
X115500001Y-127134999D01*
X115500001Y-127134999D02*
X115165000Y-127470000D01*
X115165000Y-128740000D02*
X115165000Y-130010000D01*
X115165000Y-130010000D02*
X115165000Y-138475736D01*
X115927000Y-129248000D02*
X115165000Y-130010000D01*
X115165000Y-138475736D02*
X115165000Y-138900000D01*
X132564000Y-102240264D02*
X132564000Y-101816000D01*
X132564000Y-108128585D02*
X132564000Y-102240264D01*
X126142928Y-115349072D02*
X126142928Y-114549657D01*
X126142928Y-114549657D02*
X132564000Y-108128585D01*
X113895000Y-127597000D02*
X126142928Y-115349072D01*
X113895000Y-127060192D02*
X114239991Y-126715201D01*
X113895000Y-127597000D02*
X113895000Y-127060192D01*
X114239991Y-126715201D02*
X114539990Y-126415202D01*
X113895000Y-127597000D02*
X113895000Y-128105000D01*
X113895000Y-128105000D02*
X113895000Y-129375000D01*
X113895000Y-129375000D02*
X113895000Y-138475736D01*
X114403000Y-129121000D02*
X114103001Y-129420999D01*
X114103001Y-129420999D02*
X113940999Y-129420999D01*
X113940999Y-129420999D02*
X113895000Y-129375000D01*
X113895000Y-138475736D02*
X113895000Y-138900000D01*
X125692917Y-114318347D02*
X131167000Y-108844264D01*
X131167000Y-108844264D02*
X131167000Y-108420000D01*
X112542674Y-127468590D02*
X124336676Y-115674588D01*
X124577084Y-115674588D02*
X125692917Y-114558755D01*
X124336676Y-115674588D02*
X124577084Y-115674588D01*
X111990000Y-127468590D02*
X112542674Y-127468590D01*
X125692917Y-114558755D02*
X125692917Y-114318347D01*
X112244000Y-126581000D02*
X111944001Y-126880999D01*
X111944001Y-126880999D02*
X111944001Y-127422591D01*
X111944001Y-127422591D02*
X111990000Y-127468590D01*
X111990000Y-138900000D02*
X111990000Y-129883000D01*
X111990000Y-129883000D02*
X111990000Y-128740000D01*
X112625000Y-128867000D02*
X112325001Y-129166999D01*
X112325001Y-129166999D02*
X112325001Y-129547999D01*
X112325001Y-129547999D02*
X111990000Y-129883000D01*
X111990000Y-128740000D02*
X111990000Y-127468590D01*
X124108425Y-115224577D02*
X116816002Y-122517000D01*
X116816002Y-122517000D02*
X115292000Y-122517000D01*
X115292000Y-122517000D02*
X110892999Y-126916001D01*
X125242906Y-114372355D02*
X124390684Y-115224577D01*
X125242906Y-114090095D02*
X125242906Y-114372355D01*
X124390684Y-115224577D02*
X124108425Y-115224577D01*
X130464012Y-108868989D02*
X125242906Y-114090095D01*
X130464012Y-95144012D02*
X130464012Y-108868989D01*
X110892999Y-126916001D02*
X110593000Y-127216000D01*
X129897000Y-94577000D02*
X130464012Y-95144012D01*
X110593000Y-127216000D02*
X110593000Y-127640264D01*
X110593000Y-127640264D02*
X110717180Y-127764444D01*
X110717180Y-127764444D02*
X110717180Y-128742820D01*
X110717180Y-128742820D02*
X110085000Y-129375000D01*
X110085000Y-129375000D02*
X110085000Y-138475736D01*
X110085000Y-138475736D02*
X110085000Y-138900000D01*
X124204284Y-114774566D02*
X124792895Y-114185955D01*
X130014001Y-108682589D02*
X130014001Y-95941573D01*
X116629602Y-122066989D02*
X123922025Y-114774566D01*
X114817009Y-122066989D02*
X116629602Y-122066989D01*
X108815000Y-128068998D02*
X114817009Y-122066989D01*
X124792895Y-114185955D02*
X124792895Y-113903695D01*
X108815000Y-128359000D02*
X108815000Y-128068998D01*
X124792895Y-113903695D02*
X130014001Y-108682589D01*
X129571989Y-95499561D02*
X129271990Y-95199562D01*
X130014001Y-95941573D02*
X129571989Y-95499561D01*
X123922025Y-114774566D02*
X124204284Y-114774566D01*
X108561000Y-126708000D02*
X108561000Y-128105000D01*
X108561000Y-128105000D02*
X108815000Y-128359000D01*
X108180000Y-128486000D02*
X108479999Y-128785999D01*
X108479999Y-128785999D02*
X108479999Y-129035769D01*
X108479999Y-129035769D02*
X108815000Y-129370770D01*
X108815000Y-129370770D02*
X108815000Y-128359000D01*
X108815000Y-138475736D02*
X108815000Y-138900000D01*
X108815000Y-129370770D02*
X108815000Y-138475736D01*
X116860153Y-127343000D02*
X127042950Y-117160203D01*
X127042950Y-115085460D02*
X129410461Y-112717949D01*
X129410461Y-112717949D02*
X129657949Y-112717949D01*
X127042950Y-117160203D02*
X127042950Y-115085460D01*
X129657949Y-112717949D02*
X129957948Y-112417950D01*
X116860153Y-127343000D02*
X116860153Y-128740000D01*
X117151001Y-127052152D02*
X116860153Y-127343000D01*
X117451000Y-126708000D02*
X117151001Y-127007999D01*
X117151001Y-127007999D02*
X117151001Y-127052152D01*
X116860153Y-128740000D02*
X116860153Y-130137000D01*
X116860153Y-130137000D02*
X116860153Y-138725155D01*
X117705000Y-129248000D02*
X117405001Y-129547999D01*
X117405001Y-129547999D02*
X117405001Y-129592152D01*
X117405001Y-129592152D02*
X116860153Y-130137000D01*
X116860153Y-138725155D02*
X116560154Y-139025154D01*
X123735625Y-114324555D02*
X124017884Y-114324555D01*
X107810022Y-121616978D02*
X116443202Y-121616978D01*
X124342884Y-113999555D02*
X124342884Y-108767116D01*
X116443202Y-121616978D02*
X123735625Y-114324555D01*
X124342884Y-108767116D02*
X129089001Y-104020999D01*
X106910000Y-122517000D02*
X107810022Y-121616978D01*
X124017884Y-114324555D02*
X124342884Y-113999555D01*
X129089001Y-104020999D02*
X129389000Y-103721000D01*
X153891109Y-87466850D02*
X139162076Y-87466850D01*
X153900000Y-87457959D02*
X153891109Y-87466850D01*
X139162076Y-87466850D02*
X139018223Y-87322997D01*
X139018223Y-87322997D02*
X138718224Y-87022998D01*
X159688041Y-87457959D02*
X153900000Y-87457959D01*
X154281000Y-87929736D02*
X153900000Y-87548736D01*
X154281000Y-88354000D02*
X154281000Y-87929736D01*
X153900000Y-87548736D02*
X153900000Y-87457959D01*
X161036000Y-87376000D02*
X159770000Y-87376000D01*
X159770000Y-87376000D02*
X159688041Y-87457959D01*
X161036000Y-87376000D02*
X160883600Y-87376000D01*
X160883600Y-84836000D02*
X158772598Y-86947002D01*
X140204385Y-86947002D02*
X140099232Y-86841849D01*
X161036000Y-84836000D02*
X160883600Y-84836000D01*
X158772598Y-86947002D02*
X140204385Y-86947002D01*
X140099232Y-86841849D02*
X139674968Y-86841849D01*
X143089870Y-82296000D02*
X139393710Y-85992160D01*
X144121000Y-82296000D02*
X143089870Y-82296000D01*
X139393710Y-85992160D02*
X139093711Y-86292159D01*
X161036000Y-82296000D02*
X144121000Y-82296000D01*
X143867000Y-81877000D02*
X144166999Y-82176999D01*
X144166999Y-82176999D02*
X144166999Y-82250001D01*
X144166999Y-82250001D02*
X144121000Y-82296000D01*
X141838355Y-79756000D02*
X141200000Y-80394355D01*
X141200000Y-80394355D02*
X139666010Y-81928345D01*
X141835000Y-80607000D02*
X141535001Y-80307001D01*
X141535001Y-80307001D02*
X141287354Y-80307001D01*
X141287354Y-80307001D02*
X141200000Y-80394355D01*
X139666010Y-81928345D02*
X139366011Y-82228344D01*
X161036000Y-79756000D02*
X141838355Y-79756000D01*
X140311000Y-75527000D02*
X139295000Y-76543000D01*
X139295000Y-76543000D02*
X138152000Y-77686000D01*
X140057000Y-76416000D02*
X139632736Y-76416000D01*
X139632736Y-76416000D02*
X139505736Y-76543000D01*
X139505736Y-76543000D02*
X139295000Y-76543000D01*
X161036000Y-72136000D02*
X160883600Y-72136000D01*
X160883600Y-72136000D02*
X157492600Y-75527000D01*
X157492600Y-75527000D02*
X140311000Y-75527000D01*
X86070000Y-58890000D02*
X95403962Y-58890000D01*
X95403962Y-58890000D02*
X97131000Y-60617038D01*
X97131000Y-60617038D02*
X97131000Y-64097000D01*
X104441989Y-71407989D02*
X123110989Y-71407989D01*
X97131000Y-64097000D02*
X104441989Y-71407989D01*
X123110989Y-71407989D02*
X125198000Y-73495000D01*
X125198000Y-73495000D02*
X125198000Y-79501415D01*
X125198000Y-79501415D02*
X132857986Y-87161401D01*
X132857986Y-87161401D02*
X132857986Y-87349873D01*
X86070000Y-58890000D02*
X86070000Y-60664610D01*
X86070000Y-60664610D02*
X85664721Y-61069889D01*
X83149000Y-58890000D02*
X83149000Y-58140000D01*
X83149000Y-58140000D02*
X83415000Y-57874000D01*
X99553322Y-60499360D02*
X99553322Y-65630322D01*
X125706000Y-73114000D02*
X125706000Y-79240900D01*
X83415000Y-57874000D02*
X96927962Y-57874000D01*
X96927962Y-57874000D02*
X99553322Y-60499360D01*
X99553322Y-65630322D02*
X104880980Y-70957980D01*
X104880980Y-70957980D02*
X123549980Y-70957980D01*
X133338232Y-86873132D02*
X133638231Y-87173131D01*
X123549980Y-70957980D02*
X125706000Y-73114000D01*
X125706000Y-79240900D02*
X133338232Y-86873132D01*
X83149000Y-58890000D02*
X83149000Y-61045610D01*
X83149000Y-61045610D02*
X83124721Y-61069889D01*
X133443001Y-98758001D02*
X133443001Y-113509999D01*
X132411599Y-114541401D02*
X131548000Y-115405000D01*
X131675000Y-96990000D02*
X133443001Y-98758001D01*
X133443001Y-113509999D02*
X132411599Y-114541401D01*
X127438000Y-69730999D02*
X127737999Y-69431000D01*
X126722000Y-70446999D02*
X127438000Y-69730999D01*
X126722000Y-76035000D02*
X126722000Y-70446999D01*
X126722000Y-77051000D02*
X126722000Y-76670000D01*
X126722000Y-79465412D02*
X126722000Y-77051000D01*
X126722000Y-76797000D02*
X126722000Y-76035000D01*
X126722000Y-77051000D02*
X126722000Y-76035000D01*
X134469000Y-87592000D02*
X134263232Y-87386232D01*
X134263232Y-87386232D02*
X134263232Y-86873130D01*
X134263232Y-86873130D02*
X133938232Y-86548130D01*
X133938232Y-86548130D02*
X133788242Y-86548130D01*
X133788242Y-86548130D02*
X133788241Y-86531653D01*
X133788241Y-86531653D02*
X126722000Y-79465412D01*
X135544012Y-89266176D02*
X135544012Y-82237083D01*
X135544012Y-82237083D02*
X135466043Y-82159114D01*
X135838583Y-89560747D02*
X135544012Y-89266176D01*
X135466043Y-82159114D02*
X135466043Y-81734850D01*
X135838583Y-89985011D02*
X135838583Y-89560747D01*
X135094001Y-90241230D02*
X135094001Y-85767999D01*
X134841034Y-79442957D02*
X135791054Y-78492937D01*
X134841034Y-85515032D02*
X134841034Y-79442957D01*
X135094001Y-85767999D02*
X134841034Y-85515032D01*
X135602010Y-90749239D02*
X135094001Y-90241230D01*
X135791054Y-78492937D02*
X136091053Y-78192938D01*
X136635645Y-82001456D02*
X136935644Y-81701457D01*
X136441979Y-82195122D02*
X136635645Y-82001456D01*
X136441979Y-89008748D02*
X136441979Y-82195122D01*
X137568688Y-80309718D02*
X138477011Y-79401395D01*
X137066989Y-86516600D02*
X137568688Y-86014901D01*
X136928300Y-90241708D02*
X136928300Y-89817444D01*
X137568688Y-86014901D02*
X137568688Y-80309718D01*
X137066989Y-89678755D02*
X137066989Y-86516600D01*
X138477011Y-79401395D02*
X138777010Y-79101396D01*
X136928300Y-89817444D02*
X137066989Y-89678755D01*
X140827584Y-98637810D02*
X140827584Y-96506351D01*
X140827584Y-96506351D02*
X140809010Y-96487777D01*
X137887261Y-97840527D02*
X138268766Y-98222032D01*
X138268766Y-98222032D02*
X138568765Y-98522031D01*
X137887261Y-93032172D02*
X137887261Y-97840527D01*
X137517000Y-90723736D02*
X137517000Y-91148000D01*
X138018699Y-86201301D02*
X137553301Y-86666699D01*
X139041000Y-80734000D02*
X138018699Y-81756301D01*
X137553301Y-90687435D02*
X137517000Y-90723736D01*
X138018699Y-81756301D02*
X138018699Y-86201301D01*
X137553301Y-86666699D02*
X137553301Y-90687435D01*
X111622396Y-103810442D02*
X111622396Y-102692119D01*
X111322397Y-104110441D02*
X111622396Y-103810442D01*
X123844995Y-97416010D02*
X122666983Y-96237998D01*
X129125010Y-97416010D02*
X123844995Y-97416010D01*
X122666983Y-96237998D02*
X121648978Y-96237998D01*
X121572587Y-96314389D02*
X121272588Y-96614388D01*
X121648978Y-96237998D02*
X121572587Y-96314389D01*
X117222527Y-97091988D02*
X117522526Y-96791989D01*
X111622396Y-102692119D02*
X117222527Y-97091988D01*
X132353264Y-93053000D02*
X131929000Y-93053000D01*
X137252221Y-97951957D02*
X132353264Y-93053000D01*
X137252221Y-109424352D02*
X137252221Y-97951957D01*
X132210047Y-96511843D02*
X132210047Y-94837294D01*
X136102635Y-108072721D02*
X133893012Y-105863098D01*
X136526899Y-108072721D02*
X136102635Y-108072721D01*
X133893012Y-105863098D02*
X133893012Y-98194808D01*
X132287151Y-94760190D02*
X132587150Y-94460191D01*
X132210047Y-94837294D02*
X132287151Y-94760190D01*
X133893012Y-98194808D02*
X132210047Y-96511843D01*
X133556237Y-95776282D02*
X136706948Y-98926993D01*
X136706948Y-98926993D02*
X136706948Y-106981754D01*
X132859426Y-95776282D02*
X133556237Y-95776282D01*
X136706948Y-106981754D02*
X136406949Y-107281753D01*
X134922881Y-98299673D02*
X133504279Y-96881071D01*
X134922881Y-105362010D02*
X134922881Y-98299673D01*
X133504279Y-96881071D02*
X133204280Y-96581072D01*
X142978000Y-101943000D02*
X142978000Y-97461998D01*
X138799024Y-92082692D02*
X137517000Y-92082692D01*
X142978000Y-97461998D02*
X140254554Y-94738552D01*
X140254554Y-94738552D02*
X140254554Y-93538222D01*
X140254554Y-93538222D02*
X138799024Y-92082692D01*
X124617920Y-96074964D02*
X124193656Y-96074964D01*
X126934950Y-96074964D02*
X124617920Y-96074964D01*
X135091441Y-92082692D02*
X130927222Y-92082692D01*
X130927222Y-92082692D02*
X126934950Y-96074964D01*
D27*
X126851551Y-84795449D02*
X132183000Y-90126898D01*
X132183000Y-90126898D02*
X132183000Y-90132000D01*
X132183000Y-90132000D02*
X134133692Y-92082692D01*
X134133692Y-92082692D02*
X135091441Y-92082692D01*
D28*
X141048985Y-91919998D02*
X144248000Y-95119013D01*
X135088491Y-91919998D02*
X141048985Y-91919998D01*
X135070303Y-91938186D02*
X135088491Y-91919998D01*
X138468710Y-86387700D02*
X138468710Y-83964383D01*
X139066012Y-83367081D02*
X139366011Y-83067082D01*
X138036022Y-86820388D02*
X138468710Y-86387700D01*
X138036022Y-90742018D02*
X138036022Y-86820388D01*
X135070303Y-91938186D02*
X137651818Y-91938186D01*
X137651818Y-91938186D02*
X138142002Y-91448002D01*
X138142002Y-91448002D02*
X138142002Y-90847998D01*
X138468710Y-83964383D02*
X139066012Y-83367081D01*
X138142002Y-90847998D02*
X138036022Y-90742018D01*
X143740000Y-112230000D02*
X142851000Y-111341000D01*
X142851000Y-111341000D02*
X142851000Y-105372000D01*
X137517000Y-92082692D02*
X139754447Y-89845245D01*
X139754447Y-89845245D02*
X139754447Y-89540451D01*
X139754447Y-89540451D02*
X140054446Y-89240452D01*
X144248000Y-95119013D02*
X144248000Y-94958000D01*
X144883000Y-93942000D02*
X144248000Y-94577000D01*
X144248000Y-94577000D02*
X144248000Y-94958000D01*
X145645000Y-88481000D02*
X143994000Y-90132000D01*
X143994000Y-90132000D02*
X140819000Y-90132000D01*
X140819000Y-90132000D02*
X139012814Y-91938186D01*
X139012814Y-91938186D02*
X135070303Y-91938186D01*
X135091441Y-92082692D02*
X137517000Y-92082692D01*
X144248000Y-95119013D02*
X144648267Y-95119013D01*
X144648267Y-95119013D02*
X144675267Y-95146013D01*
X144675267Y-95146013D02*
X144975266Y-95446012D01*
X135070303Y-91938186D02*
X135070303Y-92061554D01*
X135070303Y-92061554D02*
X135091441Y-92082692D01*
X125436999Y-89856997D02*
X125436999Y-88687254D01*
X119947577Y-100117427D02*
X119947577Y-95346419D01*
X119947577Y-95346419D02*
X125436999Y-89856997D01*
X125436999Y-88687254D02*
X125436999Y-88262990D01*
X119610000Y-100455004D02*
X119947577Y-100117427D01*
X111356597Y-107783407D02*
X110893003Y-108247001D01*
X110893003Y-108247001D02*
X110593004Y-108547000D01*
X112614314Y-106814949D02*
X112614314Y-107351031D01*
X112181938Y-107783407D02*
X111356597Y-107783407D01*
X112614314Y-107351031D02*
X112181938Y-107783407D01*
X118153246Y-101276017D02*
X112614314Y-106814949D01*
X118788987Y-101276017D02*
X118153246Y-101276017D01*
X119610000Y-100455004D02*
X118788987Y-101276017D01*
X120499000Y-100800000D02*
X120199001Y-100500001D01*
X120199001Y-100500001D02*
X119654997Y-100500001D01*
X119654997Y-100500001D02*
X119610000Y-100455004D01*
X119047008Y-100292000D02*
X119497566Y-99841442D01*
X119497566Y-94821536D02*
X124165232Y-90153870D01*
X124165232Y-90153870D02*
X124465231Y-89853871D01*
X119497566Y-99841442D02*
X119497566Y-94821536D01*
X117966847Y-100826006D02*
X111881936Y-106910917D01*
X119047008Y-100292000D02*
X118513002Y-100826006D01*
X111881936Y-106910917D02*
X111881936Y-107158405D01*
X118513002Y-100826006D02*
X117966847Y-100826006D01*
X119047008Y-100292000D02*
X119047008Y-100236954D01*
X119047008Y-100236954D02*
X118975052Y-100164998D01*
X129145204Y-98279034D02*
X123449024Y-98279034D01*
X123449024Y-98279034D02*
X122332989Y-97162999D01*
X122332989Y-97162999D02*
X122032990Y-96863000D01*
X110847000Y-103042736D02*
X110847000Y-102633680D01*
X110847000Y-102633680D02*
X116897525Y-96583155D01*
X116897525Y-96154491D02*
X117098264Y-95953752D01*
X116897525Y-96583155D02*
X116897525Y-96154491D01*
X117098264Y-95953752D02*
X117522528Y-95953752D01*
X110890260Y-103042736D02*
X110974000Y-102958996D01*
X110847000Y-103042736D02*
X110890260Y-103042736D01*
X110847000Y-102959000D02*
X110847000Y-103042736D01*
X118147534Y-91721464D02*
X122738999Y-87129999D01*
X113768000Y-102070000D02*
X118147534Y-97690466D01*
X122738999Y-87129999D02*
X123038998Y-86830000D01*
X118147534Y-97690466D02*
X118147534Y-91721464D01*
X110120009Y-106237833D02*
X110120009Y-106475021D01*
X113768000Y-102070000D02*
X113768000Y-102589842D01*
X113768000Y-102589842D02*
X110120009Y-106237833D01*
X114149000Y-102070000D02*
X113768000Y-102070000D01*
X118597544Y-98546458D02*
X118597544Y-92160464D01*
X122231009Y-88526999D02*
X122531008Y-88227000D01*
X114657000Y-102487002D02*
X118597544Y-98546458D01*
X118597544Y-92160464D02*
X122231009Y-88526999D01*
X110346102Y-107173930D02*
X110114236Y-107173930D01*
X114657000Y-102487002D02*
X114657000Y-102863032D01*
X114657000Y-102863032D02*
X110346102Y-107173930D01*
X110114236Y-107173930D02*
X109689972Y-107173930D01*
X114657000Y-102487002D02*
X114750279Y-102487002D01*
X114750279Y-102487002D02*
X114933480Y-102303801D01*
X119047555Y-98905031D02*
X119047555Y-92599441D01*
X124008997Y-87637999D02*
X124308996Y-87338000D01*
X119047555Y-92599441D02*
X124008997Y-87637999D01*
X118175854Y-99776732D02*
X119047555Y-98905031D01*
X118175854Y-100200996D02*
X118175854Y-99776732D01*
X109196000Y-107911994D02*
X110176004Y-107911994D01*
X110361444Y-107794999D02*
X117955447Y-100200996D01*
X110292999Y-107794999D02*
X110361444Y-107794999D01*
X110176004Y-107911994D02*
X110292999Y-107794999D01*
X117955447Y-100200996D02*
X118175854Y-100200996D01*
X105640000Y-96311736D02*
X105640000Y-96736000D01*
X105640000Y-84798000D02*
X105640000Y-96311736D01*
X87016120Y-62258490D02*
X87016120Y-66174120D01*
X87016120Y-66174120D02*
X105640000Y-84798000D01*
X88204721Y-61069889D02*
X87016120Y-62258490D01*
X92096120Y-67571120D02*
X106991001Y-82466001D01*
X92096120Y-62421288D02*
X92096120Y-67571120D01*
X90744721Y-61069889D02*
X92096120Y-62421288D01*
X106991001Y-82466001D02*
X107291000Y-82766000D01*
X113896411Y-65494000D02*
X101111264Y-65494000D01*
X128617002Y-69003998D02*
X128218043Y-68605039D01*
X101111264Y-65494000D02*
X100687000Y-65494000D01*
X117007450Y-68605039D02*
X113896411Y-65494000D01*
X134169001Y-85895001D02*
X133789412Y-85895001D01*
X134469000Y-86195000D02*
X134169001Y-85895001D01*
X128218043Y-68605039D02*
X117007450Y-68605039D01*
X128617002Y-69604002D02*
X128617002Y-69003998D01*
X127982002Y-70239002D02*
X128617002Y-69604002D01*
X127982002Y-80087591D02*
X127982002Y-70239002D01*
X133789412Y-85895001D02*
X127982002Y-80087591D01*
X108551002Y-108167943D02*
X108582290Y-108199231D01*
X108551002Y-103189352D02*
X108551002Y-108167943D01*
X108083944Y-89116000D02*
X108864020Y-89896076D01*
X108582290Y-108199231D02*
X108582290Y-108623495D01*
X108864020Y-89896076D02*
X108864020Y-102876334D01*
X108864020Y-102876334D02*
X108551002Y-103189352D01*
X97034841Y-71620841D02*
X108083944Y-82669944D01*
X108083944Y-82669944D02*
X108083944Y-89116000D01*
X96944600Y-71620841D02*
X97034841Y-71620841D01*
X94473322Y-69149563D02*
X96944600Y-71620841D01*
X94473322Y-62258490D02*
X94473322Y-69149563D01*
X93284721Y-61069889D02*
X94473322Y-62258490D01*
X108434000Y-89243000D02*
X108307000Y-89116000D01*
X108307000Y-89116000D02*
X108083944Y-89116000D01*
X108229208Y-109394212D02*
X109278364Y-109394212D01*
X107477012Y-106419986D02*
X107300998Y-106596000D01*
X107477012Y-103299078D02*
X107477012Y-106419986D01*
X109519518Y-109153058D02*
X109943782Y-109153058D01*
X107300998Y-108466002D02*
X108229208Y-109394212D01*
X107595211Y-103180879D02*
X107477012Y-103299078D01*
X94636120Y-59881288D02*
X90174192Y-59881288D01*
X90174192Y-59881288D02*
X89393322Y-60662158D01*
X95824721Y-61069889D02*
X94636120Y-59881288D01*
X107300998Y-106596000D02*
X107300998Y-108466002D01*
X89393322Y-60662158D02*
X89393322Y-67535322D01*
X89393322Y-67535322D02*
X107595211Y-85737211D01*
X109278364Y-109394212D02*
X109519518Y-109153058D01*
X107595211Y-85737211D02*
X107595211Y-103180879D01*
X107027001Y-104402001D02*
X107027001Y-103112678D01*
X107027001Y-103112678D02*
X107090550Y-103049129D01*
X106793000Y-104636002D02*
X107027001Y-104402001D01*
X106793000Y-109068827D02*
X106793000Y-104636002D01*
X107300990Y-109576817D02*
X106793000Y-109068827D01*
X107090550Y-103049129D02*
X107090550Y-100970550D01*
X107090550Y-100970550D02*
X106790551Y-100670551D01*
X114784000Y-105753000D02*
X114784000Y-106177264D01*
X114784000Y-106177264D02*
X112727846Y-108233418D01*
X110345891Y-109876816D02*
X107600989Y-109876816D01*
X112727846Y-108233418D02*
X111795582Y-108233418D01*
X111795582Y-108233418D02*
X110923705Y-109105295D01*
X107600989Y-109876816D02*
X107300990Y-109576817D01*
X110923705Y-109105295D02*
X110923705Y-109299002D01*
X110923705Y-109299002D02*
X110345891Y-109876816D01*
X107000991Y-114727152D02*
X107000991Y-109876816D01*
X107000991Y-109876816D02*
X107300990Y-109576817D01*
X107548859Y-115275020D02*
X107000991Y-114727152D01*
X107300990Y-110478139D02*
X107300990Y-110001081D01*
X107300990Y-110001081D02*
X107300990Y-109576817D01*
X110593000Y-113770149D02*
X107300990Y-110478139D01*
X110593000Y-116167000D02*
X110593000Y-113770149D01*
X101068000Y-109037582D02*
X102034842Y-110004424D01*
X102034842Y-110004424D02*
X102334841Y-110304423D01*
X101068000Y-107193262D02*
X101068000Y-109037582D01*
X101068000Y-107150002D02*
X101068002Y-107150000D01*
X101068000Y-107193262D02*
X101068000Y-107150002D01*
X101070737Y-107195999D02*
X101068000Y-107193262D01*
X101240999Y-107195999D02*
X101070737Y-107195999D01*
X108045222Y-102770130D02*
X108239019Y-102576333D01*
X107926000Y-106896000D02*
X107926000Y-106471736D01*
X107926000Y-106471736D02*
X108045222Y-106352514D01*
X108045222Y-106352514D02*
X108045222Y-102770130D01*
X109323000Y-111214000D02*
X109942292Y-111214000D01*
X109942292Y-111214000D02*
X110939104Y-110217188D01*
X110939104Y-110217188D02*
X111239103Y-109917189D01*
X107926000Y-106896000D02*
X107926000Y-108166000D01*
X113641000Y-113627000D02*
X111228000Y-111214000D01*
X111228000Y-111214000D02*
X109323000Y-111214000D01*
X133788001Y-68841999D02*
X134088000Y-68542000D01*
X131629001Y-71000999D02*
X133788001Y-68841999D01*
X131629001Y-79432777D02*
X131629001Y-71000999D01*
X134216032Y-82019808D02*
X131629001Y-79432777D01*
X131040000Y-87592000D02*
X121201634Y-77753634D01*
X121201634Y-77753634D02*
X120428970Y-77753634D01*
X120428970Y-77753634D02*
X120128971Y-77453635D01*
X130613001Y-69857999D02*
X132137001Y-68333999D01*
X130613001Y-80174899D02*
X130613001Y-69857999D01*
X131187280Y-80749178D02*
X130613001Y-80174899D01*
X132137001Y-68333999D02*
X132437000Y-68034000D01*
X131782973Y-88334035D02*
X131782973Y-87409969D01*
X121307005Y-77223999D02*
X121007006Y-76924000D01*
X131782973Y-87409969D02*
X121597003Y-77223999D01*
X121597003Y-77223999D02*
X121307005Y-77223999D01*
X132791794Y-89342856D02*
X131782973Y-88334035D01*
X131121001Y-79760839D02*
X131121001Y-70238999D01*
X132561582Y-81625684D02*
X132561582Y-81201420D01*
X131121001Y-70238999D02*
X133534001Y-67825999D01*
X132561582Y-81201420D02*
X131121001Y-79760839D01*
X133534001Y-67825999D02*
X133834000Y-67526000D01*
X132515894Y-88073054D02*
X132232984Y-87790144D01*
X132232984Y-87790144D02*
X132232984Y-87172810D01*
X132232984Y-87172810D02*
X121339184Y-76279010D01*
X121339184Y-76279010D02*
X119780264Y-76279010D01*
X119780264Y-76279010D02*
X119356000Y-76279010D01*
X117437831Y-68155028D02*
X128404443Y-68155028D01*
X128404443Y-68155028D02*
X129067013Y-68817598D01*
X129067013Y-68817598D02*
X129067013Y-79379474D01*
X129067013Y-79379474D02*
X128952512Y-79493975D01*
X128952512Y-79493975D02*
X128652513Y-79793974D01*
X110352692Y-61069889D02*
X117437831Y-68155028D01*
X105984721Y-61069889D02*
X110352692Y-61069889D01*
X121445263Y-85870461D02*
X111597092Y-76022290D01*
X128762268Y-88235268D02*
X126397461Y-85870461D01*
X128762268Y-92220173D02*
X128762268Y-88235268D01*
X126397461Y-85870461D02*
X121445263Y-85870461D01*
X111597092Y-76022290D02*
X111597092Y-75947686D01*
X111597092Y-75947686D02*
X111597092Y-75523422D01*
X129016975Y-92978555D02*
X129389784Y-92605746D01*
X129389784Y-88146870D02*
X126663364Y-85420450D01*
X126663364Y-85420450D02*
X121920254Y-85420450D01*
X112634192Y-76134388D02*
X112334193Y-75834389D01*
X129389784Y-92605746D02*
X129389784Y-88146870D01*
X121920254Y-85420450D02*
X112634192Y-76134388D01*
X161188400Y-69596000D02*
X161036000Y-69596000D01*
X114911000Y-115405000D02*
X113930002Y-115405000D01*
X113930002Y-115405000D02*
X111563001Y-113037999D01*
X111563001Y-113037999D02*
X110765999Y-113037999D01*
X110765999Y-113037999D02*
X110466000Y-112738000D01*
X75795000Y-117437000D02*
X76049000Y-117437000D01*
X76049000Y-117437000D02*
X77192000Y-118580000D01*
X75922000Y-104737000D02*
X76303000Y-104737000D01*
X76303000Y-104737000D02*
X77319000Y-103721000D01*
X103100008Y-112357008D02*
X103100008Y-112230000D01*
X150852000Y-116548000D02*
X143613000Y-109309000D01*
X143613000Y-109309000D02*
X143613000Y-105245000D01*
X143613000Y-105245000D02*
X143613000Y-104356000D01*
X141553466Y-95153565D02*
X143613000Y-97213099D01*
X143613000Y-97213099D02*
X143613000Y-99867736D01*
X143613000Y-99867736D02*
X143613000Y-100292000D01*
X139629552Y-94262488D02*
X139629552Y-93838224D01*
X132865012Y-119296399D02*
X139664010Y-112497401D01*
X130196601Y-119296399D02*
X132865012Y-119296399D01*
X129008000Y-120485000D02*
X130196601Y-119296399D01*
X139664010Y-94296946D02*
X139629552Y-94262488D01*
X139664010Y-112497401D02*
X139664010Y-94296946D01*
X139213999Y-112311001D02*
X134931399Y-116593601D01*
X138914000Y-94196000D02*
X139213999Y-94495999D01*
X139213999Y-94495999D02*
X139213999Y-112311001D01*
X129008000Y-117945000D02*
X130359399Y-116593601D01*
X130359399Y-116593601D02*
X134931399Y-116593601D01*
D27*
X100986999Y-73159999D02*
X100687000Y-72860000D01*
X121769000Y-74130000D02*
X121469001Y-73830001D01*
X101657001Y-73830001D02*
X100986999Y-73159999D01*
X121469001Y-73830001D02*
X101657001Y-73830001D01*
D28*
X103444721Y-61069889D02*
X104633322Y-59881288D01*
X122741736Y-67147967D02*
X123166000Y-67147967D01*
X117099048Y-67147967D02*
X122741736Y-67147967D01*
X109832369Y-59881288D02*
X117099048Y-67147967D01*
X104633322Y-59881288D02*
X109832369Y-59881288D01*
X137136000Y-66764000D02*
X135612000Y-66764000D01*
X135612000Y-66764000D02*
X132945000Y-64097000D01*
X132945000Y-64097000D02*
X117197000Y-64097000D01*
X117197000Y-64097000D02*
X116416724Y-63316724D01*
X116416724Y-63316724D02*
X116416724Y-63080011D01*
X136247000Y-66764000D02*
X136374000Y-66764000D01*
X136374000Y-66764000D02*
X137136000Y-66764000D01*
X142851000Y-63462000D02*
X139422000Y-66891000D01*
X139422000Y-66891000D02*
X138152000Y-66891000D01*
X138152000Y-66891000D02*
X140565000Y-66891000D01*
X140565000Y-66891000D02*
X143567001Y-63888999D01*
X143567001Y-63888999D02*
X151949001Y-63888999D01*
X151949001Y-63888999D02*
X152249000Y-63589000D01*
X124690000Y-63462000D02*
X132945000Y-63462000D01*
X132945000Y-63462000D02*
X135104000Y-65621000D01*
X135104000Y-65621000D02*
X136247000Y-66764000D01*
X136247000Y-66764000D02*
X136247000Y-72098000D01*
X133580000Y-74765000D02*
X133199000Y-74765000D01*
X136247000Y-72098000D02*
X133580000Y-74765000D01*
X137136000Y-66764000D02*
X137263000Y-66891000D01*
X138152000Y-66891000D02*
X137263000Y-66891000D01*
X137263000Y-66891000D02*
X134133999Y-63761999D01*
X134133999Y-63761999D02*
X133834000Y-63462000D01*
D30*
G36*
X122832883Y-100536264D02*
X122832883Y-113392732D01*
X122783045Y-113512755D01*
X122782721Y-113884721D01*
X122875679Y-114109698D01*
X116128400Y-120856978D01*
X107810022Y-120856978D01*
X107519182Y-120914830D01*
X107272621Y-121079577D01*
X106770320Y-121581878D01*
X106724833Y-121581838D01*
X106381057Y-121723883D01*
X106117808Y-121986673D01*
X105975162Y-122330201D01*
X105974838Y-122702167D01*
X106116883Y-123045943D01*
X106379673Y-123309192D01*
X106723201Y-123451838D01*
X107095167Y-123452162D01*
X107438943Y-123310117D01*
X107702192Y-123047327D01*
X107844838Y-122703799D01*
X107844879Y-122656923D01*
X108124824Y-122376978D01*
X113432218Y-122376978D01*
X109434821Y-126374375D01*
X109354117Y-126179057D01*
X109091327Y-125915808D01*
X108747799Y-125773162D01*
X108375833Y-125772838D01*
X108032057Y-125914883D01*
X107768808Y-126177673D01*
X107626162Y-126521201D01*
X107625838Y-126893167D01*
X107767883Y-127236943D01*
X107801000Y-127270118D01*
X107801000Y-127630928D01*
X107651057Y-127692883D01*
X107387808Y-127955673D01*
X107245162Y-128299201D01*
X107244889Y-128613000D01*
X105767000Y-128613000D01*
X105767000Y-113197490D01*
X106240991Y-112960495D01*
X106240991Y-114727152D01*
X106298843Y-115017991D01*
X106463590Y-115264553D01*
X106613737Y-115414700D01*
X106613697Y-115460187D01*
X106755742Y-115803963D01*
X107018532Y-116067212D01*
X107362060Y-116209858D01*
X107734026Y-116210182D01*
X108077802Y-116068137D01*
X108341051Y-115805347D01*
X108483697Y-115461819D01*
X108484021Y-115089853D01*
X108341976Y-114746077D01*
X108079186Y-114482828D01*
X107760991Y-114350701D01*
X107760991Y-112012942D01*
X109833000Y-114084951D01*
X109833000Y-115604537D01*
X109800808Y-115636673D01*
X109658162Y-115980201D01*
X109657838Y-116352167D01*
X109799883Y-116695943D01*
X110062673Y-116959192D01*
X110406201Y-117101838D01*
X110778167Y-117102162D01*
X111121943Y-116960117D01*
X111385192Y-116697327D01*
X111527838Y-116353799D01*
X111528162Y-115981833D01*
X111386117Y-115638057D01*
X111353000Y-115604882D01*
X111353000Y-113902800D01*
X113392601Y-115942401D01*
X113639163Y-116107148D01*
X113930002Y-116165000D01*
X114348537Y-116165000D01*
X114380673Y-116197192D01*
X114724201Y-116339838D01*
X115096167Y-116340162D01*
X115439943Y-116198117D01*
X115703192Y-115935327D01*
X115845838Y-115591799D01*
X115846162Y-115219833D01*
X115704117Y-114876057D01*
X115441327Y-114612808D01*
X115097799Y-114470162D01*
X114725833Y-114469838D01*
X114382057Y-114611883D01*
X114348882Y-114645000D01*
X114244804Y-114645000D01*
X114063785Y-114463981D01*
X114169943Y-114420117D01*
X114433192Y-114157327D01*
X114575838Y-113813799D01*
X114576162Y-113441833D01*
X114434117Y-113098057D01*
X114171327Y-112834808D01*
X113827799Y-112692162D01*
X113780923Y-112692121D01*
X112429802Y-111341000D01*
X114530000Y-111341000D01*
X114530000Y-111985974D01*
X114539492Y-112034149D01*
X114567493Y-112076071D01*
X116091493Y-113590097D01*
X116131590Y-113616994D01*
X116181000Y-113627000D01*
X121301235Y-113627000D01*
X121353831Y-113615597D01*
X121394661Y-113586027D01*
X121862426Y-113078027D01*
X121885994Y-113041410D01*
X121896000Y-112992000D01*
X121896000Y-103213000D01*
X121887315Y-103166841D01*
X121860035Y-103124447D01*
X121818410Y-103096006D01*
X121769000Y-103086000D01*
X117418065Y-103086000D01*
X118468048Y-102036017D01*
X118788987Y-102036017D01*
X119079826Y-101978165D01*
X119326388Y-101813418D01*
X119758327Y-101381479D01*
X119968673Y-101592192D01*
X120312201Y-101734838D01*
X120684167Y-101735162D01*
X121027943Y-101593117D01*
X121291192Y-101330327D01*
X121433838Y-100986799D01*
X121434162Y-100614833D01*
X121292117Y-100271057D01*
X121029327Y-100007808D01*
X120707577Y-99874205D01*
X120707577Y-98410959D01*
X122832883Y-100536264D01*
X122832883Y-100536264D01*
G37*
X122832883Y-100536264D02*
X122832883Y-113392732D01*
X122783045Y-113512755D01*
X122782721Y-113884721D01*
X122875679Y-114109698D01*
X116128400Y-120856978D01*
X107810022Y-120856978D01*
X107519182Y-120914830D01*
X107272621Y-121079577D01*
X106770320Y-121581878D01*
X106724833Y-121581838D01*
X106381057Y-121723883D01*
X106117808Y-121986673D01*
X105975162Y-122330201D01*
X105974838Y-122702167D01*
X106116883Y-123045943D01*
X106379673Y-123309192D01*
X106723201Y-123451838D01*
X107095167Y-123452162D01*
X107438943Y-123310117D01*
X107702192Y-123047327D01*
X107844838Y-122703799D01*
X107844879Y-122656923D01*
X108124824Y-122376978D01*
X113432218Y-122376978D01*
X109434821Y-126374375D01*
X109354117Y-126179057D01*
X109091327Y-125915808D01*
X108747799Y-125773162D01*
X108375833Y-125772838D01*
X108032057Y-125914883D01*
X107768808Y-126177673D01*
X107626162Y-126521201D01*
X107625838Y-126893167D01*
X107767883Y-127236943D01*
X107801000Y-127270118D01*
X107801000Y-127630928D01*
X107651057Y-127692883D01*
X107387808Y-127955673D01*
X107245162Y-128299201D01*
X107244889Y-128613000D01*
X105767000Y-128613000D01*
X105767000Y-113197490D01*
X106240991Y-112960495D01*
X106240991Y-114727152D01*
X106298843Y-115017991D01*
X106463590Y-115264553D01*
X106613737Y-115414700D01*
X106613697Y-115460187D01*
X106755742Y-115803963D01*
X107018532Y-116067212D01*
X107362060Y-116209858D01*
X107734026Y-116210182D01*
X108077802Y-116068137D01*
X108341051Y-115805347D01*
X108483697Y-115461819D01*
X108484021Y-115089853D01*
X108341976Y-114746077D01*
X108079186Y-114482828D01*
X107760991Y-114350701D01*
X107760991Y-112012942D01*
X109833000Y-114084951D01*
X109833000Y-115604537D01*
X109800808Y-115636673D01*
X109658162Y-115980201D01*
X109657838Y-116352167D01*
X109799883Y-116695943D01*
X110062673Y-116959192D01*
X110406201Y-117101838D01*
X110778167Y-117102162D01*
X111121943Y-116960117D01*
X111385192Y-116697327D01*
X111527838Y-116353799D01*
X111528162Y-115981833D01*
X111386117Y-115638057D01*
X111353000Y-115604882D01*
X111353000Y-113902800D01*
X113392601Y-115942401D01*
X113639163Y-116107148D01*
X113930002Y-116165000D01*
X114348537Y-116165000D01*
X114380673Y-116197192D01*
X114724201Y-116339838D01*
X115096167Y-116340162D01*
X115439943Y-116198117D01*
X115703192Y-115935327D01*
X115845838Y-115591799D01*
X115846162Y-115219833D01*
X115704117Y-114876057D01*
X115441327Y-114612808D01*
X115097799Y-114470162D01*
X114725833Y-114469838D01*
X114382057Y-114611883D01*
X114348882Y-114645000D01*
X114244804Y-114645000D01*
X114063785Y-114463981D01*
X114169943Y-114420117D01*
X114433192Y-114157327D01*
X114575838Y-113813799D01*
X114576162Y-113441833D01*
X114434117Y-113098057D01*
X114171327Y-112834808D01*
X113827799Y-112692162D01*
X113780923Y-112692121D01*
X112429802Y-111341000D01*
X114530000Y-111341000D01*
X114530000Y-111985974D01*
X114539492Y-112034149D01*
X114567493Y-112076071D01*
X116091493Y-113590097D01*
X116131590Y-113616994D01*
X116181000Y-113627000D01*
X121301235Y-113627000D01*
X121353831Y-113615597D01*
X121394661Y-113586027D01*
X121862426Y-113078027D01*
X121885994Y-113041410D01*
X121896000Y-112992000D01*
X121896000Y-103213000D01*
X121887315Y-103166841D01*
X121860035Y-103124447D01*
X121818410Y-103096006D01*
X121769000Y-103086000D01*
X117418065Y-103086000D01*
X118468048Y-102036017D01*
X118788987Y-102036017D01*
X119079826Y-101978165D01*
X119326388Y-101813418D01*
X119758327Y-101381479D01*
X119968673Y-101592192D01*
X120312201Y-101734838D01*
X120684167Y-101735162D01*
X121027943Y-101593117D01*
X121291192Y-101330327D01*
X121433838Y-100986799D01*
X121434162Y-100614833D01*
X121292117Y-100271057D01*
X121029327Y-100007808D01*
X120707577Y-99874205D01*
X120707577Y-98410959D01*
X122832883Y-100536264D01*
G36*
X163230989Y-51662152D02*
X163820170Y-52055830D01*
X164213848Y-52645011D01*
X164366000Y-53409931D01*
X164366000Y-126892069D01*
X164213848Y-127656989D01*
X163820170Y-128246170D01*
X163271170Y-128613000D01*
X118392245Y-128613000D01*
X118235327Y-128455808D01*
X117891799Y-128313162D01*
X117620153Y-128312925D01*
X117620153Y-127657802D01*
X117634794Y-127643161D01*
X117636167Y-127643162D01*
X117979943Y-127501117D01*
X118243192Y-127238327D01*
X118385838Y-126894799D01*
X118385840Y-126892115D01*
X122667787Y-122610168D01*
X153994397Y-122610168D01*
X154523838Y-123891515D01*
X155503329Y-124872716D01*
X156783749Y-125404394D01*
X158170168Y-125405603D01*
X159451515Y-124876162D01*
X160432716Y-123896671D01*
X160964394Y-122616251D01*
X160965603Y-121229832D01*
X160436162Y-119948485D01*
X159456671Y-118967284D01*
X158176251Y-118435606D01*
X156789832Y-118434397D01*
X155508485Y-118963838D01*
X154527284Y-119943329D01*
X153995606Y-121223749D01*
X153994397Y-122610168D01*
X122667787Y-122610168D01*
X127516563Y-117761392D01*
X127480041Y-117945000D01*
X127594115Y-118518489D01*
X127918971Y-119004670D01*
X128233752Y-119215000D01*
X127918971Y-119425330D01*
X127594115Y-119911511D01*
X127480041Y-120485000D01*
X127594115Y-121058489D01*
X127918971Y-121544670D01*
X128405152Y-121869526D01*
X128978641Y-121983600D01*
X129037359Y-121983600D01*
X129610848Y-121869526D01*
X130097029Y-121544670D01*
X130278000Y-121273828D01*
X130458971Y-121544670D01*
X130945152Y-121869526D01*
X131518641Y-121983600D01*
X131577359Y-121983600D01*
X132150848Y-121869526D01*
X132637029Y-121544670D01*
X132961885Y-121058489D01*
X133075959Y-120485000D01*
X132985921Y-120032348D01*
X133155851Y-119998547D01*
X133402413Y-119833800D01*
X140201411Y-113034802D01*
X140366158Y-112788241D01*
X140424010Y-112497401D01*
X140424010Y-105557167D01*
X141915838Y-105557167D01*
X142057883Y-105900943D01*
X142091000Y-105934118D01*
X142091000Y-111341000D01*
X142148852Y-111631839D01*
X142313599Y-111878401D01*
X142804878Y-112369680D01*
X142804838Y-112415167D01*
X142946883Y-112758943D01*
X143209673Y-113022192D01*
X143553201Y-113164838D01*
X143925167Y-113165162D01*
X144268943Y-113023117D01*
X144532192Y-112760327D01*
X144674838Y-112416799D01*
X144675162Y-112044833D01*
X144533117Y-111701057D01*
X144270327Y-111437808D01*
X143926799Y-111295162D01*
X143879923Y-111295121D01*
X143611000Y-111026198D01*
X143611000Y-110381802D01*
X149916878Y-116687680D01*
X149916838Y-116733167D01*
X150058883Y-117076943D01*
X150321673Y-117340192D01*
X150665201Y-117482838D01*
X151037167Y-117483162D01*
X151380943Y-117341117D01*
X151644192Y-117078327D01*
X151786838Y-116734799D01*
X151787162Y-116362833D01*
X151645117Y-116019057D01*
X151382327Y-115755808D01*
X151038799Y-115613162D01*
X150991923Y-115613121D01*
X144373000Y-108994198D01*
X144373000Y-104918463D01*
X144405192Y-104886327D01*
X144547838Y-104542799D01*
X144548162Y-104170833D01*
X144406117Y-103827057D01*
X144143327Y-103563808D01*
X143799799Y-103421162D01*
X143427833Y-103420838D01*
X143084057Y-103562883D01*
X142820808Y-103825673D01*
X142678162Y-104169201D01*
X142677929Y-104436849D01*
X142665833Y-104436838D01*
X142322057Y-104578883D01*
X142058808Y-104841673D01*
X141916162Y-105185201D01*
X141915838Y-105557167D01*
X140424010Y-105557167D01*
X140424010Y-99482635D01*
X140640785Y-99572648D01*
X141012751Y-99572972D01*
X141356527Y-99430927D01*
X141619776Y-99168137D01*
X141762422Y-98824609D01*
X141762746Y-98452643D01*
X141620701Y-98108867D01*
X141587584Y-98075692D01*
X141587584Y-97146384D01*
X142218000Y-97776800D01*
X142218000Y-101380537D01*
X142185808Y-101412673D01*
X142043162Y-101756201D01*
X142042838Y-102128167D01*
X142184883Y-102471943D01*
X142447673Y-102735192D01*
X142791201Y-102877838D01*
X143163167Y-102878162D01*
X143506943Y-102736117D01*
X143770192Y-102473327D01*
X143912838Y-102129799D01*
X143913162Y-101757833D01*
X143771117Y-101414057D01*
X143738000Y-101380882D01*
X143738000Y-101227110D01*
X143798167Y-101227162D01*
X144141943Y-101085117D01*
X144405192Y-100822327D01*
X144547838Y-100478799D01*
X144548162Y-100106833D01*
X144406117Y-99763057D01*
X144373000Y-99729882D01*
X144373000Y-97213099D01*
X144315148Y-96922260D01*
X144150401Y-96675698D01*
X142488588Y-95013885D01*
X142488628Y-94968398D01*
X142346583Y-94624622D01*
X142083793Y-94361373D01*
X141740265Y-94218727D01*
X141368299Y-94218403D01*
X141024523Y-94360448D01*
X141014554Y-94370400D01*
X141014554Y-93538222D01*
X140989382Y-93411673D01*
X140956702Y-93247382D01*
X140791955Y-93000821D01*
X140471132Y-92679998D01*
X140734183Y-92679998D01*
X141327000Y-93272815D01*
X141327000Y-93434000D01*
X141335685Y-93480159D01*
X141362965Y-93522553D01*
X141404590Y-93550994D01*
X141454000Y-93561000D01*
X141615185Y-93561000D01*
X143710599Y-95656414D01*
X143957160Y-95821161D01*
X144133060Y-95856150D01*
X144182149Y-95974955D01*
X144444939Y-96238204D01*
X144788467Y-96380850D01*
X145160433Y-96381174D01*
X145391000Y-96285906D01*
X145391000Y-96355000D01*
X145400334Y-96402789D01*
X145428197Y-96444803D01*
X146317197Y-97333803D01*
X146357590Y-97360994D01*
X146407000Y-97371000D01*
X152757000Y-97371000D01*
X152799138Y-97363806D01*
X152842429Y-97337972D01*
X154239429Y-96067972D01*
X154270994Y-96023410D01*
X154281000Y-95974000D01*
X154281000Y-89878000D01*
X154271666Y-89830211D01*
X154243803Y-89788197D01*
X152682456Y-88226850D01*
X153346110Y-88226850D01*
X153345838Y-88539167D01*
X153487883Y-88882943D01*
X153750673Y-89146192D01*
X154094201Y-89288838D01*
X154466167Y-89289162D01*
X154809943Y-89147117D01*
X155073192Y-88884327D01*
X155215838Y-88540799D01*
X155216119Y-88217959D01*
X159372560Y-88217959D01*
X159372560Y-88239600D01*
X159416838Y-88474917D01*
X159555910Y-88691041D01*
X159768110Y-88836031D01*
X160020000Y-88887040D01*
X162052000Y-88887040D01*
X162287317Y-88842762D01*
X162503441Y-88703690D01*
X162648431Y-88491490D01*
X162699440Y-88239600D01*
X162699440Y-86512400D01*
X162655162Y-86277083D01*
X162516090Y-86060959D01*
X162303890Y-85915969D01*
X162262561Y-85907600D01*
X162280415Y-85895670D01*
X162605271Y-85409489D01*
X162719345Y-84836000D01*
X162605271Y-84262511D01*
X162280415Y-83776330D01*
X161965634Y-83566000D01*
X162280415Y-83355670D01*
X162605271Y-82869489D01*
X162719345Y-82296000D01*
X162605271Y-81722511D01*
X162280415Y-81236330D01*
X161965634Y-81026000D01*
X162280415Y-80815670D01*
X162605271Y-80329489D01*
X162719345Y-79756000D01*
X162605271Y-79182511D01*
X162280415Y-78696330D01*
X161965634Y-78486000D01*
X162280415Y-78275670D01*
X162605271Y-77789489D01*
X162719345Y-77216000D01*
X162605271Y-76642511D01*
X162280415Y-76156330D01*
X161970931Y-75949539D01*
X162386732Y-75578036D01*
X162640709Y-75050791D01*
X162643358Y-75035026D01*
X162522217Y-74803000D01*
X161163000Y-74803000D01*
X161163000Y-74823000D01*
X160909000Y-74823000D01*
X160909000Y-74803000D01*
X160889000Y-74803000D01*
X160889000Y-74549000D01*
X160909000Y-74549000D01*
X160909000Y-74529000D01*
X161163000Y-74529000D01*
X161163000Y-74549000D01*
X162522217Y-74549000D01*
X162643358Y-74316974D01*
X162640709Y-74301209D01*
X162386732Y-73773964D01*
X161970931Y-73402461D01*
X162280415Y-73195670D01*
X162605271Y-72709489D01*
X162719345Y-72136000D01*
X162605271Y-71562511D01*
X162280415Y-71076330D01*
X161965634Y-70866000D01*
X162280415Y-70655670D01*
X162605271Y-70169489D01*
X162719345Y-69596000D01*
X162605271Y-69022511D01*
X162280415Y-68536330D01*
X161794234Y-68211474D01*
X161220745Y-68097400D01*
X160851255Y-68097400D01*
X160277766Y-68211474D01*
X159791585Y-68536330D01*
X159466729Y-69022511D01*
X159352655Y-69596000D01*
X159466729Y-70169489D01*
X159791585Y-70655670D01*
X160106366Y-70866000D01*
X159791585Y-71076330D01*
X159466729Y-71562511D01*
X159352655Y-72136000D01*
X159428334Y-72516464D01*
X157177798Y-74767000D01*
X148489333Y-74767000D01*
X148596192Y-74660327D01*
X148738838Y-74316799D01*
X148739162Y-73944833D01*
X148597117Y-73601057D01*
X148334327Y-73337808D01*
X147990799Y-73195162D01*
X147618833Y-73194838D01*
X147497431Y-73245000D01*
X136914044Y-73245000D01*
X136914039Y-73244999D01*
X136633540Y-73300795D01*
X136575364Y-73312367D01*
X136288249Y-73504210D01*
X136288247Y-73504213D01*
X134930028Y-74862431D01*
X134881117Y-74744057D01*
X134778521Y-74641281D01*
X136784401Y-72635401D01*
X136949148Y-72388839D01*
X137007000Y-72098000D01*
X137007000Y-67600078D01*
X137263000Y-67651000D01*
X140565000Y-67651000D01*
X140855839Y-67593148D01*
X141102401Y-67428401D01*
X143881803Y-64648999D01*
X151949001Y-64648999D01*
X152239840Y-64591147D01*
X152340213Y-64524080D01*
X152434167Y-64524162D01*
X152777943Y-64382117D01*
X153041192Y-64119327D01*
X153183838Y-63775799D01*
X153184162Y-63403833D01*
X153042117Y-63060057D01*
X152779327Y-62796808D01*
X152435799Y-62654162D01*
X152063833Y-62653838D01*
X151720057Y-62795883D01*
X151456808Y-63058673D01*
X151427606Y-63128999D01*
X143725078Y-63128999D01*
X143644117Y-62933057D01*
X143381327Y-62669808D01*
X143037799Y-62527162D01*
X142665833Y-62526838D01*
X142322057Y-62668883D01*
X142058808Y-62931673D01*
X141916162Y-63275201D01*
X141916121Y-63322077D01*
X139107198Y-66131000D01*
X137577802Y-66131000D01*
X134769122Y-63322320D01*
X134769162Y-63276833D01*
X134627117Y-62933057D01*
X134364327Y-62669808D01*
X134020799Y-62527162D01*
X133648833Y-62526838D01*
X133305057Y-62668883D01*
X133217570Y-62756218D01*
X132945000Y-62702000D01*
X125252463Y-62702000D01*
X125220327Y-62669808D01*
X124876799Y-62527162D01*
X124504833Y-62526838D01*
X124161057Y-62668883D01*
X123897808Y-62931673D01*
X123755162Y-63275201D01*
X123755108Y-63337000D01*
X117511802Y-63337000D01*
X117351640Y-63176838D01*
X117351886Y-62894844D01*
X117209841Y-62551068D01*
X116947051Y-62287819D01*
X116603523Y-62145173D01*
X116231557Y-62144849D01*
X115887781Y-62286894D01*
X115624532Y-62549684D01*
X115481886Y-62893212D01*
X115481562Y-63265178D01*
X115623607Y-63608954D01*
X115886397Y-63872203D01*
X115905215Y-63880017D01*
X116659599Y-64634401D01*
X116906161Y-64799148D01*
X117197000Y-64857000D01*
X132630198Y-64857000D01*
X135074599Y-67301401D01*
X135321161Y-67466148D01*
X135487000Y-67499136D01*
X135487000Y-71783198D01*
X133424123Y-73846075D01*
X133385799Y-73830162D01*
X133013833Y-73829838D01*
X132670057Y-73971883D01*
X132406808Y-74234673D01*
X132389001Y-74277557D01*
X132389001Y-71315801D01*
X134227680Y-69477122D01*
X134273167Y-69477162D01*
X134616943Y-69335117D01*
X134880192Y-69072327D01*
X135022838Y-68728799D01*
X135023162Y-68356833D01*
X134881117Y-68013057D01*
X134713770Y-67845417D01*
X134768838Y-67712799D01*
X134769162Y-67340833D01*
X134627117Y-66997057D01*
X134364327Y-66733808D01*
X134020799Y-66591162D01*
X133648833Y-66590838D01*
X133305057Y-66732883D01*
X133041808Y-66995673D01*
X132943681Y-67231989D01*
X132623799Y-67099162D01*
X132251833Y-67098838D01*
X131908057Y-67240883D01*
X131644808Y-67503673D01*
X131502162Y-67847201D01*
X131502121Y-67894077D01*
X130075600Y-69320598D01*
X129910853Y-69567160D01*
X129853001Y-69857999D01*
X129853001Y-80174899D01*
X129910853Y-80465738D01*
X130075600Y-80712300D01*
X130252158Y-80888858D01*
X130252118Y-80934345D01*
X130394163Y-81278121D01*
X130656953Y-81541370D01*
X131000481Y-81684016D01*
X131372447Y-81684340D01*
X131626622Y-81579317D01*
X131626420Y-81810851D01*
X131768465Y-82154627D01*
X132031255Y-82417876D01*
X132374783Y-82560522D01*
X132746749Y-82560846D01*
X133090525Y-82418801D01*
X133287836Y-82221834D01*
X133422915Y-82548751D01*
X133685705Y-82812000D01*
X134029233Y-82954646D01*
X134081034Y-82954691D01*
X134081034Y-85111821D01*
X129369044Y-80399831D01*
X129444705Y-80324301D01*
X129587351Y-79980773D01*
X129587392Y-79933897D01*
X129604414Y-79916875D01*
X129769161Y-79670313D01*
X129827013Y-79379474D01*
X129827013Y-68817598D01*
X129771065Y-68536330D01*
X129769161Y-68526758D01*
X129604414Y-68280197D01*
X128941844Y-67617627D01*
X128695282Y-67452880D01*
X128404443Y-67395028D01*
X124075815Y-67395028D01*
X124100838Y-67334766D01*
X124101162Y-66962800D01*
X123959117Y-66619024D01*
X123696327Y-66355775D01*
X123352799Y-66213129D01*
X122980833Y-66212805D01*
X122637057Y-66354850D01*
X122603882Y-66387967D01*
X117413850Y-66387967D01*
X110369770Y-59343887D01*
X110123208Y-59179140D01*
X109832369Y-59121288D01*
X104633322Y-59121288D01*
X104342483Y-59179140D01*
X104095921Y-59343887D01*
X103822694Y-59617114D01*
X103444721Y-59541930D01*
X102871232Y-59656004D01*
X102385051Y-59980860D01*
X102174721Y-60295641D01*
X101964391Y-59980860D01*
X101478210Y-59656004D01*
X100904721Y-59541930D01*
X100331232Y-59656004D01*
X100003651Y-59874887D01*
X97465363Y-57336599D01*
X97218801Y-57171852D01*
X96927962Y-57114000D01*
X83415000Y-57114000D01*
X83124161Y-57171852D01*
X82877599Y-57336599D01*
X82611599Y-57602599D01*
X82446852Y-57849161D01*
X82410995Y-58029423D01*
X82399866Y-58045711D01*
X82363090Y-57988559D01*
X82150890Y-57843569D01*
X81899000Y-57792560D01*
X81399000Y-57792560D01*
X81163683Y-57836838D01*
X81065562Y-57899977D01*
X81565394Y-56696251D01*
X81565399Y-56690168D01*
X153994397Y-56690168D01*
X154523838Y-57971515D01*
X155503329Y-58952716D01*
X156783749Y-59484394D01*
X158170168Y-59485603D01*
X159451515Y-58956162D01*
X160432716Y-57976671D01*
X160964394Y-56696251D01*
X160965603Y-55309832D01*
X160436162Y-54028485D01*
X159456671Y-53047284D01*
X158176251Y-52515606D01*
X156789832Y-52514397D01*
X155508485Y-53043838D01*
X154527284Y-54023329D01*
X153995606Y-55303749D01*
X153994397Y-56690168D01*
X81565399Y-56690168D01*
X81566603Y-55309832D01*
X81037162Y-54028485D01*
X80706255Y-53697000D01*
X110975560Y-53697000D01*
X110975560Y-55447000D01*
X111019838Y-55682317D01*
X111158910Y-55898441D01*
X111371110Y-56043431D01*
X111623000Y-56094440D01*
X113373000Y-56094440D01*
X113608317Y-56050162D01*
X113824441Y-55911090D01*
X113961994Y-55709774D01*
X114000914Y-55748694D01*
X114115546Y-55634062D01*
X114198884Y-55887953D01*
X114763306Y-56093590D01*
X115363458Y-56067579D01*
X115797116Y-55887953D01*
X115880455Y-55634060D01*
X114998000Y-54751605D01*
X114983858Y-54765748D01*
X114804253Y-54586143D01*
X114818395Y-54572000D01*
X115177605Y-54572000D01*
X116060060Y-55454455D01*
X116313953Y-55371116D01*
X116519590Y-54806694D01*
X116493579Y-54206542D01*
X116313953Y-53772884D01*
X116082772Y-53697000D01*
X120024310Y-53697000D01*
X120024310Y-55447000D01*
X120068588Y-55682317D01*
X120207660Y-55898441D01*
X120419860Y-56043431D01*
X120671750Y-56094440D01*
X122421750Y-56094440D01*
X122657067Y-56050162D01*
X122873191Y-55911090D01*
X123010744Y-55709774D01*
X123049664Y-55748694D01*
X123164296Y-55634062D01*
X123247634Y-55887953D01*
X123812056Y-56093590D01*
X124412208Y-56067579D01*
X124845866Y-55887953D01*
X124929205Y-55634060D01*
X124046750Y-54751605D01*
X124032608Y-54765748D01*
X123853003Y-54586143D01*
X123867145Y-54572000D01*
X124226355Y-54572000D01*
X125108810Y-55454455D01*
X125362703Y-55371116D01*
X125568340Y-54806694D01*
X125542329Y-54206542D01*
X125362703Y-53772884D01*
X125131522Y-53697000D01*
X129073060Y-53697000D01*
X129073060Y-55447000D01*
X129117338Y-55682317D01*
X129256410Y-55898441D01*
X129468610Y-56043431D01*
X129720500Y-56094440D01*
X131470500Y-56094440D01*
X131705817Y-56050162D01*
X131921941Y-55911090D01*
X132059494Y-55709774D01*
X132098414Y-55748694D01*
X132213046Y-55634062D01*
X132296384Y-55887953D01*
X132860806Y-56093590D01*
X133460958Y-56067579D01*
X133894616Y-55887953D01*
X133977955Y-55634060D01*
X133095500Y-54751605D01*
X133081358Y-54765748D01*
X132901753Y-54586143D01*
X132915895Y-54572000D01*
X133275105Y-54572000D01*
X134157560Y-55454455D01*
X134411453Y-55371116D01*
X134617090Y-54806694D01*
X134591079Y-54206542D01*
X134411453Y-53772884D01*
X134180272Y-53697000D01*
X138121810Y-53697000D01*
X138121810Y-55447000D01*
X138166088Y-55682317D01*
X138305160Y-55898441D01*
X138517360Y-56043431D01*
X138769250Y-56094440D01*
X140519250Y-56094440D01*
X140754567Y-56050162D01*
X140970691Y-55911090D01*
X141108244Y-55709774D01*
X141147164Y-55748694D01*
X141261796Y-55634062D01*
X141345134Y-55887953D01*
X141909556Y-56093590D01*
X142509708Y-56067579D01*
X142943366Y-55887953D01*
X143026705Y-55634060D01*
X142144250Y-54751605D01*
X142130108Y-54765748D01*
X141950503Y-54586143D01*
X141964645Y-54572000D01*
X142323855Y-54572000D01*
X143206310Y-55454455D01*
X143460203Y-55371116D01*
X143665840Y-54806694D01*
X143639829Y-54206542D01*
X143460203Y-53772884D01*
X143229022Y-53697000D01*
X147170560Y-53697000D01*
X147170560Y-55447000D01*
X147214838Y-55682317D01*
X147353910Y-55898441D01*
X147566110Y-56043431D01*
X147818000Y-56094440D01*
X149568000Y-56094440D01*
X149803317Y-56050162D01*
X150019441Y-55911090D01*
X150156994Y-55709774D01*
X150195914Y-55748694D01*
X150310546Y-55634062D01*
X150393884Y-55887953D01*
X150958306Y-56093590D01*
X151558458Y-56067579D01*
X151992116Y-55887953D01*
X152075455Y-55634060D01*
X151193000Y-54751605D01*
X151178858Y-54765748D01*
X150999253Y-54586143D01*
X151013395Y-54572000D01*
X151372605Y-54572000D01*
X152255060Y-55454455D01*
X152508953Y-55371116D01*
X152714590Y-54806694D01*
X152688579Y-54206542D01*
X152508953Y-53772884D01*
X152255060Y-53689545D01*
X151372605Y-54572000D01*
X151013395Y-54572000D01*
X150999253Y-54557858D01*
X151178858Y-54378253D01*
X151193000Y-54392395D01*
X152075455Y-53509940D01*
X151992116Y-53256047D01*
X151427694Y-53050410D01*
X150827542Y-53076421D01*
X150393884Y-53256047D01*
X150310546Y-53509938D01*
X150195914Y-53395306D01*
X150154864Y-53436356D01*
X150032090Y-53245559D01*
X149819890Y-53100569D01*
X149568000Y-53049560D01*
X147818000Y-53049560D01*
X147582683Y-53093838D01*
X147366559Y-53232910D01*
X147221569Y-53445110D01*
X147170560Y-53697000D01*
X143229022Y-53697000D01*
X143206310Y-53689545D01*
X142323855Y-54572000D01*
X141964645Y-54572000D01*
X141950503Y-54557858D01*
X142130108Y-54378253D01*
X142144250Y-54392395D01*
X143026705Y-53509940D01*
X142943366Y-53256047D01*
X142378944Y-53050410D01*
X141778792Y-53076421D01*
X141345134Y-53256047D01*
X141261796Y-53509938D01*
X141147164Y-53395306D01*
X141106114Y-53436356D01*
X140983340Y-53245559D01*
X140771140Y-53100569D01*
X140519250Y-53049560D01*
X138769250Y-53049560D01*
X138533933Y-53093838D01*
X138317809Y-53232910D01*
X138172819Y-53445110D01*
X138121810Y-53697000D01*
X134180272Y-53697000D01*
X134157560Y-53689545D01*
X133275105Y-54572000D01*
X132915895Y-54572000D01*
X132901753Y-54557858D01*
X133081358Y-54378253D01*
X133095500Y-54392395D01*
X133977955Y-53509940D01*
X133894616Y-53256047D01*
X133330194Y-53050410D01*
X132730042Y-53076421D01*
X132296384Y-53256047D01*
X132213046Y-53509938D01*
X132098414Y-53395306D01*
X132057364Y-53436356D01*
X131934590Y-53245559D01*
X131722390Y-53100569D01*
X131470500Y-53049560D01*
X129720500Y-53049560D01*
X129485183Y-53093838D01*
X129269059Y-53232910D01*
X129124069Y-53445110D01*
X129073060Y-53697000D01*
X125131522Y-53697000D01*
X125108810Y-53689545D01*
X124226355Y-54572000D01*
X123867145Y-54572000D01*
X123853003Y-54557858D01*
X124032608Y-54378253D01*
X124046750Y-54392395D01*
X124929205Y-53509940D01*
X124845866Y-53256047D01*
X124281444Y-53050410D01*
X123681292Y-53076421D01*
X123247634Y-53256047D01*
X123164296Y-53509938D01*
X123049664Y-53395306D01*
X123008614Y-53436356D01*
X122885840Y-53245559D01*
X122673640Y-53100569D01*
X122421750Y-53049560D01*
X120671750Y-53049560D01*
X120436433Y-53093838D01*
X120220309Y-53232910D01*
X120075319Y-53445110D01*
X120024310Y-53697000D01*
X116082772Y-53697000D01*
X116060060Y-53689545D01*
X115177605Y-54572000D01*
X114818395Y-54572000D01*
X114804253Y-54557858D01*
X114983858Y-54378253D01*
X114998000Y-54392395D01*
X115880455Y-53509940D01*
X115797116Y-53256047D01*
X115232694Y-53050410D01*
X114632542Y-53076421D01*
X114198884Y-53256047D01*
X114115546Y-53509938D01*
X114000914Y-53395306D01*
X113959864Y-53436356D01*
X113837090Y-53245559D01*
X113624890Y-53100569D01*
X113373000Y-53049560D01*
X111623000Y-53049560D01*
X111387683Y-53093838D01*
X111171559Y-53232910D01*
X111026569Y-53445110D01*
X110975560Y-53697000D01*
X80706255Y-53697000D01*
X80057671Y-53047284D01*
X78777251Y-52515606D01*
X77390832Y-52514397D01*
X76109485Y-53043838D01*
X75128284Y-54023329D01*
X74596606Y-55303749D01*
X74595397Y-56690168D01*
X75124838Y-57971515D01*
X76104329Y-58952716D01*
X77384749Y-59484394D01*
X78771168Y-59485603D01*
X80052515Y-58956162D01*
X80797669Y-58212307D01*
X80751560Y-58440000D01*
X80751560Y-59340000D01*
X80795838Y-59575317D01*
X80889000Y-59720095D01*
X80889000Y-62204000D01*
X80946852Y-62494839D01*
X81111599Y-62741401D01*
X81166088Y-62795891D01*
X81313141Y-62894148D01*
X81412651Y-62960638D01*
X81626121Y-63003100D01*
X81626121Y-63324139D01*
X81784871Y-63482889D01*
X82997721Y-63482889D01*
X82997721Y-63462889D01*
X83251721Y-63462889D01*
X83251721Y-63482889D01*
X83271721Y-63482889D01*
X83271721Y-63736889D01*
X83251721Y-63736889D01*
X83251721Y-64949739D01*
X83410471Y-65108489D01*
X83986687Y-65108489D01*
X84733632Y-65855434D01*
X84744852Y-65911839D01*
X84909599Y-66158401D01*
X95179878Y-76428680D01*
X95179838Y-76474167D01*
X95321883Y-76817943D01*
X95584673Y-77081192D01*
X95928201Y-77223838D01*
X96300167Y-77224162D01*
X96643943Y-77082117D01*
X96746719Y-76979521D01*
X104880000Y-85112802D01*
X104880000Y-96173537D01*
X104847808Y-96205673D01*
X104705162Y-96549201D01*
X104704838Y-96921167D01*
X104846883Y-97264943D01*
X105109673Y-97528192D01*
X105453201Y-97670838D01*
X105825167Y-97671162D01*
X106168943Y-97529117D01*
X106432192Y-97266327D01*
X106574838Y-96922799D01*
X106575162Y-96550833D01*
X106433117Y-96207057D01*
X106400000Y-96173882D01*
X106400000Y-85616802D01*
X106835211Y-86052013D01*
X106835211Y-99735589D01*
X106605384Y-99735389D01*
X106261608Y-99877434D01*
X105998359Y-100140224D01*
X105855713Y-100483752D01*
X105855389Y-100855718D01*
X105997434Y-101199494D01*
X106260224Y-101462743D01*
X106330550Y-101491945D01*
X106330550Y-102813313D01*
X106324853Y-102821839D01*
X106267001Y-103112678D01*
X106267001Y-104087199D01*
X106255599Y-104098601D01*
X106090852Y-104345163D01*
X106033000Y-104636002D01*
X106033000Y-106351451D01*
X105767000Y-106003273D01*
X105767000Y-104356000D01*
X105766401Y-104328417D01*
X105640000Y-101421194D01*
X105640000Y-101054000D01*
X105636152Y-101022975D01*
X105614379Y-100977506D01*
X105576632Y-100944091D01*
X104840701Y-100518025D01*
X103862000Y-99784000D01*
X103728051Y-99707029D01*
X103481000Y-99657000D01*
X103353475Y-99657000D01*
X103163632Y-99547091D01*
X103100000Y-99530000D01*
X86590000Y-99530000D01*
X86546414Y-99537714D01*
X82744208Y-100927000D01*
X66750000Y-100927000D01*
X66750000Y-79145363D01*
X81944855Y-79145363D01*
X82071708Y-79452372D01*
X82306393Y-79687466D01*
X82408698Y-79729947D01*
X82307628Y-79771708D01*
X82072534Y-80006393D01*
X81945145Y-80313179D01*
X81944855Y-80645363D01*
X82071708Y-80952372D01*
X82306393Y-81187466D01*
X82408698Y-81229947D01*
X82307628Y-81271708D01*
X82072534Y-81506393D01*
X81945145Y-81813179D01*
X81944855Y-82145363D01*
X82071708Y-82452372D01*
X82306393Y-82687466D01*
X82613179Y-82814855D01*
X82945363Y-82815145D01*
X83252372Y-82688292D01*
X83487466Y-82453607D01*
X83529947Y-82351302D01*
X83571708Y-82452372D01*
X83806393Y-82687466D01*
X84113179Y-82814855D01*
X84445363Y-82815145D01*
X84752372Y-82688292D01*
X84987466Y-82453607D01*
X85114855Y-82146821D01*
X85115145Y-81814637D01*
X84988292Y-81507628D01*
X84753607Y-81272534D01*
X84651302Y-81230053D01*
X84752372Y-81188292D01*
X84987466Y-80953607D01*
X85114855Y-80646821D01*
X85115145Y-80314637D01*
X84988292Y-80007628D01*
X84753607Y-79772534D01*
X84651302Y-79730053D01*
X84752372Y-79688292D01*
X84987466Y-79453607D01*
X85114855Y-79146821D01*
X85115145Y-78814637D01*
X84988292Y-78507628D01*
X84753607Y-78272534D01*
X84446821Y-78145145D01*
X84114637Y-78144855D01*
X83807628Y-78271708D01*
X83572534Y-78506393D01*
X83530053Y-78608698D01*
X83488292Y-78507628D01*
X83253607Y-78272534D01*
X82946821Y-78145145D01*
X82614637Y-78144855D01*
X82307628Y-78271708D01*
X82072534Y-78506393D01*
X81945145Y-78813179D01*
X81944855Y-79145363D01*
X66750000Y-79145363D01*
X66750000Y-66749000D01*
X70433560Y-66749000D01*
X70433560Y-68049000D01*
X70477838Y-68284317D01*
X70616910Y-68500441D01*
X70829110Y-68645431D01*
X71081000Y-68696440D01*
X72381000Y-68696440D01*
X72616317Y-68652162D01*
X72832441Y-68513090D01*
X72977431Y-68300890D01*
X72978012Y-68298016D01*
X76011590Y-68298016D01*
X76067271Y-68528611D01*
X76550078Y-68696622D01*
X77060428Y-68667083D01*
X77394729Y-68528611D01*
X77450410Y-68298016D01*
X76731000Y-67578605D01*
X76011590Y-68298016D01*
X72978012Y-68298016D01*
X73028440Y-68049000D01*
X73028440Y-67218078D01*
X75433378Y-67218078D01*
X75462917Y-67728428D01*
X75601389Y-68062729D01*
X75831984Y-68118410D01*
X76551395Y-67399000D01*
X76910605Y-67399000D01*
X77630016Y-68118410D01*
X77860611Y-68062729D01*
X78028622Y-67579922D01*
X77999083Y-67069572D01*
X77860611Y-66735271D01*
X77630016Y-66679590D01*
X76910605Y-67399000D01*
X76551395Y-67399000D01*
X75831984Y-66679590D01*
X75601389Y-66735271D01*
X75433378Y-67218078D01*
X73028440Y-67218078D01*
X73028440Y-66749000D01*
X72984162Y-66513683D01*
X72975347Y-66499984D01*
X76011590Y-66499984D01*
X76731000Y-67219395D01*
X77450410Y-66499984D01*
X77394729Y-66269389D01*
X76911922Y-66101378D01*
X76401572Y-66130917D01*
X76067271Y-66269389D01*
X76011590Y-66499984D01*
X72975347Y-66499984D01*
X72845090Y-66297559D01*
X72632890Y-66152569D01*
X72381000Y-66101560D01*
X71081000Y-66101560D01*
X70845683Y-66145838D01*
X70629559Y-66284910D01*
X70484569Y-66497110D01*
X70433560Y-66749000D01*
X66750000Y-66749000D01*
X66750000Y-63895639D01*
X81626121Y-63895639D01*
X81626121Y-64599798D01*
X81722794Y-64833187D01*
X81901422Y-65011816D01*
X82134811Y-65108489D01*
X82838971Y-65108489D01*
X82997721Y-64949739D01*
X82997721Y-63736889D01*
X81784871Y-63736889D01*
X81626121Y-63895639D01*
X66750000Y-63895639D01*
X66750000Y-55492750D01*
X67556510Y-55492750D01*
X67556510Y-56332799D01*
X67653183Y-56566188D01*
X67831811Y-56744817D01*
X67894013Y-56770582D01*
X67680928Y-57089486D01*
X67556510Y-57714978D01*
X67556510Y-57779022D01*
X67680928Y-58404514D01*
X68035241Y-58934781D01*
X68565508Y-59289094D01*
X69191000Y-59413512D01*
X69816492Y-59289094D01*
X70346759Y-58934781D01*
X70701072Y-58404514D01*
X70825490Y-57779022D01*
X70825490Y-57714978D01*
X70701072Y-57089486D01*
X70487987Y-56770582D01*
X70550189Y-56744817D01*
X70728817Y-56566188D01*
X70825490Y-56332799D01*
X70825490Y-55492750D01*
X70666740Y-55334000D01*
X69318000Y-55334000D01*
X69318000Y-55354000D01*
X69064000Y-55354000D01*
X69064000Y-55334000D01*
X67715260Y-55334000D01*
X67556510Y-55492750D01*
X66750000Y-55492750D01*
X66750000Y-54081201D01*
X67556510Y-54081201D01*
X67556510Y-54921250D01*
X67715260Y-55080000D01*
X69064000Y-55080000D01*
X69064000Y-53731260D01*
X69318000Y-53731260D01*
X69318000Y-55080000D01*
X70666740Y-55080000D01*
X70825490Y-54921250D01*
X70825490Y-54081201D01*
X70728817Y-53847812D01*
X70550189Y-53669183D01*
X70316800Y-53572510D01*
X69476750Y-53572510D01*
X69318000Y-53731260D01*
X69064000Y-53731260D01*
X68905250Y-53572510D01*
X68065200Y-53572510D01*
X67831811Y-53669183D01*
X67653183Y-53847812D01*
X67556510Y-54081201D01*
X66750000Y-54081201D01*
X66750000Y-53340000D01*
X66744955Y-53314638D01*
X66878152Y-52645011D01*
X67271830Y-52055830D01*
X67861011Y-51662152D01*
X68625931Y-51510000D01*
X162466069Y-51510000D01*
X163230989Y-51662152D01*
X163230989Y-51662152D01*
G37*
X163230989Y-51662152D02*
X163820170Y-52055830D01*
X164213848Y-52645011D01*
X164366000Y-53409931D01*
X164366000Y-126892069D01*
X164213848Y-127656989D01*
X163820170Y-128246170D01*
X163271170Y-128613000D01*
X118392245Y-128613000D01*
X118235327Y-128455808D01*
X117891799Y-128313162D01*
X117620153Y-128312925D01*
X117620153Y-127657802D01*
X117634794Y-127643161D01*
X117636167Y-127643162D01*
X117979943Y-127501117D01*
X118243192Y-127238327D01*
X118385838Y-126894799D01*
X118385840Y-126892115D01*
X122667787Y-122610168D01*
X153994397Y-122610168D01*
X154523838Y-123891515D01*
X155503329Y-124872716D01*
X156783749Y-125404394D01*
X158170168Y-125405603D01*
X159451515Y-124876162D01*
X160432716Y-123896671D01*
X160964394Y-122616251D01*
X160965603Y-121229832D01*
X160436162Y-119948485D01*
X159456671Y-118967284D01*
X158176251Y-118435606D01*
X156789832Y-118434397D01*
X155508485Y-118963838D01*
X154527284Y-119943329D01*
X153995606Y-121223749D01*
X153994397Y-122610168D01*
X122667787Y-122610168D01*
X127516563Y-117761392D01*
X127480041Y-117945000D01*
X127594115Y-118518489D01*
X127918971Y-119004670D01*
X128233752Y-119215000D01*
X127918971Y-119425330D01*
X127594115Y-119911511D01*
X127480041Y-120485000D01*
X127594115Y-121058489D01*
X127918971Y-121544670D01*
X128405152Y-121869526D01*
X128978641Y-121983600D01*
X129037359Y-121983600D01*
X129610848Y-121869526D01*
X130097029Y-121544670D01*
X130278000Y-121273828D01*
X130458971Y-121544670D01*
X130945152Y-121869526D01*
X131518641Y-121983600D01*
X131577359Y-121983600D01*
X132150848Y-121869526D01*
X132637029Y-121544670D01*
X132961885Y-121058489D01*
X133075959Y-120485000D01*
X132985921Y-120032348D01*
X133155851Y-119998547D01*
X133402413Y-119833800D01*
X140201411Y-113034802D01*
X140366158Y-112788241D01*
X140424010Y-112497401D01*
X140424010Y-105557167D01*
X141915838Y-105557167D01*
X142057883Y-105900943D01*
X142091000Y-105934118D01*
X142091000Y-111341000D01*
X142148852Y-111631839D01*
X142313599Y-111878401D01*
X142804878Y-112369680D01*
X142804838Y-112415167D01*
X142946883Y-112758943D01*
X143209673Y-113022192D01*
X143553201Y-113164838D01*
X143925167Y-113165162D01*
X144268943Y-113023117D01*
X144532192Y-112760327D01*
X144674838Y-112416799D01*
X144675162Y-112044833D01*
X144533117Y-111701057D01*
X144270327Y-111437808D01*
X143926799Y-111295162D01*
X143879923Y-111295121D01*
X143611000Y-111026198D01*
X143611000Y-110381802D01*
X149916878Y-116687680D01*
X149916838Y-116733167D01*
X150058883Y-117076943D01*
X150321673Y-117340192D01*
X150665201Y-117482838D01*
X151037167Y-117483162D01*
X151380943Y-117341117D01*
X151644192Y-117078327D01*
X151786838Y-116734799D01*
X151787162Y-116362833D01*
X151645117Y-116019057D01*
X151382327Y-115755808D01*
X151038799Y-115613162D01*
X150991923Y-115613121D01*
X144373000Y-108994198D01*
X144373000Y-104918463D01*
X144405192Y-104886327D01*
X144547838Y-104542799D01*
X144548162Y-104170833D01*
X144406117Y-103827057D01*
X144143327Y-103563808D01*
X143799799Y-103421162D01*
X143427833Y-103420838D01*
X143084057Y-103562883D01*
X142820808Y-103825673D01*
X142678162Y-104169201D01*
X142677929Y-104436849D01*
X142665833Y-104436838D01*
X142322057Y-104578883D01*
X142058808Y-104841673D01*
X141916162Y-105185201D01*
X141915838Y-105557167D01*
X140424010Y-105557167D01*
X140424010Y-99482635D01*
X140640785Y-99572648D01*
X141012751Y-99572972D01*
X141356527Y-99430927D01*
X141619776Y-99168137D01*
X141762422Y-98824609D01*
X141762746Y-98452643D01*
X141620701Y-98108867D01*
X141587584Y-98075692D01*
X141587584Y-97146384D01*
X142218000Y-97776800D01*
X142218000Y-101380537D01*
X142185808Y-101412673D01*
X142043162Y-101756201D01*
X142042838Y-102128167D01*
X142184883Y-102471943D01*
X142447673Y-102735192D01*
X142791201Y-102877838D01*
X143163167Y-102878162D01*
X143506943Y-102736117D01*
X143770192Y-102473327D01*
X143912838Y-102129799D01*
X143913162Y-101757833D01*
X143771117Y-101414057D01*
X143738000Y-101380882D01*
X143738000Y-101227110D01*
X143798167Y-101227162D01*
X144141943Y-101085117D01*
X144405192Y-100822327D01*
X144547838Y-100478799D01*
X144548162Y-100106833D01*
X144406117Y-99763057D01*
X144373000Y-99729882D01*
X144373000Y-97213099D01*
X144315148Y-96922260D01*
X144150401Y-96675698D01*
X142488588Y-95013885D01*
X142488628Y-94968398D01*
X142346583Y-94624622D01*
X142083793Y-94361373D01*
X141740265Y-94218727D01*
X141368299Y-94218403D01*
X141024523Y-94360448D01*
X141014554Y-94370400D01*
X141014554Y-93538222D01*
X140989382Y-93411673D01*
X140956702Y-93247382D01*
X140791955Y-93000821D01*
X140471132Y-92679998D01*
X140734183Y-92679998D01*
X141327000Y-93272815D01*
X141327000Y-93434000D01*
X141335685Y-93480159D01*
X141362965Y-93522553D01*
X141404590Y-93550994D01*
X141454000Y-93561000D01*
X141615185Y-93561000D01*
X143710599Y-95656414D01*
X143957160Y-95821161D01*
X144133060Y-95856150D01*
X144182149Y-95974955D01*
X144444939Y-96238204D01*
X144788467Y-96380850D01*
X145160433Y-96381174D01*
X145391000Y-96285906D01*
X145391000Y-96355000D01*
X145400334Y-96402789D01*
X145428197Y-96444803D01*
X146317197Y-97333803D01*
X146357590Y-97360994D01*
X146407000Y-97371000D01*
X152757000Y-97371000D01*
X152799138Y-97363806D01*
X152842429Y-97337972D01*
X154239429Y-96067972D01*
X154270994Y-96023410D01*
X154281000Y-95974000D01*
X154281000Y-89878000D01*
X154271666Y-89830211D01*
X154243803Y-89788197D01*
X152682456Y-88226850D01*
X153346110Y-88226850D01*
X153345838Y-88539167D01*
X153487883Y-88882943D01*
X153750673Y-89146192D01*
X154094201Y-89288838D01*
X154466167Y-89289162D01*
X154809943Y-89147117D01*
X155073192Y-88884327D01*
X155215838Y-88540799D01*
X155216119Y-88217959D01*
X159372560Y-88217959D01*
X159372560Y-88239600D01*
X159416838Y-88474917D01*
X159555910Y-88691041D01*
X159768110Y-88836031D01*
X160020000Y-88887040D01*
X162052000Y-88887040D01*
X162287317Y-88842762D01*
X162503441Y-88703690D01*
X162648431Y-88491490D01*
X162699440Y-88239600D01*
X162699440Y-86512400D01*
X162655162Y-86277083D01*
X162516090Y-86060959D01*
X162303890Y-85915969D01*
X162262561Y-85907600D01*
X162280415Y-85895670D01*
X162605271Y-85409489D01*
X162719345Y-84836000D01*
X162605271Y-84262511D01*
X162280415Y-83776330D01*
X161965634Y-83566000D01*
X162280415Y-83355670D01*
X162605271Y-82869489D01*
X162719345Y-82296000D01*
X162605271Y-81722511D01*
X162280415Y-81236330D01*
X161965634Y-81026000D01*
X162280415Y-80815670D01*
X162605271Y-80329489D01*
X162719345Y-79756000D01*
X162605271Y-79182511D01*
X162280415Y-78696330D01*
X161965634Y-78486000D01*
X162280415Y-78275670D01*
X162605271Y-77789489D01*
X162719345Y-77216000D01*
X162605271Y-76642511D01*
X162280415Y-76156330D01*
X161970931Y-75949539D01*
X162386732Y-75578036D01*
X162640709Y-75050791D01*
X162643358Y-75035026D01*
X162522217Y-74803000D01*
X161163000Y-74803000D01*
X161163000Y-74823000D01*
X160909000Y-74823000D01*
X160909000Y-74803000D01*
X160889000Y-74803000D01*
X160889000Y-74549000D01*
X160909000Y-74549000D01*
X160909000Y-74529000D01*
X161163000Y-74529000D01*
X161163000Y-74549000D01*
X162522217Y-74549000D01*
X162643358Y-74316974D01*
X162640709Y-74301209D01*
X162386732Y-73773964D01*
X161970931Y-73402461D01*
X162280415Y-73195670D01*
X162605271Y-72709489D01*
X162719345Y-72136000D01*
X162605271Y-71562511D01*
X162280415Y-71076330D01*
X161965634Y-70866000D01*
X162280415Y-70655670D01*
X162605271Y-70169489D01*
X162719345Y-69596000D01*
X162605271Y-69022511D01*
X162280415Y-68536330D01*
X161794234Y-68211474D01*
X161220745Y-68097400D01*
X160851255Y-68097400D01*
X160277766Y-68211474D01*
X159791585Y-68536330D01*
X159466729Y-69022511D01*
X159352655Y-69596000D01*
X159466729Y-70169489D01*
X159791585Y-70655670D01*
X160106366Y-70866000D01*
X159791585Y-71076330D01*
X159466729Y-71562511D01*
X159352655Y-72136000D01*
X159428334Y-72516464D01*
X157177798Y-74767000D01*
X148489333Y-74767000D01*
X148596192Y-74660327D01*
X148738838Y-74316799D01*
X148739162Y-73944833D01*
X148597117Y-73601057D01*
X148334327Y-73337808D01*
X147990799Y-73195162D01*
X147618833Y-73194838D01*
X147497431Y-73245000D01*
X136914044Y-73245000D01*
X136914039Y-73244999D01*
X136633540Y-73300795D01*
X136575364Y-73312367D01*
X136288249Y-73504210D01*
X136288247Y-73504213D01*
X134930028Y-74862431D01*
X134881117Y-74744057D01*
X134778521Y-74641281D01*
X136784401Y-72635401D01*
X136949148Y-72388839D01*
X137007000Y-72098000D01*
X137007000Y-67600078D01*
X137263000Y-67651000D01*
X140565000Y-67651000D01*
X140855839Y-67593148D01*
X141102401Y-67428401D01*
X143881803Y-64648999D01*
X151949001Y-64648999D01*
X152239840Y-64591147D01*
X152340213Y-64524080D01*
X152434167Y-64524162D01*
X152777943Y-64382117D01*
X153041192Y-64119327D01*
X153183838Y-63775799D01*
X153184162Y-63403833D01*
X153042117Y-63060057D01*
X152779327Y-62796808D01*
X152435799Y-62654162D01*
X152063833Y-62653838D01*
X151720057Y-62795883D01*
X151456808Y-63058673D01*
X151427606Y-63128999D01*
X143725078Y-63128999D01*
X143644117Y-62933057D01*
X143381327Y-62669808D01*
X143037799Y-62527162D01*
X142665833Y-62526838D01*
X142322057Y-62668883D01*
X142058808Y-62931673D01*
X141916162Y-63275201D01*
X141916121Y-63322077D01*
X139107198Y-66131000D01*
X137577802Y-66131000D01*
X134769122Y-63322320D01*
X134769162Y-63276833D01*
X134627117Y-62933057D01*
X134364327Y-62669808D01*
X134020799Y-62527162D01*
X133648833Y-62526838D01*
X133305057Y-62668883D01*
X133217570Y-62756218D01*
X132945000Y-62702000D01*
X125252463Y-62702000D01*
X125220327Y-62669808D01*
X124876799Y-62527162D01*
X124504833Y-62526838D01*
X124161057Y-62668883D01*
X123897808Y-62931673D01*
X123755162Y-63275201D01*
X123755108Y-63337000D01*
X117511802Y-63337000D01*
X117351640Y-63176838D01*
X117351886Y-62894844D01*
X117209841Y-62551068D01*
X116947051Y-62287819D01*
X116603523Y-62145173D01*
X116231557Y-62144849D01*
X115887781Y-62286894D01*
X115624532Y-62549684D01*
X115481886Y-62893212D01*
X115481562Y-63265178D01*
X115623607Y-63608954D01*
X115886397Y-63872203D01*
X115905215Y-63880017D01*
X116659599Y-64634401D01*
X116906161Y-64799148D01*
X117197000Y-64857000D01*
X132630198Y-64857000D01*
X135074599Y-67301401D01*
X135321161Y-67466148D01*
X135487000Y-67499136D01*
X135487000Y-71783198D01*
X133424123Y-73846075D01*
X133385799Y-73830162D01*
X133013833Y-73829838D01*
X132670057Y-73971883D01*
X132406808Y-74234673D01*
X132389001Y-74277557D01*
X132389001Y-71315801D01*
X134227680Y-69477122D01*
X134273167Y-69477162D01*
X134616943Y-69335117D01*
X134880192Y-69072327D01*
X135022838Y-68728799D01*
X135023162Y-68356833D01*
X134881117Y-68013057D01*
X134713770Y-67845417D01*
X134768838Y-67712799D01*
X134769162Y-67340833D01*
X134627117Y-66997057D01*
X134364327Y-66733808D01*
X134020799Y-66591162D01*
X133648833Y-66590838D01*
X133305057Y-66732883D01*
X133041808Y-66995673D01*
X132943681Y-67231989D01*
X132623799Y-67099162D01*
X132251833Y-67098838D01*
X131908057Y-67240883D01*
X131644808Y-67503673D01*
X131502162Y-67847201D01*
X131502121Y-67894077D01*
X130075600Y-69320598D01*
X129910853Y-69567160D01*
X129853001Y-69857999D01*
X129853001Y-80174899D01*
X129910853Y-80465738D01*
X130075600Y-80712300D01*
X130252158Y-80888858D01*
X130252118Y-80934345D01*
X130394163Y-81278121D01*
X130656953Y-81541370D01*
X131000481Y-81684016D01*
X131372447Y-81684340D01*
X131626622Y-81579317D01*
X131626420Y-81810851D01*
X131768465Y-82154627D01*
X132031255Y-82417876D01*
X132374783Y-82560522D01*
X132746749Y-82560846D01*
X133090525Y-82418801D01*
X133287836Y-82221834D01*
X133422915Y-82548751D01*
X133685705Y-82812000D01*
X134029233Y-82954646D01*
X134081034Y-82954691D01*
X134081034Y-85111821D01*
X129369044Y-80399831D01*
X129444705Y-80324301D01*
X129587351Y-79980773D01*
X129587392Y-79933897D01*
X129604414Y-79916875D01*
X129769161Y-79670313D01*
X129827013Y-79379474D01*
X129827013Y-68817598D01*
X129771065Y-68536330D01*
X129769161Y-68526758D01*
X129604414Y-68280197D01*
X128941844Y-67617627D01*
X128695282Y-67452880D01*
X128404443Y-67395028D01*
X124075815Y-67395028D01*
X124100838Y-67334766D01*
X124101162Y-66962800D01*
X123959117Y-66619024D01*
X123696327Y-66355775D01*
X123352799Y-66213129D01*
X122980833Y-66212805D01*
X122637057Y-66354850D01*
X122603882Y-66387967D01*
X117413850Y-66387967D01*
X110369770Y-59343887D01*
X110123208Y-59179140D01*
X109832369Y-59121288D01*
X104633322Y-59121288D01*
X104342483Y-59179140D01*
X104095921Y-59343887D01*
X103822694Y-59617114D01*
X103444721Y-59541930D01*
X102871232Y-59656004D01*
X102385051Y-59980860D01*
X102174721Y-60295641D01*
X101964391Y-59980860D01*
X101478210Y-59656004D01*
X100904721Y-59541930D01*
X100331232Y-59656004D01*
X100003651Y-59874887D01*
X97465363Y-57336599D01*
X97218801Y-57171852D01*
X96927962Y-57114000D01*
X83415000Y-57114000D01*
X83124161Y-57171852D01*
X82877599Y-57336599D01*
X82611599Y-57602599D01*
X82446852Y-57849161D01*
X82410995Y-58029423D01*
X82399866Y-58045711D01*
X82363090Y-57988559D01*
X82150890Y-57843569D01*
X81899000Y-57792560D01*
X81399000Y-57792560D01*
X81163683Y-57836838D01*
X81065562Y-57899977D01*
X81565394Y-56696251D01*
X81565399Y-56690168D01*
X153994397Y-56690168D01*
X154523838Y-57971515D01*
X155503329Y-58952716D01*
X156783749Y-59484394D01*
X158170168Y-59485603D01*
X159451515Y-58956162D01*
X160432716Y-57976671D01*
X160964394Y-56696251D01*
X160965603Y-55309832D01*
X160436162Y-54028485D01*
X159456671Y-53047284D01*
X158176251Y-52515606D01*
X156789832Y-52514397D01*
X155508485Y-53043838D01*
X154527284Y-54023329D01*
X153995606Y-55303749D01*
X153994397Y-56690168D01*
X81565399Y-56690168D01*
X81566603Y-55309832D01*
X81037162Y-54028485D01*
X80706255Y-53697000D01*
X110975560Y-53697000D01*
X110975560Y-55447000D01*
X111019838Y-55682317D01*
X111158910Y-55898441D01*
X111371110Y-56043431D01*
X111623000Y-56094440D01*
X113373000Y-56094440D01*
X113608317Y-56050162D01*
X113824441Y-55911090D01*
X113961994Y-55709774D01*
X114000914Y-55748694D01*
X114115546Y-55634062D01*
X114198884Y-55887953D01*
X114763306Y-56093590D01*
X115363458Y-56067579D01*
X115797116Y-55887953D01*
X115880455Y-55634060D01*
X114998000Y-54751605D01*
X114983858Y-54765748D01*
X114804253Y-54586143D01*
X114818395Y-54572000D01*
X115177605Y-54572000D01*
X116060060Y-55454455D01*
X116313953Y-55371116D01*
X116519590Y-54806694D01*
X116493579Y-54206542D01*
X116313953Y-53772884D01*
X116082772Y-53697000D01*
X120024310Y-53697000D01*
X120024310Y-55447000D01*
X120068588Y-55682317D01*
X120207660Y-55898441D01*
X120419860Y-56043431D01*
X120671750Y-56094440D01*
X122421750Y-56094440D01*
X122657067Y-56050162D01*
X122873191Y-55911090D01*
X123010744Y-55709774D01*
X123049664Y-55748694D01*
X123164296Y-55634062D01*
X123247634Y-55887953D01*
X123812056Y-56093590D01*
X124412208Y-56067579D01*
X124845866Y-55887953D01*
X124929205Y-55634060D01*
X124046750Y-54751605D01*
X124032608Y-54765748D01*
X123853003Y-54586143D01*
X123867145Y-54572000D01*
X124226355Y-54572000D01*
X125108810Y-55454455D01*
X125362703Y-55371116D01*
X125568340Y-54806694D01*
X125542329Y-54206542D01*
X125362703Y-53772884D01*
X125131522Y-53697000D01*
X129073060Y-53697000D01*
X129073060Y-55447000D01*
X129117338Y-55682317D01*
X129256410Y-55898441D01*
X129468610Y-56043431D01*
X129720500Y-56094440D01*
X131470500Y-56094440D01*
X131705817Y-56050162D01*
X131921941Y-55911090D01*
X132059494Y-55709774D01*
X132098414Y-55748694D01*
X132213046Y-55634062D01*
X132296384Y-55887953D01*
X132860806Y-56093590D01*
X133460958Y-56067579D01*
X133894616Y-55887953D01*
X133977955Y-55634060D01*
X133095500Y-54751605D01*
X133081358Y-54765748D01*
X132901753Y-54586143D01*
X132915895Y-54572000D01*
X133275105Y-54572000D01*
X134157560Y-55454455D01*
X134411453Y-55371116D01*
X134617090Y-54806694D01*
X134591079Y-54206542D01*
X134411453Y-53772884D01*
X134180272Y-53697000D01*
X138121810Y-53697000D01*
X138121810Y-55447000D01*
X138166088Y-55682317D01*
X138305160Y-55898441D01*
X138517360Y-56043431D01*
X138769250Y-56094440D01*
X140519250Y-56094440D01*
X140754567Y-56050162D01*
X140970691Y-55911090D01*
X141108244Y-55709774D01*
X141147164Y-55748694D01*
X141261796Y-55634062D01*
X141345134Y-55887953D01*
X141909556Y-56093590D01*
X142509708Y-56067579D01*
X142943366Y-55887953D01*
X143026705Y-55634060D01*
X142144250Y-54751605D01*
X142130108Y-54765748D01*
X141950503Y-54586143D01*
X141964645Y-54572000D01*
X142323855Y-54572000D01*
X143206310Y-55454455D01*
X143460203Y-55371116D01*
X143665840Y-54806694D01*
X143639829Y-54206542D01*
X143460203Y-53772884D01*
X143229022Y-53697000D01*
X147170560Y-53697000D01*
X147170560Y-55447000D01*
X147214838Y-55682317D01*
X147353910Y-55898441D01*
X147566110Y-56043431D01*
X147818000Y-56094440D01*
X149568000Y-56094440D01*
X149803317Y-56050162D01*
X150019441Y-55911090D01*
X150156994Y-55709774D01*
X150195914Y-55748694D01*
X150310546Y-55634062D01*
X150393884Y-55887953D01*
X150958306Y-56093590D01*
X151558458Y-56067579D01*
X151992116Y-55887953D01*
X152075455Y-55634060D01*
X151193000Y-54751605D01*
X151178858Y-54765748D01*
X150999253Y-54586143D01*
X151013395Y-54572000D01*
X151372605Y-54572000D01*
X152255060Y-55454455D01*
X152508953Y-55371116D01*
X152714590Y-54806694D01*
X152688579Y-54206542D01*
X152508953Y-53772884D01*
X152255060Y-53689545D01*
X151372605Y-54572000D01*
X151013395Y-54572000D01*
X150999253Y-54557858D01*
X151178858Y-54378253D01*
X151193000Y-54392395D01*
X152075455Y-53509940D01*
X151992116Y-53256047D01*
X151427694Y-53050410D01*
X150827542Y-53076421D01*
X150393884Y-53256047D01*
X150310546Y-53509938D01*
X150195914Y-53395306D01*
X150154864Y-53436356D01*
X150032090Y-53245559D01*
X149819890Y-53100569D01*
X149568000Y-53049560D01*
X147818000Y-53049560D01*
X147582683Y-53093838D01*
X147366559Y-53232910D01*
X147221569Y-53445110D01*
X147170560Y-53697000D01*
X143229022Y-53697000D01*
X143206310Y-53689545D01*
X142323855Y-54572000D01*
X141964645Y-54572000D01*
X141950503Y-54557858D01*
X142130108Y-54378253D01*
X142144250Y-54392395D01*
X143026705Y-53509940D01*
X142943366Y-53256047D01*
X142378944Y-53050410D01*
X141778792Y-53076421D01*
X141345134Y-53256047D01*
X141261796Y-53509938D01*
X141147164Y-53395306D01*
X141106114Y-53436356D01*
X140983340Y-53245559D01*
X140771140Y-53100569D01*
X140519250Y-53049560D01*
X138769250Y-53049560D01*
X138533933Y-53093838D01*
X138317809Y-53232910D01*
X138172819Y-53445110D01*
X138121810Y-53697000D01*
X134180272Y-53697000D01*
X134157560Y-53689545D01*
X133275105Y-54572000D01*
X132915895Y-54572000D01*
X132901753Y-54557858D01*
X133081358Y-54378253D01*
X133095500Y-54392395D01*
X133977955Y-53509940D01*
X133894616Y-53256047D01*
X133330194Y-53050410D01*
X132730042Y-53076421D01*
X132296384Y-53256047D01*
X132213046Y-53509938D01*
X132098414Y-53395306D01*
X132057364Y-53436356D01*
X131934590Y-53245559D01*
X131722390Y-53100569D01*
X131470500Y-53049560D01*
X129720500Y-53049560D01*
X129485183Y-53093838D01*
X129269059Y-53232910D01*
X129124069Y-53445110D01*
X129073060Y-53697000D01*
X125131522Y-53697000D01*
X125108810Y-53689545D01*
X124226355Y-54572000D01*
X123867145Y-54572000D01*
X123853003Y-54557858D01*
X124032608Y-54378253D01*
X124046750Y-54392395D01*
X124929205Y-53509940D01*
X124845866Y-53256047D01*
X124281444Y-53050410D01*
X123681292Y-53076421D01*
X123247634Y-53256047D01*
X123164296Y-53509938D01*
X123049664Y-53395306D01*
X123008614Y-53436356D01*
X122885840Y-53245559D01*
X122673640Y-53100569D01*
X122421750Y-53049560D01*
X120671750Y-53049560D01*
X120436433Y-53093838D01*
X120220309Y-53232910D01*
X120075319Y-53445110D01*
X120024310Y-53697000D01*
X116082772Y-53697000D01*
X116060060Y-53689545D01*
X115177605Y-54572000D01*
X114818395Y-54572000D01*
X114804253Y-54557858D01*
X114983858Y-54378253D01*
X114998000Y-54392395D01*
X115880455Y-53509940D01*
X115797116Y-53256047D01*
X115232694Y-53050410D01*
X114632542Y-53076421D01*
X114198884Y-53256047D01*
X114115546Y-53509938D01*
X114000914Y-53395306D01*
X113959864Y-53436356D01*
X113837090Y-53245559D01*
X113624890Y-53100569D01*
X113373000Y-53049560D01*
X111623000Y-53049560D01*
X111387683Y-53093838D01*
X111171559Y-53232910D01*
X111026569Y-53445110D01*
X110975560Y-53697000D01*
X80706255Y-53697000D01*
X80057671Y-53047284D01*
X78777251Y-52515606D01*
X77390832Y-52514397D01*
X76109485Y-53043838D01*
X75128284Y-54023329D01*
X74596606Y-55303749D01*
X74595397Y-56690168D01*
X75124838Y-57971515D01*
X76104329Y-58952716D01*
X77384749Y-59484394D01*
X78771168Y-59485603D01*
X80052515Y-58956162D01*
X80797669Y-58212307D01*
X80751560Y-58440000D01*
X80751560Y-59340000D01*
X80795838Y-59575317D01*
X80889000Y-59720095D01*
X80889000Y-62204000D01*
X80946852Y-62494839D01*
X81111599Y-62741401D01*
X81166088Y-62795891D01*
X81313141Y-62894148D01*
X81412651Y-62960638D01*
X81626121Y-63003100D01*
X81626121Y-63324139D01*
X81784871Y-63482889D01*
X82997721Y-63482889D01*
X82997721Y-63462889D01*
X83251721Y-63462889D01*
X83251721Y-63482889D01*
X83271721Y-63482889D01*
X83271721Y-63736889D01*
X83251721Y-63736889D01*
X83251721Y-64949739D01*
X83410471Y-65108489D01*
X83986687Y-65108489D01*
X84733632Y-65855434D01*
X84744852Y-65911839D01*
X84909599Y-66158401D01*
X95179878Y-76428680D01*
X95179838Y-76474167D01*
X95321883Y-76817943D01*
X95584673Y-77081192D01*
X95928201Y-77223838D01*
X96300167Y-77224162D01*
X96643943Y-77082117D01*
X96746719Y-76979521D01*
X104880000Y-85112802D01*
X104880000Y-96173537D01*
X104847808Y-96205673D01*
X104705162Y-96549201D01*
X104704838Y-96921167D01*
X104846883Y-97264943D01*
X105109673Y-97528192D01*
X105453201Y-97670838D01*
X105825167Y-97671162D01*
X106168943Y-97529117D01*
X106432192Y-97266327D01*
X106574838Y-96922799D01*
X106575162Y-96550833D01*
X106433117Y-96207057D01*
X106400000Y-96173882D01*
X106400000Y-85616802D01*
X106835211Y-86052013D01*
X106835211Y-99735589D01*
X106605384Y-99735389D01*
X106261608Y-99877434D01*
X105998359Y-100140224D01*
X105855713Y-100483752D01*
X105855389Y-100855718D01*
X105997434Y-101199494D01*
X106260224Y-101462743D01*
X106330550Y-101491945D01*
X106330550Y-102813313D01*
X106324853Y-102821839D01*
X106267001Y-103112678D01*
X106267001Y-104087199D01*
X106255599Y-104098601D01*
X106090852Y-104345163D01*
X106033000Y-104636002D01*
X106033000Y-106351451D01*
X105767000Y-106003273D01*
X105767000Y-104356000D01*
X105766401Y-104328417D01*
X105640000Y-101421194D01*
X105640000Y-101054000D01*
X105636152Y-101022975D01*
X105614379Y-100977506D01*
X105576632Y-100944091D01*
X104840701Y-100518025D01*
X103862000Y-99784000D01*
X103728051Y-99707029D01*
X103481000Y-99657000D01*
X103353475Y-99657000D01*
X103163632Y-99547091D01*
X103100000Y-99530000D01*
X86590000Y-99530000D01*
X86546414Y-99537714D01*
X82744208Y-100927000D01*
X66750000Y-100927000D01*
X66750000Y-79145363D01*
X81944855Y-79145363D01*
X82071708Y-79452372D01*
X82306393Y-79687466D01*
X82408698Y-79729947D01*
X82307628Y-79771708D01*
X82072534Y-80006393D01*
X81945145Y-80313179D01*
X81944855Y-80645363D01*
X82071708Y-80952372D01*
X82306393Y-81187466D01*
X82408698Y-81229947D01*
X82307628Y-81271708D01*
X82072534Y-81506393D01*
X81945145Y-81813179D01*
X81944855Y-82145363D01*
X82071708Y-82452372D01*
X82306393Y-82687466D01*
X82613179Y-82814855D01*
X82945363Y-82815145D01*
X83252372Y-82688292D01*
X83487466Y-82453607D01*
X83529947Y-82351302D01*
X83571708Y-82452372D01*
X83806393Y-82687466D01*
X84113179Y-82814855D01*
X84445363Y-82815145D01*
X84752372Y-82688292D01*
X84987466Y-82453607D01*
X85114855Y-82146821D01*
X85115145Y-81814637D01*
X84988292Y-81507628D01*
X84753607Y-81272534D01*
X84651302Y-81230053D01*
X84752372Y-81188292D01*
X84987466Y-80953607D01*
X85114855Y-80646821D01*
X85115145Y-80314637D01*
X84988292Y-80007628D01*
X84753607Y-79772534D01*
X84651302Y-79730053D01*
X84752372Y-79688292D01*
X84987466Y-79453607D01*
X85114855Y-79146821D01*
X85115145Y-78814637D01*
X84988292Y-78507628D01*
X84753607Y-78272534D01*
X84446821Y-78145145D01*
X84114637Y-78144855D01*
X83807628Y-78271708D01*
X83572534Y-78506393D01*
X83530053Y-78608698D01*
X83488292Y-78507628D01*
X83253607Y-78272534D01*
X82946821Y-78145145D01*
X82614637Y-78144855D01*
X82307628Y-78271708D01*
X82072534Y-78506393D01*
X81945145Y-78813179D01*
X81944855Y-79145363D01*
X66750000Y-79145363D01*
X66750000Y-66749000D01*
X70433560Y-66749000D01*
X70433560Y-68049000D01*
X70477838Y-68284317D01*
X70616910Y-68500441D01*
X70829110Y-68645431D01*
X71081000Y-68696440D01*
X72381000Y-68696440D01*
X72616317Y-68652162D01*
X72832441Y-68513090D01*
X72977431Y-68300890D01*
X72978012Y-68298016D01*
X76011590Y-68298016D01*
X76067271Y-68528611D01*
X76550078Y-68696622D01*
X77060428Y-68667083D01*
X77394729Y-68528611D01*
X77450410Y-68298016D01*
X76731000Y-67578605D01*
X76011590Y-68298016D01*
X72978012Y-68298016D01*
X73028440Y-68049000D01*
X73028440Y-67218078D01*
X75433378Y-67218078D01*
X75462917Y-67728428D01*
X75601389Y-68062729D01*
X75831984Y-68118410D01*
X76551395Y-67399000D01*
X76910605Y-67399000D01*
X77630016Y-68118410D01*
X77860611Y-68062729D01*
X78028622Y-67579922D01*
X77999083Y-67069572D01*
X77860611Y-66735271D01*
X77630016Y-66679590D01*
X76910605Y-67399000D01*
X76551395Y-67399000D01*
X75831984Y-66679590D01*
X75601389Y-66735271D01*
X75433378Y-67218078D01*
X73028440Y-67218078D01*
X73028440Y-66749000D01*
X72984162Y-66513683D01*
X72975347Y-66499984D01*
X76011590Y-66499984D01*
X76731000Y-67219395D01*
X77450410Y-66499984D01*
X77394729Y-66269389D01*
X76911922Y-66101378D01*
X76401572Y-66130917D01*
X76067271Y-66269389D01*
X76011590Y-66499984D01*
X72975347Y-66499984D01*
X72845090Y-66297559D01*
X72632890Y-66152569D01*
X72381000Y-66101560D01*
X71081000Y-66101560D01*
X70845683Y-66145838D01*
X70629559Y-66284910D01*
X70484569Y-66497110D01*
X70433560Y-66749000D01*
X66750000Y-66749000D01*
X66750000Y-63895639D01*
X81626121Y-63895639D01*
X81626121Y-64599798D01*
X81722794Y-64833187D01*
X81901422Y-65011816D01*
X82134811Y-65108489D01*
X82838971Y-65108489D01*
X82997721Y-64949739D01*
X82997721Y-63736889D01*
X81784871Y-63736889D01*
X81626121Y-63895639D01*
X66750000Y-63895639D01*
X66750000Y-55492750D01*
X67556510Y-55492750D01*
X67556510Y-56332799D01*
X67653183Y-56566188D01*
X67831811Y-56744817D01*
X67894013Y-56770582D01*
X67680928Y-57089486D01*
X67556510Y-57714978D01*
X67556510Y-57779022D01*
X67680928Y-58404514D01*
X68035241Y-58934781D01*
X68565508Y-59289094D01*
X69191000Y-59413512D01*
X69816492Y-59289094D01*
X70346759Y-58934781D01*
X70701072Y-58404514D01*
X70825490Y-57779022D01*
X70825490Y-57714978D01*
X70701072Y-57089486D01*
X70487987Y-56770582D01*
X70550189Y-56744817D01*
X70728817Y-56566188D01*
X70825490Y-56332799D01*
X70825490Y-55492750D01*
X70666740Y-55334000D01*
X69318000Y-55334000D01*
X69318000Y-55354000D01*
X69064000Y-55354000D01*
X69064000Y-55334000D01*
X67715260Y-55334000D01*
X67556510Y-55492750D01*
X66750000Y-55492750D01*
X66750000Y-54081201D01*
X67556510Y-54081201D01*
X67556510Y-54921250D01*
X67715260Y-55080000D01*
X69064000Y-55080000D01*
X69064000Y-53731260D01*
X69318000Y-53731260D01*
X69318000Y-55080000D01*
X70666740Y-55080000D01*
X70825490Y-54921250D01*
X70825490Y-54081201D01*
X70728817Y-53847812D01*
X70550189Y-53669183D01*
X70316800Y-53572510D01*
X69476750Y-53572510D01*
X69318000Y-53731260D01*
X69064000Y-53731260D01*
X68905250Y-53572510D01*
X68065200Y-53572510D01*
X67831811Y-53669183D01*
X67653183Y-53847812D01*
X67556510Y-54081201D01*
X66750000Y-54081201D01*
X66750000Y-53340000D01*
X66744955Y-53314638D01*
X66878152Y-52645011D01*
X67271830Y-52055830D01*
X67861011Y-51662152D01*
X68625931Y-51510000D01*
X162466069Y-51510000D01*
X163230989Y-51662152D01*
G36*
X132927366Y-118159243D02*
X132881817Y-118072000D01*
X131675000Y-118072000D01*
X131675000Y-118092000D01*
X131421000Y-118092000D01*
X131421000Y-118072000D01*
X131401000Y-118072000D01*
X131401000Y-117818000D01*
X131421000Y-117818000D01*
X131421000Y-117798000D01*
X131675000Y-117798000D01*
X131675000Y-117818000D01*
X132881817Y-117818000D01*
X133002958Y-117585974D01*
X132906712Y-117353601D01*
X133733008Y-117353601D01*
X132927366Y-118159243D01*
X132927366Y-118159243D01*
G37*
X132927366Y-118159243D02*
X132881817Y-118072000D01*
X131675000Y-118072000D01*
X131675000Y-118092000D01*
X131421000Y-118092000D01*
X131421000Y-118072000D01*
X131401000Y-118072000D01*
X131401000Y-117818000D01*
X131421000Y-117818000D01*
X131421000Y-117798000D01*
X131675000Y-117798000D01*
X131675000Y-117818000D01*
X132881817Y-117818000D01*
X133002958Y-117585974D01*
X132906712Y-117353601D01*
X133733008Y-117353601D01*
X132927366Y-118159243D01*
G36*
X121388000Y-112939394D02*
X121208394Y-113119000D01*
X116233606Y-113119000D01*
X115038000Y-111923394D01*
X115038000Y-110960000D01*
X115029315Y-110913841D01*
X115002035Y-110871447D01*
X114960410Y-110843006D01*
X114911000Y-110833000D01*
X112498000Y-110833000D01*
X112498000Y-109817000D01*
X115038000Y-109817000D01*
X115084159Y-109808315D01*
X115126553Y-109781035D01*
X115154994Y-109739410D01*
X115165000Y-109690000D01*
X115165000Y-108674000D01*
X116562000Y-108674000D01*
X116608159Y-108665315D01*
X116650553Y-108638035D01*
X116678994Y-108596410D01*
X116689000Y-108547000D01*
X116689000Y-103815065D01*
X116910065Y-103594000D01*
X121388000Y-103594000D01*
X121388000Y-112939394D01*
X121388000Y-112939394D01*
G37*
X121388000Y-112939394D02*
X121208394Y-113119000D01*
X116233606Y-113119000D01*
X115038000Y-111923394D01*
X115038000Y-110960000D01*
X115029315Y-110913841D01*
X115002035Y-110871447D01*
X114960410Y-110843006D01*
X114911000Y-110833000D01*
X112498000Y-110833000D01*
X112498000Y-109817000D01*
X115038000Y-109817000D01*
X115084159Y-109808315D01*
X115126553Y-109781035D01*
X115154994Y-109739410D01*
X115165000Y-109690000D01*
X115165000Y-108674000D01*
X116562000Y-108674000D01*
X116608159Y-108665315D01*
X116650553Y-108638035D01*
X116678994Y-108596410D01*
X116689000Y-108547000D01*
X116689000Y-103815065D01*
X116910065Y-103594000D01*
X121388000Y-103594000D01*
X121388000Y-112939394D01*
G36*
X116181000Y-108166000D02*
X114784000Y-108166000D01*
X114737841Y-108174685D01*
X114695447Y-108201965D01*
X114667006Y-108243590D01*
X114657000Y-108293000D01*
X114657000Y-109309000D01*
X112117000Y-109309000D01*
X112070841Y-109317685D01*
X112028447Y-109344965D01*
X112012424Y-109368415D01*
X111874026Y-109229776D01*
X112110384Y-108993418D01*
X112727846Y-108993418D01*
X113018685Y-108935566D01*
X113265247Y-108770819D01*
X115321401Y-106714665D01*
X115486148Y-106468103D01*
X115509699Y-106349704D01*
X115576192Y-106283327D01*
X115718838Y-105939799D01*
X115719162Y-105567833D01*
X115577117Y-105224057D01*
X115428692Y-105075373D01*
X116181000Y-104323065D01*
X116181000Y-108166000D01*
X116181000Y-108166000D01*
G37*
X116181000Y-108166000D02*
X114784000Y-108166000D01*
X114737841Y-108174685D01*
X114695447Y-108201965D01*
X114667006Y-108243590D01*
X114657000Y-108293000D01*
X114657000Y-109309000D01*
X112117000Y-109309000D01*
X112070841Y-109317685D01*
X112028447Y-109344965D01*
X112012424Y-109368415D01*
X111874026Y-109229776D01*
X112110384Y-108993418D01*
X112727846Y-108993418D01*
X113018685Y-108935566D01*
X113265247Y-108770819D01*
X115321401Y-106714665D01*
X115486148Y-106468103D01*
X115509699Y-106349704D01*
X115576192Y-106283327D01*
X115718838Y-105939799D01*
X115719162Y-105567833D01*
X115577117Y-105224057D01*
X115428692Y-105075373D01*
X116181000Y-104323065D01*
X116181000Y-108166000D01*
G36*
X103089197Y-71129999D02*
X102988805Y-71129999D01*
X101768405Y-69909599D01*
X101521843Y-69744852D01*
X101231004Y-69687000D01*
X100360473Y-69687000D01*
X100328337Y-69654808D01*
X99984809Y-69512162D01*
X99612843Y-69511838D01*
X99269067Y-69653883D01*
X99005818Y-69916673D01*
X98863172Y-70260201D01*
X98862848Y-70632167D01*
X99004893Y-70975943D01*
X99267683Y-71239192D01*
X99611211Y-71381838D01*
X99983177Y-71382162D01*
X100326953Y-71240117D01*
X100360128Y-71207000D01*
X100916202Y-71207000D01*
X102136602Y-72427400D01*
X102383164Y-72592147D01*
X102674003Y-72649999D01*
X122135201Y-72649999D01*
X122738878Y-73253676D01*
X122738838Y-73299163D01*
X122880883Y-73642939D01*
X123143673Y-73906188D01*
X123487201Y-74048834D01*
X123859167Y-74049158D01*
X124202943Y-73907113D01*
X124369272Y-73741074D01*
X124438000Y-73809802D01*
X124438000Y-78303024D01*
X121876585Y-75741609D01*
X121630023Y-75576862D01*
X121339184Y-75519010D01*
X119918463Y-75519010D01*
X119886327Y-75486818D01*
X119542799Y-75344172D01*
X119170833Y-75343848D01*
X118827057Y-75485893D01*
X118563808Y-75748683D01*
X118421162Y-76092211D01*
X118420838Y-76464177D01*
X118562883Y-76807953D01*
X118825673Y-77071202D01*
X119169201Y-77213848D01*
X119216119Y-77213889D01*
X119194133Y-77266836D01*
X119193809Y-77638802D01*
X119335854Y-77982578D01*
X119598644Y-78245827D01*
X119942172Y-78388473D01*
X120037520Y-78388556D01*
X120138131Y-78455782D01*
X120428970Y-78513634D01*
X120886832Y-78513634D01*
X126360057Y-83986859D01*
X126322608Y-84002332D01*
X126059359Y-84265122D01*
X125916713Y-84608650D01*
X125916668Y-84660450D01*
X122235056Y-84660450D01*
X113651435Y-76076829D01*
X113798192Y-75930327D01*
X113940838Y-75586799D01*
X113941162Y-75214833D01*
X113799117Y-74871057D01*
X113643333Y-74715001D01*
X121031843Y-74715001D01*
X121238673Y-74922192D01*
X121582201Y-75064838D01*
X121954167Y-75065162D01*
X122297943Y-74923117D01*
X122561192Y-74660327D01*
X122703838Y-74316799D01*
X122704162Y-73944833D01*
X122562117Y-73601057D01*
X122299327Y-73337808D01*
X122178014Y-73287434D01*
X122094791Y-73204211D01*
X122074744Y-73190816D01*
X121807676Y-73012368D01*
X121751485Y-73001191D01*
X121469001Y-72945000D01*
X121468996Y-72945001D01*
X102023580Y-72945001D01*
X101612789Y-72534209D01*
X101612786Y-72534207D01*
X101529745Y-72451165D01*
X101480117Y-72331057D01*
X101217327Y-72067808D01*
X100873799Y-71925162D01*
X100501833Y-71924838D01*
X100158057Y-72066883D01*
X99894808Y-72329673D01*
X99752162Y-72673201D01*
X99751838Y-73045167D01*
X99893883Y-73388943D01*
X100156673Y-73652192D01*
X100277987Y-73702566D01*
X100361207Y-73785786D01*
X100361209Y-73785789D01*
X101031209Y-74455788D01*
X101031211Y-74455791D01*
X101318326Y-74647634D01*
X101374517Y-74658811D01*
X101657001Y-74715002D01*
X101657006Y-74715001D01*
X107359424Y-74715001D01*
X105231168Y-76843256D01*
X105111061Y-76892883D01*
X104847812Y-77155673D01*
X104705166Y-77499201D01*
X104704842Y-77871167D01*
X104846887Y-78214943D01*
X105109677Y-78478192D01*
X105453205Y-78620838D01*
X105825171Y-78621162D01*
X106168947Y-78479117D01*
X106432196Y-78216327D01*
X106482570Y-78095014D01*
X108973582Y-75604001D01*
X110662021Y-75604001D01*
X110661930Y-75708589D01*
X110803975Y-76052365D01*
X110852804Y-76101279D01*
X110894944Y-76313129D01*
X111059691Y-76559691D01*
X120907862Y-86407862D01*
X121154424Y-86572609D01*
X121445263Y-86630461D01*
X122109450Y-86630461D01*
X122104160Y-86643201D01*
X122104119Y-86690077D01*
X117610133Y-91184063D01*
X117445386Y-91430625D01*
X117387534Y-91721464D01*
X117387534Y-95018634D01*
X117337361Y-95018590D01*
X116993585Y-95160635D01*
X116926106Y-95227997D01*
X116807425Y-95251604D01*
X116560863Y-95416351D01*
X116360124Y-95617090D01*
X116195377Y-95863652D01*
X116137525Y-96154491D01*
X116137525Y-96268353D01*
X110309599Y-102096279D01*
X110144852Y-102342841D01*
X110087000Y-102633680D01*
X110087000Y-102656991D01*
X110039162Y-102772197D01*
X110038838Y-103144163D01*
X110180883Y-103487939D01*
X110443673Y-103751188D01*
X110456890Y-103756676D01*
X110387559Y-103923642D01*
X110387235Y-104295608D01*
X110529280Y-104639384D01*
X110586418Y-104696622D01*
X109608227Y-105674813D01*
X109591066Y-105681904D01*
X109327817Y-105944694D01*
X109311002Y-105985189D01*
X109311002Y-103504154D01*
X109401421Y-103413735D01*
X109566168Y-103167174D01*
X109624020Y-102876334D01*
X109624020Y-89896076D01*
X109566168Y-89605237D01*
X109401421Y-89358675D01*
X109368928Y-89326182D01*
X109369162Y-89057833D01*
X109227117Y-88714057D01*
X108964327Y-88450808D01*
X108843944Y-88400820D01*
X108843944Y-82669944D01*
X108815519Y-82527042D01*
X108786092Y-82379104D01*
X108621345Y-82132543D01*
X97572242Y-71083440D01*
X97325680Y-70918693D01*
X97315162Y-70916601D01*
X95233322Y-68834761D01*
X95233322Y-65011807D01*
X95251232Y-65023774D01*
X95824721Y-65137848D01*
X96398210Y-65023774D01*
X96748749Y-64789551D01*
X103089197Y-71129999D01*
X103089197Y-71129999D01*
G37*
X103089197Y-71129999D02*
X102988805Y-71129999D01*
X101768405Y-69909599D01*
X101521843Y-69744852D01*
X101231004Y-69687000D01*
X100360473Y-69687000D01*
X100328337Y-69654808D01*
X99984809Y-69512162D01*
X99612843Y-69511838D01*
X99269067Y-69653883D01*
X99005818Y-69916673D01*
X98863172Y-70260201D01*
X98862848Y-70632167D01*
X99004893Y-70975943D01*
X99267683Y-71239192D01*
X99611211Y-71381838D01*
X99983177Y-71382162D01*
X100326953Y-71240117D01*
X100360128Y-71207000D01*
X100916202Y-71207000D01*
X102136602Y-72427400D01*
X102383164Y-72592147D01*
X102674003Y-72649999D01*
X122135201Y-72649999D01*
X122738878Y-73253676D01*
X122738838Y-73299163D01*
X122880883Y-73642939D01*
X123143673Y-73906188D01*
X123487201Y-74048834D01*
X123859167Y-74049158D01*
X124202943Y-73907113D01*
X124369272Y-73741074D01*
X124438000Y-73809802D01*
X124438000Y-78303024D01*
X121876585Y-75741609D01*
X121630023Y-75576862D01*
X121339184Y-75519010D01*
X119918463Y-75519010D01*
X119886327Y-75486818D01*
X119542799Y-75344172D01*
X119170833Y-75343848D01*
X118827057Y-75485893D01*
X118563808Y-75748683D01*
X118421162Y-76092211D01*
X118420838Y-76464177D01*
X118562883Y-76807953D01*
X118825673Y-77071202D01*
X119169201Y-77213848D01*
X119216119Y-77213889D01*
X119194133Y-77266836D01*
X119193809Y-77638802D01*
X119335854Y-77982578D01*
X119598644Y-78245827D01*
X119942172Y-78388473D01*
X120037520Y-78388556D01*
X120138131Y-78455782D01*
X120428970Y-78513634D01*
X120886832Y-78513634D01*
X126360057Y-83986859D01*
X126322608Y-84002332D01*
X126059359Y-84265122D01*
X125916713Y-84608650D01*
X125916668Y-84660450D01*
X122235056Y-84660450D01*
X113651435Y-76076829D01*
X113798192Y-75930327D01*
X113940838Y-75586799D01*
X113941162Y-75214833D01*
X113799117Y-74871057D01*
X113643333Y-74715001D01*
X121031843Y-74715001D01*
X121238673Y-74922192D01*
X121582201Y-75064838D01*
X121954167Y-75065162D01*
X122297943Y-74923117D01*
X122561192Y-74660327D01*
X122703838Y-74316799D01*
X122704162Y-73944833D01*
X122562117Y-73601057D01*
X122299327Y-73337808D01*
X122178014Y-73287434D01*
X122094791Y-73204211D01*
X122074744Y-73190816D01*
X121807676Y-73012368D01*
X121751485Y-73001191D01*
X121469001Y-72945000D01*
X121468996Y-72945001D01*
X102023580Y-72945001D01*
X101612789Y-72534209D01*
X101612786Y-72534207D01*
X101529745Y-72451165D01*
X101480117Y-72331057D01*
X101217327Y-72067808D01*
X100873799Y-71925162D01*
X100501833Y-71924838D01*
X100158057Y-72066883D01*
X99894808Y-72329673D01*
X99752162Y-72673201D01*
X99751838Y-73045167D01*
X99893883Y-73388943D01*
X100156673Y-73652192D01*
X100277987Y-73702566D01*
X100361207Y-73785786D01*
X100361209Y-73785789D01*
X101031209Y-74455788D01*
X101031211Y-74455791D01*
X101318326Y-74647634D01*
X101374517Y-74658811D01*
X101657001Y-74715002D01*
X101657006Y-74715001D01*
X107359424Y-74715001D01*
X105231168Y-76843256D01*
X105111061Y-76892883D01*
X104847812Y-77155673D01*
X104705166Y-77499201D01*
X104704842Y-77871167D01*
X104846887Y-78214943D01*
X105109677Y-78478192D01*
X105453205Y-78620838D01*
X105825171Y-78621162D01*
X106168947Y-78479117D01*
X106432196Y-78216327D01*
X106482570Y-78095014D01*
X108973582Y-75604001D01*
X110662021Y-75604001D01*
X110661930Y-75708589D01*
X110803975Y-76052365D01*
X110852804Y-76101279D01*
X110894944Y-76313129D01*
X111059691Y-76559691D01*
X120907862Y-86407862D01*
X121154424Y-86572609D01*
X121445263Y-86630461D01*
X122109450Y-86630461D01*
X122104160Y-86643201D01*
X122104119Y-86690077D01*
X117610133Y-91184063D01*
X117445386Y-91430625D01*
X117387534Y-91721464D01*
X117387534Y-95018634D01*
X117337361Y-95018590D01*
X116993585Y-95160635D01*
X116926106Y-95227997D01*
X116807425Y-95251604D01*
X116560863Y-95416351D01*
X116360124Y-95617090D01*
X116195377Y-95863652D01*
X116137525Y-96154491D01*
X116137525Y-96268353D01*
X110309599Y-102096279D01*
X110144852Y-102342841D01*
X110087000Y-102633680D01*
X110087000Y-102656991D01*
X110039162Y-102772197D01*
X110038838Y-103144163D01*
X110180883Y-103487939D01*
X110443673Y-103751188D01*
X110456890Y-103756676D01*
X110387559Y-103923642D01*
X110387235Y-104295608D01*
X110529280Y-104639384D01*
X110586418Y-104696622D01*
X109608227Y-105674813D01*
X109591066Y-105681904D01*
X109327817Y-105944694D01*
X109311002Y-105985189D01*
X109311002Y-103504154D01*
X109401421Y-103413735D01*
X109566168Y-103167174D01*
X109624020Y-102876334D01*
X109624020Y-89896076D01*
X109566168Y-89605237D01*
X109401421Y-89358675D01*
X109368928Y-89326182D01*
X109369162Y-89057833D01*
X109227117Y-88714057D01*
X108964327Y-88450808D01*
X108843944Y-88400820D01*
X108843944Y-82669944D01*
X108815519Y-82527042D01*
X108786092Y-82379104D01*
X108621345Y-82132543D01*
X97572242Y-71083440D01*
X97325680Y-70918693D01*
X97315162Y-70916601D01*
X95233322Y-68834761D01*
X95233322Y-65011807D01*
X95251232Y-65023774D01*
X95824721Y-65137848D01*
X96398210Y-65023774D01*
X96748749Y-64789551D01*
X103089197Y-71129999D01*
G36*
X153773000Y-90184606D02*
X153773000Y-95663820D01*
X152453902Y-96863000D01*
X146713606Y-96863000D01*
X145899000Y-96048394D01*
X145899000Y-95659552D01*
X145910104Y-95632811D01*
X145910428Y-95260845D01*
X145899000Y-95233187D01*
X145899000Y-93815000D01*
X145894223Y-93780497D01*
X145871170Y-93735664D01*
X145743449Y-93576012D01*
X145676117Y-93413057D01*
X145413327Y-93149808D01*
X145397092Y-93143067D01*
X145363170Y-93100664D01*
X145313410Y-93063006D01*
X145264000Y-93053000D01*
X145180189Y-93053000D01*
X145069799Y-93007162D01*
X144697833Y-93006838D01*
X144586112Y-93053000D01*
X143256789Y-93053000D01*
X142240789Y-92037000D01*
X145264000Y-92037000D01*
X145324491Y-92021669D01*
X145363170Y-91989336D01*
X145871170Y-91354336D01*
X145888994Y-91324410D01*
X145899000Y-91275000D01*
X145899000Y-89422606D01*
X145958449Y-89363157D01*
X146173943Y-89274117D01*
X146437192Y-89011327D01*
X146527313Y-88794293D01*
X147094756Y-88226850D01*
X151815244Y-88226850D01*
X153773000Y-90184606D01*
X153773000Y-90184606D01*
G37*
X153773000Y-90184606D02*
X153773000Y-95663820D01*
X152453902Y-96863000D01*
X146713606Y-96863000D01*
X145899000Y-96048394D01*
X145899000Y-95659552D01*
X145910104Y-95632811D01*
X145910428Y-95260845D01*
X145899000Y-95233187D01*
X145899000Y-93815000D01*
X145894223Y-93780497D01*
X145871170Y-93735664D01*
X145743449Y-93576012D01*
X145676117Y-93413057D01*
X145413327Y-93149808D01*
X145397092Y-93143067D01*
X145363170Y-93100664D01*
X145313410Y-93063006D01*
X145264000Y-93053000D01*
X145180189Y-93053000D01*
X145069799Y-93007162D01*
X144697833Y-93006838D01*
X144586112Y-93053000D01*
X143256789Y-93053000D01*
X142240789Y-92037000D01*
X145264000Y-92037000D01*
X145324491Y-92021669D01*
X145363170Y-91989336D01*
X145871170Y-91354336D01*
X145888994Y-91324410D01*
X145899000Y-91275000D01*
X145899000Y-89422606D01*
X145958449Y-89363157D01*
X146173943Y-89274117D01*
X146437192Y-89011327D01*
X146527313Y-88794293D01*
X147094756Y-88226850D01*
X151815244Y-88226850D01*
X153773000Y-90184606D01*
G36*
X128002268Y-88550070D02*
X128002268Y-91657710D01*
X127970076Y-91689846D01*
X127827430Y-92033374D01*
X127827106Y-92405340D01*
X127969151Y-92749116D01*
X128082076Y-92862238D01*
X128081813Y-93163722D01*
X128223858Y-93507498D01*
X128325647Y-93609465D01*
X126620148Y-95314964D01*
X124756119Y-95314964D01*
X124723983Y-95282772D01*
X124380455Y-95140126D01*
X124008489Y-95139802D01*
X123664713Y-95281847D01*
X123401464Y-95544637D01*
X123297880Y-95794093D01*
X123204384Y-95700597D01*
X122957822Y-95535850D01*
X122666983Y-95477998D01*
X122063317Y-95477998D01*
X122180192Y-95361327D01*
X122322838Y-95017799D01*
X122323162Y-94645833D01*
X122181117Y-94302057D01*
X122123979Y-94244819D01*
X125974400Y-90394398D01*
X126139147Y-90147836D01*
X126196999Y-89856997D01*
X126196999Y-88825453D01*
X126229191Y-88793317D01*
X126371837Y-88449789D01*
X126372161Y-88077823D01*
X126230116Y-87734047D01*
X125967326Y-87470798D01*
X125623798Y-87328152D01*
X125251832Y-87327828D01*
X125244003Y-87331063D01*
X125244158Y-87152833D01*
X125102113Y-86809057D01*
X124923828Y-86630461D01*
X126082659Y-86630461D01*
X128002268Y-88550070D01*
X128002268Y-88550070D01*
G37*
X128002268Y-88550070D02*
X128002268Y-91657710D01*
X127970076Y-91689846D01*
X127827430Y-92033374D01*
X127827106Y-92405340D01*
X127969151Y-92749116D01*
X128082076Y-92862238D01*
X128081813Y-93163722D01*
X128223858Y-93507498D01*
X128325647Y-93609465D01*
X126620148Y-95314964D01*
X124756119Y-95314964D01*
X124723983Y-95282772D01*
X124380455Y-95140126D01*
X124008489Y-95139802D01*
X123664713Y-95281847D01*
X123401464Y-95544637D01*
X123297880Y-95794093D01*
X123204384Y-95700597D01*
X122957822Y-95535850D01*
X122666983Y-95477998D01*
X122063317Y-95477998D01*
X122180192Y-95361327D01*
X122322838Y-95017799D01*
X122323162Y-94645833D01*
X122181117Y-94302057D01*
X122123979Y-94244819D01*
X125974400Y-90394398D01*
X126139147Y-90147836D01*
X126196999Y-89856997D01*
X126196999Y-88825453D01*
X126229191Y-88793317D01*
X126371837Y-88449789D01*
X126372161Y-88077823D01*
X126230116Y-87734047D01*
X125967326Y-87470798D01*
X125623798Y-87328152D01*
X125251832Y-87327828D01*
X125244003Y-87331063D01*
X125244158Y-87152833D01*
X125102113Y-86809057D01*
X124923828Y-86630461D01*
X126082659Y-86630461D01*
X128002268Y-88550070D01*
G36*
X145391000Y-90976452D02*
X144948961Y-91529000D01*
X141732789Y-91529000D01*
X141586386Y-91382597D01*
X141339824Y-91217850D01*
X141048985Y-91159998D01*
X140865804Y-91159998D01*
X141133802Y-90892000D01*
X143994000Y-90892000D01*
X144284839Y-90834148D01*
X144531401Y-90669401D01*
X145391000Y-89809802D01*
X145391000Y-90976452D01*
X145391000Y-90976452D01*
G37*
X145391000Y-90976452D02*
X144948961Y-91529000D01*
X141732789Y-91529000D01*
X141586386Y-91382597D01*
X141339824Y-91217850D01*
X141048985Y-91159998D01*
X140865804Y-91159998D01*
X141133802Y-90892000D01*
X143994000Y-90892000D01*
X144284839Y-90834148D01*
X144531401Y-90669401D01*
X145391000Y-89809802D01*
X145391000Y-90976452D01*
G36*
X159791585Y-83355670D02*
X160106366Y-83566000D01*
X159791585Y-83776330D01*
X159466729Y-84262511D01*
X159352655Y-84836000D01*
X159428334Y-85216464D01*
X158457796Y-86187002D01*
X140460862Y-86187002D01*
X140390071Y-86139701D01*
X140332436Y-86128236D01*
X143404672Y-83056000D01*
X159591352Y-83056000D01*
X159791585Y-83355670D01*
X159791585Y-83355670D01*
G37*
X159791585Y-83355670D02*
X160106366Y-83566000D01*
X159791585Y-83776330D01*
X159466729Y-84262511D01*
X159352655Y-84836000D01*
X159428334Y-85216464D01*
X158457796Y-86187002D01*
X140460862Y-86187002D01*
X140390071Y-86139701D01*
X140332436Y-86128236D01*
X143404672Y-83056000D01*
X159591352Y-83056000D01*
X159791585Y-83355670D01*
G36*
X116470049Y-69142440D02*
X116716611Y-69307187D01*
X117007450Y-69365039D01*
X126729158Y-69365039D01*
X126184599Y-69909598D01*
X126019852Y-70156160D01*
X125962000Y-70446999D01*
X125962000Y-72295198D01*
X124087381Y-70420579D01*
X123840819Y-70255832D01*
X123549980Y-70197980D01*
X115783202Y-70197980D01*
X115884590Y-69919694D01*
X115858579Y-69319542D01*
X115678953Y-68885884D01*
X115425060Y-68802545D01*
X114542605Y-69685000D01*
X114556748Y-69699143D01*
X114377143Y-69878748D01*
X114363000Y-69864605D01*
X114348858Y-69878748D01*
X114169253Y-69699143D01*
X114183395Y-69685000D01*
X113300940Y-68802545D01*
X113152352Y-68851318D01*
X113143862Y-68830771D01*
X112936394Y-68622940D01*
X113480545Y-68622940D01*
X114363000Y-69505395D01*
X115245455Y-68622940D01*
X115162116Y-68369047D01*
X114597694Y-68163410D01*
X113997542Y-68189421D01*
X113563884Y-68369047D01*
X113480545Y-68622940D01*
X112936394Y-68622940D01*
X112719463Y-68405630D01*
X112164675Y-68175262D01*
X111563960Y-68174738D01*
X111008771Y-68404138D01*
X110839897Y-68572717D01*
X110702090Y-68358559D01*
X110489890Y-68213569D01*
X110238000Y-68162560D01*
X108488000Y-68162560D01*
X108252683Y-68206838D01*
X108036559Y-68345910D01*
X107891569Y-68558110D01*
X107840560Y-68810000D01*
X107840560Y-70197980D01*
X105195782Y-70197980D01*
X101251802Y-66254000D01*
X113581609Y-66254000D01*
X116470049Y-69142440D01*
X116470049Y-69142440D01*
G37*
X116470049Y-69142440D02*
X116716611Y-69307187D01*
X117007450Y-69365039D01*
X126729158Y-69365039D01*
X126184599Y-69909598D01*
X126019852Y-70156160D01*
X125962000Y-70446999D01*
X125962000Y-72295198D01*
X124087381Y-70420579D01*
X123840819Y-70255832D01*
X123549980Y-70197980D01*
X115783202Y-70197980D01*
X115884590Y-69919694D01*
X115858579Y-69319542D01*
X115678953Y-68885884D01*
X115425060Y-68802545D01*
X114542605Y-69685000D01*
X114556748Y-69699143D01*
X114377143Y-69878748D01*
X114363000Y-69864605D01*
X114348858Y-69878748D01*
X114169253Y-69699143D01*
X114183395Y-69685000D01*
X113300940Y-68802545D01*
X113152352Y-68851318D01*
X113143862Y-68830771D01*
X112936394Y-68622940D01*
X113480545Y-68622940D01*
X114363000Y-69505395D01*
X115245455Y-68622940D01*
X115162116Y-68369047D01*
X114597694Y-68163410D01*
X113997542Y-68189421D01*
X113563884Y-68369047D01*
X113480545Y-68622940D01*
X112936394Y-68622940D01*
X112719463Y-68405630D01*
X112164675Y-68175262D01*
X111563960Y-68174738D01*
X111008771Y-68404138D01*
X110839897Y-68572717D01*
X110702090Y-68358559D01*
X110489890Y-68213569D01*
X110238000Y-68162560D01*
X108488000Y-68162560D01*
X108252683Y-68206838D01*
X108036559Y-68345910D01*
X107891569Y-68558110D01*
X107840560Y-68810000D01*
X107840560Y-70197980D01*
X105195782Y-70197980D01*
X101251802Y-66254000D01*
X113581609Y-66254000D01*
X116470049Y-69142440D01*
G36*
X104497000Y-101761945D02*
X104497000Y-114953610D01*
X100492690Y-117456304D01*
X100471447Y-117472965D01*
X100443006Y-117514590D01*
X100433000Y-117564000D01*
X100433000Y-128613000D01*
X67763959Y-128613000D01*
X67413937Y-128379123D01*
X66936556Y-127782397D01*
X66878152Y-127694989D01*
X66744955Y-127025362D01*
X66750000Y-127000000D01*
X66750000Y-122610168D01*
X70174397Y-122610168D01*
X70703838Y-123891515D01*
X71683329Y-124872716D01*
X72963749Y-125404394D01*
X74350168Y-125405603D01*
X75631515Y-124876162D01*
X76612716Y-123896671D01*
X77144394Y-122616251D01*
X77145603Y-121229832D01*
X76694859Y-120138948D01*
X76927582Y-120225401D01*
X77577377Y-120201341D01*
X78065958Y-119998965D01*
X78164557Y-119732163D01*
X77192000Y-118759605D01*
X77177858Y-118773748D01*
X76998253Y-118594143D01*
X77012395Y-118580000D01*
X77371605Y-118580000D01*
X78344163Y-119552557D01*
X78380099Y-119539276D01*
X78804927Y-119964846D01*
X79405453Y-120214206D01*
X80055694Y-120214774D01*
X80656655Y-119966462D01*
X81002199Y-119621520D01*
X81344927Y-119964846D01*
X81945453Y-120214206D01*
X82595694Y-120214774D01*
X83196655Y-119966462D01*
X83656846Y-119507073D01*
X83906206Y-118906547D01*
X83906774Y-118256306D01*
X83658462Y-117655345D01*
X83199073Y-117195154D01*
X82598547Y-116945794D01*
X81948306Y-116945226D01*
X81347345Y-117193538D01*
X81001801Y-117538480D01*
X80659073Y-117195154D01*
X80058547Y-116945794D01*
X79408306Y-116945226D01*
X78807345Y-117193538D01*
X78379599Y-117620539D01*
X78344163Y-117607443D01*
X77371605Y-118580000D01*
X77012395Y-118580000D01*
X76039837Y-117607443D01*
X75773035Y-117706042D01*
X75546599Y-118315582D01*
X75569700Y-118939475D01*
X74356251Y-118435606D01*
X72969832Y-118434397D01*
X71688485Y-118963838D01*
X70707284Y-119943329D01*
X70175606Y-121223749D01*
X70174397Y-122610168D01*
X66750000Y-122610168D01*
X66750000Y-117427837D01*
X76219443Y-117427837D01*
X77192000Y-118400395D01*
X78164557Y-117427837D01*
X78065958Y-117161035D01*
X77456418Y-116934599D01*
X76806623Y-116958659D01*
X76318042Y-117161035D01*
X76219443Y-117427837D01*
X66750000Y-117427837D01*
X66750000Y-110064000D01*
X68397560Y-110064000D01*
X68397560Y-112364000D01*
X68441838Y-112599317D01*
X68580910Y-112815441D01*
X68793110Y-112960431D01*
X69045000Y-113011440D01*
X70345000Y-113011440D01*
X70580317Y-112967162D01*
X70796441Y-112828090D01*
X70941431Y-112615890D01*
X70992440Y-112364000D01*
X70992440Y-110823319D01*
X71193110Y-110960431D01*
X71445000Y-111011440D01*
X72745000Y-111011440D01*
X72980317Y-110967162D01*
X73196441Y-110828090D01*
X73341431Y-110615890D01*
X73392440Y-110364000D01*
X73392440Y-110064000D01*
X74497560Y-110064000D01*
X74497560Y-112364000D01*
X74541838Y-112599317D01*
X74680910Y-112815441D01*
X74893110Y-112960431D01*
X75145000Y-113011440D01*
X76445000Y-113011440D01*
X76680317Y-112967162D01*
X76896441Y-112828090D01*
X77041431Y-112615890D01*
X77092440Y-112364000D01*
X77092440Y-110999000D01*
X77309250Y-110999000D01*
X77468000Y-110840250D01*
X77468000Y-109341000D01*
X77722000Y-109341000D01*
X77722000Y-110840250D01*
X77880750Y-110999000D01*
X78371309Y-110999000D01*
X78604698Y-110902327D01*
X78783327Y-110723699D01*
X78880000Y-110490310D01*
X78880000Y-110064000D01*
X79997560Y-110064000D01*
X79997560Y-112364000D01*
X80041838Y-112599317D01*
X80180910Y-112815441D01*
X80393110Y-112960431D01*
X80645000Y-113011440D01*
X81945000Y-113011440D01*
X82180317Y-112967162D01*
X82396441Y-112828090D01*
X82541431Y-112615890D01*
X82592440Y-112364000D01*
X82592440Y-110064000D01*
X82548162Y-109828683D01*
X82409090Y-109612559D01*
X82196890Y-109467569D01*
X81945000Y-109416560D01*
X80645000Y-109416560D01*
X80409683Y-109460838D01*
X80193559Y-109599910D01*
X80048569Y-109812110D01*
X79997560Y-110064000D01*
X78880000Y-110064000D01*
X78880000Y-109499750D01*
X78721250Y-109341000D01*
X77722000Y-109341000D01*
X77468000Y-109341000D01*
X76468750Y-109341000D01*
X76393190Y-109416560D01*
X75145000Y-109416560D01*
X74909683Y-109460838D01*
X74693559Y-109599910D01*
X74548569Y-109812110D01*
X74497560Y-110064000D01*
X73392440Y-110064000D01*
X73392440Y-108064000D01*
X73368674Y-107937690D01*
X76310000Y-107937690D01*
X76310000Y-108928250D01*
X76468750Y-109087000D01*
X77468000Y-109087000D01*
X77468000Y-107587750D01*
X77722000Y-107587750D01*
X77722000Y-109087000D01*
X78721250Y-109087000D01*
X78880000Y-108928250D01*
X78880000Y-107937690D01*
X78783327Y-107704301D01*
X78604698Y-107525673D01*
X78371309Y-107429000D01*
X77880750Y-107429000D01*
X77722000Y-107587750D01*
X77468000Y-107587750D01*
X77309250Y-107429000D01*
X76818691Y-107429000D01*
X76585302Y-107525673D01*
X76406673Y-107704301D01*
X76310000Y-107937690D01*
X73368674Y-107937690D01*
X73348162Y-107828683D01*
X73209090Y-107612559D01*
X72996890Y-107467569D01*
X72745000Y-107416560D01*
X71445000Y-107416560D01*
X71209683Y-107460838D01*
X70993559Y-107599910D01*
X70848569Y-107812110D01*
X70797560Y-108064000D01*
X70797560Y-109604681D01*
X70596890Y-109467569D01*
X70345000Y-109416560D01*
X69045000Y-109416560D01*
X68809683Y-109460838D01*
X68593559Y-109599910D01*
X68448569Y-109812110D01*
X68397560Y-110064000D01*
X66750000Y-110064000D01*
X66750000Y-107335167D01*
X100132840Y-107335167D01*
X100274885Y-107678943D01*
X100308000Y-107712116D01*
X100308000Y-109037582D01*
X100365852Y-109328421D01*
X100530599Y-109574983D01*
X101399719Y-110444103D01*
X101399679Y-110489590D01*
X101541724Y-110833366D01*
X101582610Y-110874324D01*
X101540933Y-110916001D01*
X101494999Y-110916001D01*
X101204160Y-110973853D01*
X101103787Y-111040920D01*
X101009833Y-111040838D01*
X100666057Y-111182883D01*
X100402808Y-111445673D01*
X100260162Y-111789201D01*
X100259838Y-112161167D01*
X100401883Y-112504943D01*
X100664673Y-112768192D01*
X101008201Y-112910838D01*
X101380167Y-112911162D01*
X101723943Y-112769117D01*
X101987192Y-112506327D01*
X102030859Y-112401166D01*
X102146574Y-112378149D01*
X102393136Y-112213402D01*
X103268439Y-111338099D01*
X103313926Y-111338139D01*
X103657702Y-111196094D01*
X103920951Y-110933304D01*
X104063597Y-110589776D01*
X104063921Y-110217810D01*
X103921876Y-109874034D01*
X103659086Y-109610785D01*
X103315558Y-109468139D01*
X102943592Y-109467815D01*
X102850668Y-109506210D01*
X102521640Y-109369585D01*
X102474764Y-109369544D01*
X101828000Y-108722780D01*
X101828000Y-107712465D01*
X101860194Y-107680327D01*
X101936255Y-107497153D01*
X101943147Y-107486838D01*
X101945546Y-107474778D01*
X102002840Y-107336799D01*
X102003164Y-106964833D01*
X101861119Y-106621057D01*
X101598329Y-106357808D01*
X101254801Y-106215162D01*
X100882835Y-106214838D01*
X100539059Y-106356883D01*
X100275810Y-106619673D01*
X100133164Y-106963201D01*
X100132840Y-107335167D01*
X66750000Y-107335167D01*
X66750000Y-104873163D01*
X76346443Y-104873163D01*
X76445042Y-105139965D01*
X77054582Y-105366401D01*
X77704377Y-105342341D01*
X78192958Y-105139965D01*
X78291557Y-104873163D01*
X77319000Y-103900605D01*
X76346443Y-104873163D01*
X66750000Y-104873163D01*
X66750000Y-103456582D01*
X75673599Y-103456582D01*
X75697659Y-104106377D01*
X75900035Y-104594958D01*
X76166837Y-104693557D01*
X77139395Y-103721000D01*
X76166837Y-102748443D01*
X75900035Y-102847042D01*
X75673599Y-103456582D01*
X66750000Y-103456582D01*
X66750000Y-102197000D01*
X76698620Y-102197000D01*
X76445042Y-102302035D01*
X76346443Y-102568837D01*
X77319000Y-103541395D01*
X78291557Y-102568837D01*
X78192958Y-102302035D01*
X77910216Y-102197000D01*
X79267212Y-102197000D01*
X78934345Y-102334538D01*
X78506599Y-102761539D01*
X78471163Y-102748443D01*
X77498605Y-103721000D01*
X78471163Y-104693557D01*
X78507099Y-104680276D01*
X78931927Y-105105846D01*
X79532453Y-105355206D01*
X80182694Y-105355774D01*
X80783655Y-105107462D01*
X81129199Y-104762520D01*
X81471927Y-105105846D01*
X82072453Y-105355206D01*
X82722694Y-105355774D01*
X83323655Y-105107462D01*
X83783846Y-104648073D01*
X84033206Y-104047547D01*
X84033774Y-103397306D01*
X83785462Y-102796345D01*
X83326073Y-102336154D01*
X82990953Y-102197000D01*
X83655682Y-102197000D01*
X83692406Y-102191574D01*
X87878761Y-100927000D01*
X103065665Y-100927000D01*
X104497000Y-101761945D01*
X104497000Y-101761945D01*
G37*
X104497000Y-101761945D02*
X104497000Y-114953610D01*
X100492690Y-117456304D01*
X100471447Y-117472965D01*
X100443006Y-117514590D01*
X100433000Y-117564000D01*
X100433000Y-128613000D01*
X67763959Y-128613000D01*
X67413937Y-128379123D01*
X66936556Y-127782397D01*
X66878152Y-127694989D01*
X66744955Y-127025362D01*
X66750000Y-127000000D01*
X66750000Y-122610168D01*
X70174397Y-122610168D01*
X70703838Y-123891515D01*
X71683329Y-124872716D01*
X72963749Y-125404394D01*
X74350168Y-125405603D01*
X75631515Y-124876162D01*
X76612716Y-123896671D01*
X77144394Y-122616251D01*
X77145603Y-121229832D01*
X76694859Y-120138948D01*
X76927582Y-120225401D01*
X77577377Y-120201341D01*
X78065958Y-119998965D01*
X78164557Y-119732163D01*
X77192000Y-118759605D01*
X77177858Y-118773748D01*
X76998253Y-118594143D01*
X77012395Y-118580000D01*
X77371605Y-118580000D01*
X78344163Y-119552557D01*
X78380099Y-119539276D01*
X78804927Y-119964846D01*
X79405453Y-120214206D01*
X80055694Y-120214774D01*
X80656655Y-119966462D01*
X81002199Y-119621520D01*
X81344927Y-119964846D01*
X81945453Y-120214206D01*
X82595694Y-120214774D01*
X83196655Y-119966462D01*
X83656846Y-119507073D01*
X83906206Y-118906547D01*
X83906774Y-118256306D01*
X83658462Y-117655345D01*
X83199073Y-117195154D01*
X82598547Y-116945794D01*
X81948306Y-116945226D01*
X81347345Y-117193538D01*
X81001801Y-117538480D01*
X80659073Y-117195154D01*
X80058547Y-116945794D01*
X79408306Y-116945226D01*
X78807345Y-117193538D01*
X78379599Y-117620539D01*
X78344163Y-117607443D01*
X77371605Y-118580000D01*
X77012395Y-118580000D01*
X76039837Y-117607443D01*
X75773035Y-117706042D01*
X75546599Y-118315582D01*
X75569700Y-118939475D01*
X74356251Y-118435606D01*
X72969832Y-118434397D01*
X71688485Y-118963838D01*
X70707284Y-119943329D01*
X70175606Y-121223749D01*
X70174397Y-122610168D01*
X66750000Y-122610168D01*
X66750000Y-117427837D01*
X76219443Y-117427837D01*
X77192000Y-118400395D01*
X78164557Y-117427837D01*
X78065958Y-117161035D01*
X77456418Y-116934599D01*
X76806623Y-116958659D01*
X76318042Y-117161035D01*
X76219443Y-117427837D01*
X66750000Y-117427837D01*
X66750000Y-110064000D01*
X68397560Y-110064000D01*
X68397560Y-112364000D01*
X68441838Y-112599317D01*
X68580910Y-112815441D01*
X68793110Y-112960431D01*
X69045000Y-113011440D01*
X70345000Y-113011440D01*
X70580317Y-112967162D01*
X70796441Y-112828090D01*
X70941431Y-112615890D01*
X70992440Y-112364000D01*
X70992440Y-110823319D01*
X71193110Y-110960431D01*
X71445000Y-111011440D01*
X72745000Y-111011440D01*
X72980317Y-110967162D01*
X73196441Y-110828090D01*
X73341431Y-110615890D01*
X73392440Y-110364000D01*
X73392440Y-110064000D01*
X74497560Y-110064000D01*
X74497560Y-112364000D01*
X74541838Y-112599317D01*
X74680910Y-112815441D01*
X74893110Y-112960431D01*
X75145000Y-113011440D01*
X76445000Y-113011440D01*
X76680317Y-112967162D01*
X76896441Y-112828090D01*
X77041431Y-112615890D01*
X77092440Y-112364000D01*
X77092440Y-110999000D01*
X77309250Y-110999000D01*
X77468000Y-110840250D01*
X77468000Y-109341000D01*
X77722000Y-109341000D01*
X77722000Y-110840250D01*
X77880750Y-110999000D01*
X78371309Y-110999000D01*
X78604698Y-110902327D01*
X78783327Y-110723699D01*
X78880000Y-110490310D01*
X78880000Y-110064000D01*
X79997560Y-110064000D01*
X79997560Y-112364000D01*
X80041838Y-112599317D01*
X80180910Y-112815441D01*
X80393110Y-112960431D01*
X80645000Y-113011440D01*
X81945000Y-113011440D01*
X82180317Y-112967162D01*
X82396441Y-112828090D01*
X82541431Y-112615890D01*
X82592440Y-112364000D01*
X82592440Y-110064000D01*
X82548162Y-109828683D01*
X82409090Y-109612559D01*
X82196890Y-109467569D01*
X81945000Y-109416560D01*
X80645000Y-109416560D01*
X80409683Y-109460838D01*
X80193559Y-109599910D01*
X80048569Y-109812110D01*
X79997560Y-110064000D01*
X78880000Y-110064000D01*
X78880000Y-109499750D01*
X78721250Y-109341000D01*
X77722000Y-109341000D01*
X77468000Y-109341000D01*
X76468750Y-109341000D01*
X76393190Y-109416560D01*
X75145000Y-109416560D01*
X74909683Y-109460838D01*
X74693559Y-109599910D01*
X74548569Y-109812110D01*
X74497560Y-110064000D01*
X73392440Y-110064000D01*
X73392440Y-108064000D01*
X73368674Y-107937690D01*
X76310000Y-107937690D01*
X76310000Y-108928250D01*
X76468750Y-109087000D01*
X77468000Y-109087000D01*
X77468000Y-107587750D01*
X77722000Y-107587750D01*
X77722000Y-109087000D01*
X78721250Y-109087000D01*
X78880000Y-108928250D01*
X78880000Y-107937690D01*
X78783327Y-107704301D01*
X78604698Y-107525673D01*
X78371309Y-107429000D01*
X77880750Y-107429000D01*
X77722000Y-107587750D01*
X77468000Y-107587750D01*
X77309250Y-107429000D01*
X76818691Y-107429000D01*
X76585302Y-107525673D01*
X76406673Y-107704301D01*
X76310000Y-107937690D01*
X73368674Y-107937690D01*
X73348162Y-107828683D01*
X73209090Y-107612559D01*
X72996890Y-107467569D01*
X72745000Y-107416560D01*
X71445000Y-107416560D01*
X71209683Y-107460838D01*
X70993559Y-107599910D01*
X70848569Y-107812110D01*
X70797560Y-108064000D01*
X70797560Y-109604681D01*
X70596890Y-109467569D01*
X70345000Y-109416560D01*
X69045000Y-109416560D01*
X68809683Y-109460838D01*
X68593559Y-109599910D01*
X68448569Y-109812110D01*
X68397560Y-110064000D01*
X66750000Y-110064000D01*
X66750000Y-107335167D01*
X100132840Y-107335167D01*
X100274885Y-107678943D01*
X100308000Y-107712116D01*
X100308000Y-109037582D01*
X100365852Y-109328421D01*
X100530599Y-109574983D01*
X101399719Y-110444103D01*
X101399679Y-110489590D01*
X101541724Y-110833366D01*
X101582610Y-110874324D01*
X101540933Y-110916001D01*
X101494999Y-110916001D01*
X101204160Y-110973853D01*
X101103787Y-111040920D01*
X101009833Y-111040838D01*
X100666057Y-111182883D01*
X100402808Y-111445673D01*
X100260162Y-111789201D01*
X100259838Y-112161167D01*
X100401883Y-112504943D01*
X100664673Y-112768192D01*
X101008201Y-112910838D01*
X101380167Y-112911162D01*
X101723943Y-112769117D01*
X101987192Y-112506327D01*
X102030859Y-112401166D01*
X102146574Y-112378149D01*
X102393136Y-112213402D01*
X103268439Y-111338099D01*
X103313926Y-111338139D01*
X103657702Y-111196094D01*
X103920951Y-110933304D01*
X104063597Y-110589776D01*
X104063921Y-110217810D01*
X103921876Y-109874034D01*
X103659086Y-109610785D01*
X103315558Y-109468139D01*
X102943592Y-109467815D01*
X102850668Y-109506210D01*
X102521640Y-109369585D01*
X102474764Y-109369544D01*
X101828000Y-108722780D01*
X101828000Y-107712465D01*
X101860194Y-107680327D01*
X101936255Y-107497153D01*
X101943147Y-107486838D01*
X101945546Y-107474778D01*
X102002840Y-107336799D01*
X102003164Y-106964833D01*
X101861119Y-106621057D01*
X101598329Y-106357808D01*
X101254801Y-106215162D01*
X100882835Y-106214838D01*
X100539059Y-106356883D01*
X100275810Y-106619673D01*
X100133164Y-106963201D01*
X100132840Y-107335167D01*
X66750000Y-107335167D01*
X66750000Y-104873163D01*
X76346443Y-104873163D01*
X76445042Y-105139965D01*
X77054582Y-105366401D01*
X77704377Y-105342341D01*
X78192958Y-105139965D01*
X78291557Y-104873163D01*
X77319000Y-103900605D01*
X76346443Y-104873163D01*
X66750000Y-104873163D01*
X66750000Y-103456582D01*
X75673599Y-103456582D01*
X75697659Y-104106377D01*
X75900035Y-104594958D01*
X76166837Y-104693557D01*
X77139395Y-103721000D01*
X76166837Y-102748443D01*
X75900035Y-102847042D01*
X75673599Y-103456582D01*
X66750000Y-103456582D01*
X66750000Y-102197000D01*
X76698620Y-102197000D01*
X76445042Y-102302035D01*
X76346443Y-102568837D01*
X77319000Y-103541395D01*
X78291557Y-102568837D01*
X78192958Y-102302035D01*
X77910216Y-102197000D01*
X79267212Y-102197000D01*
X78934345Y-102334538D01*
X78506599Y-102761539D01*
X78471163Y-102748443D01*
X77498605Y-103721000D01*
X78471163Y-104693557D01*
X78507099Y-104680276D01*
X78931927Y-105105846D01*
X79532453Y-105355206D01*
X80182694Y-105355774D01*
X80783655Y-105107462D01*
X81129199Y-104762520D01*
X81471927Y-105105846D01*
X82072453Y-105355206D01*
X82722694Y-105355774D01*
X83323655Y-105107462D01*
X83783846Y-104648073D01*
X84033206Y-104047547D01*
X84033774Y-103397306D01*
X83785462Y-102796345D01*
X83326073Y-102336154D01*
X82990953Y-102197000D01*
X83655682Y-102197000D01*
X83692406Y-102191574D01*
X87878761Y-100927000D01*
X103065665Y-100927000D01*
X104497000Y-101761945D01*
M02*
