G04 #@! TF.FileFunction,Soldermask,Bot*
%FSLAX46Y46*%
G04 Gerber Fmt 4.6, Leading zero omitted, Abs format (unit mm)*
G04 Created by KiCad (PCBNEW 4.0.7-e2-6376~58~ubuntu16.04.1) date Tue Feb 27 18:52:35 2018*
%MOMM*%
%LPD*%
G01*
G04 APERTURE LIST*
%ADD10C,0.150000*%
%ADD11R,2.127200X2.127200*%
%ADD12O,2.127200X2.127200*%
%ADD13C,6.100000*%
%ADD14R,2.432000X2.127200*%
%ADD15O,2.432000X2.127200*%
%ADD16O,2.398980X2.398980*%
%ADD17R,2.398980X2.398980*%
%ADD18C,0.800000*%
%ADD19R,1.700000X2.700000*%
%ADD20R,0.900000X1.300000*%
%ADD21R,2.150000X2.150000*%
%ADD22C,2.150000*%
%ADD23R,1.700000X1.700000*%
%ADD24C,1.700000*%
%ADD25C,2.398980*%
G04 APERTURE END LIST*
D10*
D11*
X129008000Y-115405000D03*
D12*
X131548000Y-115405000D03*
X129008000Y-117945000D03*
X131548000Y-117945000D03*
X129008000Y-120485000D03*
X131548000Y-120485000D03*
D13*
X73660000Y-121920000D03*
X78081000Y-56000000D03*
X157480000Y-56000000D03*
D14*
X161036000Y-87376000D03*
D15*
X161036000Y-84836000D03*
X161036000Y-82296000D03*
X161036000Y-79756000D03*
X161036000Y-77216000D03*
X161036000Y-74676000D03*
X161036000Y-72136000D03*
X161036000Y-69596000D03*
D16*
X69191000Y-57747000D03*
D17*
X69191000Y-55207000D03*
D18*
X82780000Y-78980000D03*
X82780000Y-80480000D03*
X84280000Y-78980000D03*
X84280000Y-80480000D03*
X82780000Y-81980000D03*
X84280000Y-81980000D03*
D13*
X157480000Y-121920000D03*
D11*
X83124721Y-63609889D03*
D12*
X83124721Y-61069889D03*
X85664721Y-63609889D03*
X85664721Y-61069889D03*
X88204721Y-63609889D03*
X88204721Y-61069889D03*
X90744721Y-63609889D03*
X90744721Y-61069889D03*
X93284721Y-63609889D03*
X93284721Y-61069889D03*
X95824721Y-63609889D03*
X95824721Y-61069889D03*
X98364721Y-63609889D03*
X98364721Y-61069889D03*
X100904721Y-63609889D03*
X100904721Y-61069889D03*
X103444721Y-63609889D03*
X103444721Y-61069889D03*
X105984721Y-63609889D03*
X105984721Y-61069889D03*
D19*
X69695000Y-111214000D03*
X77595000Y-109214000D03*
X72095000Y-109214000D03*
X81295000Y-111214000D03*
X75795000Y-111214000D03*
D20*
X81649000Y-58890000D03*
X83149000Y-58890000D03*
X84570000Y-58890000D03*
X86070000Y-58890000D03*
D21*
X109363000Y-69685000D03*
D22*
X111863000Y-69685000D03*
X114363000Y-69685000D03*
D21*
X112498000Y-54572000D03*
D22*
X114998000Y-54572000D03*
D21*
X121546750Y-54572000D03*
D22*
X124046750Y-54572000D03*
D21*
X130595500Y-54572000D03*
D22*
X133095500Y-54572000D03*
D21*
X139644250Y-54572000D03*
D22*
X142144250Y-54572000D03*
D21*
X148693000Y-54572000D03*
D22*
X151193000Y-54572000D03*
D23*
X71731000Y-67399000D03*
D24*
X76731000Y-67399000D03*
D25*
X79732000Y-118580000D03*
X77192000Y-118580000D03*
X82272000Y-118580000D03*
X79859000Y-103721000D03*
X82399000Y-103721000D03*
X77319000Y-103721000D03*
M02*
