G04 #@! TF.FileFunction,Legend,Bot*
%FSLAX46Y46*%
G04 Gerber Fmt 4.6, Leading zero omitted, Abs format (unit mm)*
G04 Created by KiCad (PCBNEW 4.0.7-e2-6376~58~ubuntu16.04.1) date Sun Oct 22 13:56:38 2017*
%MOMM*%
%LPD*%
G01*
G04 APERTURE LIST*
%ADD10C,0.150000*%
%ADD11C,6.100000*%
%ADD12R,2.432000X2.127200*%
%ADD13O,2.432000X2.127200*%
%ADD14O,2.398980X2.398980*%
%ADD15R,2.398980X2.398980*%
%ADD16C,0.800000*%
%ADD17R,2.127200X2.127200*%
%ADD18O,2.127200X2.127200*%
%ADD19R,1.700000X2.700000*%
%ADD20C,2.398980*%
G04 APERTURE END LIST*
D10*
%LPC*%
D11*
X73660000Y-121920000D03*
X73660000Y-58420000D03*
X157480000Y-58420000D03*
D12*
X133096000Y-54864000D03*
D13*
X133096000Y-57404000D03*
X133096000Y-59944000D03*
X133096000Y-62484000D03*
X133096000Y-65024000D03*
X133096000Y-67564000D03*
D12*
X120904000Y-54864000D03*
D13*
X120904000Y-57404000D03*
X120904000Y-59944000D03*
X120904000Y-62484000D03*
X120904000Y-65024000D03*
X120904000Y-67564000D03*
D12*
X161036000Y-87376000D03*
D13*
X161036000Y-84836000D03*
X161036000Y-82296000D03*
X161036000Y-79756000D03*
X161036000Y-77216000D03*
X161036000Y-74676000D03*
X161036000Y-72136000D03*
X161036000Y-69596000D03*
D14*
X72517000Y-68707000D03*
D15*
X72517000Y-66167000D03*
D12*
X127000000Y-54864000D03*
D13*
X127000000Y-57404000D03*
X127000000Y-59944000D03*
X127000000Y-62484000D03*
X127000000Y-65024000D03*
X127000000Y-67564000D03*
D12*
X139192000Y-54864000D03*
D13*
X139192000Y-57404000D03*
X139192000Y-59944000D03*
X139192000Y-62484000D03*
X139192000Y-65024000D03*
X139192000Y-67564000D03*
D12*
X145137000Y-54864000D03*
D13*
X145137000Y-57404000D03*
X145137000Y-59944000D03*
X145137000Y-62484000D03*
X145137000Y-65024000D03*
X145137000Y-67564000D03*
D16*
X82780000Y-78980000D03*
X82780000Y-80480000D03*
X84280000Y-78980000D03*
X84280000Y-80480000D03*
X82780000Y-81980000D03*
X84280000Y-81980000D03*
D11*
X157480000Y-121920000D03*
D17*
X83124721Y-63609889D03*
D18*
X83124721Y-61069889D03*
X85664721Y-63609889D03*
X85664721Y-61069889D03*
X88204721Y-63609889D03*
X88204721Y-61069889D03*
X90744721Y-63609889D03*
X90744721Y-61069889D03*
X93284721Y-63609889D03*
X93284721Y-61069889D03*
X95824721Y-63609889D03*
X95824721Y-61069889D03*
X98364721Y-63609889D03*
X98364721Y-61069889D03*
X100904721Y-63609889D03*
X100904721Y-61069889D03*
X103444721Y-63609889D03*
X103444721Y-61069889D03*
X105984721Y-63609889D03*
X105984721Y-61069889D03*
D19*
X69695000Y-111214000D03*
X77595000Y-109214000D03*
X72095000Y-109214000D03*
X81295000Y-111214000D03*
X75795000Y-111214000D03*
D17*
X129008000Y-115405000D03*
D18*
X131548000Y-115405000D03*
X129008000Y-117945000D03*
X131548000Y-117945000D03*
X129008000Y-120485000D03*
X131548000Y-120485000D03*
X129008000Y-123025000D03*
X131548000Y-123025000D03*
D20*
X79732000Y-118580000D03*
X77192000Y-118580000D03*
X82272000Y-118580000D03*
X79859000Y-103721000D03*
X82399000Y-103721000D03*
X77319000Y-103721000D03*
M02*
