M48
;DRILL file {KiCad 4.0.7-e2-6376~58~ubuntu16.04.1} date Tue Feb 27 18:41:53 2018
;FORMAT={2:4/ absolute / inch / suppress leading zeros}
FMAT,2
INCH,TZ
T1C0.013
T2C0.016
T3C0.031
T4C0.035
T5C0.039
T6C0.040
T7C0.043
T8C0.043
T9C0.047
T10C0.126
%
G90
G05
M72
T1
X32591Y-31094
X32591Y-31685
X32591Y-32276
X33181Y-31094
X33181Y-31685
X33181Y-32276
T2
X26941Y-33985
X26952Y-32085
X29841Y-46235
X29891Y-41235
X29941Y-31585
X31291Y-31435
X32141Y-26485
X32591Y-30535
X33041Y-32885
X33241Y-29985
X34491Y-29735
X34841Y-41035
X34891Y-46435
X35641Y-28285
X36949Y-29994
X37241Y-43685
X37291Y-30885
X37291Y-32935
X37291Y-34335
X37291Y-35485
X37291Y-37035
X37291Y-38535
X37641Y-41135
X37641Y-46385
X37691Y-43185
X37691Y-44335
X37741Y-31935
X37841Y-30035
X37891Y-35285
X38191Y-40085
X38341Y-44185
X38491Y-40085
X38791Y-40085
X39291Y-27735
X39341Y-31685
X39341Y-43535
X39441Y-34885
X39641Y-25785
X39641Y-28685
X39791Y-42185
X39841Y-28085
X39841Y-44085
X39991Y-34685
X39991Y-37685
X40091Y-41835
X40191Y-46485
X40191Y-49435
X40289Y-43427
X40341Y-38835
X40591Y-44185
X40602Y-43466
X40644Y-42738
X40941Y-40185
X41591Y-38085
X41591Y-30585
X41891Y-40985
X41906Y-40423
X42044Y-39634
X42091Y-48235
X42241Y-32585
X42244Y-43140
X42291Y-30735
X42291Y-46535
X42342Y-45384
X42391Y-44335
X42491Y-42085
X42491Y-42585
X42591Y-50585
X42614Y-40384
X42691Y-35135
X42741Y-46535
X42741Y-47035
X42741Y-49885
X42749Y-42765
X42841Y-54685
X42991Y-42485
X43041Y-43785
X43041Y-56611
X43185Y-42194
X43285Y-42974
X43341Y-50935
X43341Y-54685
X43354Y-41919
X43491Y-36285
X43491Y-44385
X43541Y-45735
X43541Y-50085
X43541Y-42735
X43637Y-38235
X43641Y-40035
X43641Y-46135
X43691Y-40535
X43691Y-54985
X43795Y-43274
X43828Y-40988
X43891Y-31835
X43936Y-29734
X44041Y-43535
X44048Y-42188
X44091Y-54685
X44133Y-42858
X44191Y-49835
X44226Y-29856
X44341Y-50735
X44491Y-29685
X44741Y-44735
X44841Y-54685
X44941Y-40185
X45041Y-50835
X45094Y-49770
X45191Y-41635
X45241Y-38235
X45241Y-45435
X45249Y-40277
X45341Y-44035
X45341Y-54685
X45391Y-42785
X45441Y-42435
X45541Y-44835
X45591Y-49885
X45641Y-41135
X45641Y-44385
X45641Y-50885
X45741Y-42785
X45833Y-24835
X45890Y-54734
X45935Y-41535
X45938Y-42235
X45941Y-28635
X46022Y-40817
X46191Y-34435
X46191Y-44985
X46241Y-44535
X46241Y-49885
X46269Y-38107
X46269Y-37777
X46291Y-44185
X46341Y-50885
X46441Y-51435
X46526Y-39449
X46691Y-40785
X46741Y-56835
X46841Y-39435
X46941Y-44535
X46991Y-30031
X47291Y-41135
X47295Y-30494
X47391Y-40785
X47441Y-39685
X47641Y-44485
X47641Y-30285
X47741Y-42935
X47743Y-42235
X47745Y-38037
X47746Y-41535
X47746Y-43635
X47791Y-37335
X47941Y-29185
X48044Y-37085
X48044Y-38135
X48241Y-34735
X48441Y-34185
X48491Y-26436
X48691Y-28785
X48708Y-44764
X48741Y-32485
X48895Y-37825
X48941Y-34385
X49002Y-35376
X49091Y-24985
X49291Y-37485
X49385Y-34749
X49942Y-33384
X50291Y-27335
X50651Y-31415
X50691Y-26035
X50694Y-36307
X50794Y-36606
X50837Y-38353
X50845Y-38693
X50894Y-37480
X50941Y-40835
X51141Y-37235
X51165Y-44259
X51441Y-43685
X51591Y-34485
X51641Y-42685
X51649Y-31791
X51841Y-38185
X51941Y-36635
X52071Y-31017
X52141Y-26785
X52172Y-34674
X52190Y-32136
X52191Y-40085
X52200Y-37189
X52280Y-35174
X52306Y-34390
X52307Y-37707
X52441Y-29435
X52443Y-38024
X52613Y-34320
X52691Y-24985
X52691Y-26585
X52791Y-26985
X52791Y-29635
X52841Y-32291
X52941Y-33935
X52941Y-34485
X53119Y-41481
X53333Y-32179
X53387Y-35728
X53480Y-35427
X53579Y-30785
X53704Y-42237
X53717Y-35043
X53751Y-42548
X53909Y-35528
X53912Y-32166
X54036Y-43080
X54141Y-35885
X54286Y-36627
X54391Y-30585
X54555Y-38788
X54613Y-34261
X54637Y-31142
X54691Y-37085
X54741Y-31785
X54761Y-33973
X54869Y-32373
X54869Y-32704
X54972Y-36944
X54990Y-34190
X55140Y-35134
X55141Y-30085
X55191Y-36435
X55391Y-40585
X55437Y-37987
X55444Y-38834
X55491Y-35885
X55691Y-36935
X55730Y-37462
X55841Y-31735
X56091Y-33135
X56241Y-24985
X56241Y-41485
X56291Y-40135
X56541Y-39485
X56541Y-41085
X56591Y-33635
X56591Y-44185
X56641Y-32235
X56991Y-35935
X57041Y-36985
X57077Y-37577
X57341Y-34835
X57441Y-37835
X57441Y-35935
X57491Y-33785
X57491Y-35185
X57491Y-38335
X57741Y-38135
X57991Y-34685
X58191Y-29185
X58341Y-38135
X58891Y-38135
X58941Y-34685
X59191Y-34985
X59341Y-47385
X59391Y-45885
X59541Y-38135
X59741Y-34735
X59941Y-25035
X60041Y-38135
X60141Y-35135
X60191Y-36735
X60491Y-35485
X60491Y-37685
X60541Y-36035
X60541Y-36585
X60541Y-37135
X60741Y-34785
X63341Y-45885
T3
X28241Y-26535
X30209Y-26535
T4
X43056Y-27435
X44041Y-27435
X45025Y-27435
T5
X44291Y-21485
X45275Y-21485
X47853Y-21485
X48837Y-21485
X51416Y-21485
X52400Y-21485
X54978Y-21485
X55962Y-21485
X58541Y-21485
X59525Y-21485
T6
X32726Y-24043
X32726Y-25043
X33726Y-24043
X33726Y-25043
X34726Y-24043
X34726Y-25043
X35726Y-24043
X35726Y-25043
X36726Y-24043
X36726Y-25043
X37726Y-24043
X37726Y-25043
X38726Y-24043
X38726Y-25043
X39726Y-24043
X39726Y-25043
X40726Y-24043
X40726Y-25043
X41726Y-24043
X41726Y-25043
X50791Y-45435
X50791Y-46435
X50791Y-47435
X51791Y-45435
X51791Y-46435
X51791Y-47435
X63400Y-27400
X63400Y-28400
X63400Y-29400
X63400Y-30400
X63400Y-31400
X63400Y-32400
X63400Y-33400
X63400Y-34400
T7
X27241Y-21735
X27241Y-22735
T9
X30391Y-46685
X30441Y-40835
X31391Y-46685
X31441Y-40835
X32391Y-46685
X32441Y-40835
T10
X29000Y-48000
X30741Y-22047
X62000Y-22047
X62000Y-48000
T8
X27439Y-43588G85X27439Y-43982
G05
X28384Y-42801G85X28384Y-43194
G05
X29841Y-43588G85X29841Y-43982
G05
X30549Y-42801G85X30549Y-43194
G05
X32006Y-43588G85X32006Y-43982
G05
T0
M30
